<svg xmlns="http://www.w3.org/2000/svg" xmlns:xlink="http://www.w3.org/1999/xlink" viewBox="0 0 1366 768"><defs><style>.cls-1,.cls-11,.cls-14{fill:none;}.cls-2{isolation:isolate;}.cls-3{fill:#005a92;}.cls-4{clip-path:url(#clip-path);}.cls-5{fill:#fff100;}.cls-6{fill:#f26f31;}.cls-7{fill:#b1c3cd;}.cls-8{fill:#667273;}.cls-16,.cls-9{fill:#606060;}.cls-10{fill:#ef4736;}.cls-11{stroke:#ffda04;stroke-miterlimit:10;}.cls-11,.cls-14{stroke-linecap:round;}.cls-12,.cls-13{fill:#ffda04;}.cls-12{opacity:0.4;}.cls-14{stroke:#8e9a9b;stroke-linejoin:round;}.cls-15,.cls-17{fill:#fffbf2;}.cls-16,.cls-17{opacity:0.3;}.cls-16{mix-blend-mode:multiply;}.cls-17{mix-blend-mode:screen;}.cls-18{fill:#f0c600;}.cls-19{fill:#474745;}.cls-20{fill:#fff;}.cls-21{fill:#3a4950;}.cls-22{fill:#e14136;}.cls-23{fill:#9ed7f2;}.cls-24{fill:#f0f8ff;}.cls-25{fill:#e7f6fd;}.cls-26{fill:#d6e8f2;}</style><clipPath id="clip-path"><rect class="cls-1" x="701.28" y="176.51" width="283" height="69.46"/></clipPath></defs><title>403 Page</title><g class="cls-2"><g id="Layer_1" data-name="Layer 1"><g id="Text_shape" data-name="Text shape"><path class="cls-3" d="M724.71,511.06c-.33-1-.69-2.1-1.07-3.19l-1.14-3.26H710.86c-.37,1.09-.75,2.18-1.13,3.27s-.73,2.16-1.05,3.18h-7q1.68-4.81,3.19-8.9c1-2.72,2-5.29,3-7.69s1.92-4.7,2.85-6.86,1.91-4.28,2.91-6.34H720q1.47,3.09,2.9,6.34c1,2.16,1.9,4.45,2.87,6.86s2,5,3,7.69,2.07,5.69,3.2,8.9Zm-8.06-23c-.15.43-.37,1-.65,1.76l-1,2.58c-.37,1-.78,2.06-1.23,3.23s-.92,2.4-1.39,3.69h8.52c-.46-1.29-.9-2.53-1.33-3.7s-.83-2.26-1.21-3.23l-1-2.58C717.06,489,716.83,488.44,716.65,488Z"/><path class="cls-3" d="M733.74,499.75a13.35,13.35,0,0,1,.8-4.62,11.1,11.1,0,0,1,2.3-3.78,10.82,10.82,0,0,1,3.66-2.56,12,12,0,0,1,4.9-1,15.47,15.47,0,0,1,3.31.33,15.72,15.72,0,0,1,2.92.92l-1.33,5.12a15.47,15.47,0,0,0-2-.6,10,10,0,0,0-2.41-.26,5.08,5.08,0,0,0-4.23,1.76,7.27,7.27,0,0,0-1.4,4.64,7.57,7.57,0,0,0,1.31,4.74c.88,1.11,2.4,1.67,4.58,1.67a16.1,16.1,0,0,0,2.5-.21,10.89,10.89,0,0,0,2.45-.69l.9,5.24a14.83,14.83,0,0,1-2.8.82,18.28,18.28,0,0,1-3.69.35,13.86,13.86,0,0,1-5.34-.93,9.6,9.6,0,0,1-5.78-6.28A16,16,0,0,1,733.74,499.75Z"/><path class="cls-3" d="M754.17,499.75a13.35,13.35,0,0,1,.79-4.62,11.12,11.12,0,0,1,2.31-3.78,10.88,10.88,0,0,1,3.65-2.56,12.07,12.07,0,0,1,4.9-1,15.4,15.4,0,0,1,3.31.33,15.82,15.82,0,0,1,2.93.92l-1.34,5.12a15.8,15.8,0,0,0-2-.6,10,10,0,0,0-2.41-.26,5.1,5.1,0,0,0-4.24,1.76,7.26,7.26,0,0,0-1.39,4.64,7.51,7.51,0,0,0,1.31,4.74q1.31,1.67,4.58,1.67a16.08,16.08,0,0,0,2.49-.21,10.6,10.6,0,0,0,2.45-.69l.9,5.24a14.49,14.49,0,0,1-2.79.82,18.38,18.38,0,0,1-3.7.35,13.85,13.85,0,0,1-5.33-.93,10,10,0,0,1-3.68-2.51,9.76,9.76,0,0,1-2.1-3.77A15.72,15.72,0,0,1,754.17,499.75Z"/><path class="cls-3" d="M774.59,499.93a13.78,13.78,0,0,1,.93-5.27A11.31,11.31,0,0,1,778,490.9a9.93,9.93,0,0,1,3.46-2.28,10.73,10.73,0,0,1,4-.78,10,10,0,0,1,7.61,3q2.81,2.94,2.8,8.66c0,.38,0,.79-.05,1.23s0,.84-.08,1.18H781.17A4.27,4.27,0,0,0,783,505a7.39,7.39,0,0,0,4.39,1.16,19,19,0,0,0,3.46-.32,12.39,12.39,0,0,0,2.77-.8l.86,5.21a8.78,8.78,0,0,1-1.37.51,14.71,14.71,0,0,1-1.92.45q-1.05.19-2.25.33c-.81.08-1.61.13-2.41.13a14.05,14.05,0,0,1-5.31-.91,10.23,10.23,0,0,1-3.74-2.47,10,10,0,0,1-2.2-3.72A14.79,14.79,0,0,1,774.59,499.93Zm15.06-2.45a7.15,7.15,0,0,0-.28-1.6,4,4,0,0,0-.74-1.37,3.93,3.93,0,0,0-1.24-1,4,4,0,0,0-1.87-.39,4.33,4.33,0,0,0-1.85.37,3.72,3.72,0,0,0-1.29,1,4.25,4.25,0,0,0-.8,1.39,10.12,10.12,0,0,0-.41,1.62Z"/><path class="cls-3" d="M807.28,506.46a6.4,6.4,0,0,0,2.49-.34,1.32,1.32,0,0,0,.73-1.33,1.65,1.65,0,0,0-1-1.36,17.92,17.92,0,0,0-2.88-1.31c-1-.37-1.91-.76-2.73-1.16a8,8,0,0,1-2.08-1.44,5.87,5.87,0,0,1-1.34-2,7.52,7.52,0,0,1-.47-2.8,6,6,0,0,1,2.37-5,10.29,10.29,0,0,1,6.49-1.85,21.2,21.2,0,0,1,4,.37,19,19,0,0,1,3,.79l-1.12,5c-.75-.25-1.56-.48-2.43-.68a13.29,13.29,0,0,0-3-.31c-2,0-3,.56-3,1.68a1.84,1.84,0,0,0,.13.69,1.53,1.53,0,0,0,.52.58,6.72,6.72,0,0,0,1.05.6c.44.22,1,.46,1.7.72a25.92,25.92,0,0,1,3.48,1.54,8.05,8.05,0,0,1,2.17,1.64,4.92,4.92,0,0,1,1.12,1.95,8.46,8.46,0,0,1,.32,2.49,5.71,5.71,0,0,1-2.51,5.06,12.59,12.59,0,0,1-7.12,1.72,20.71,20.71,0,0,1-5-.52,19.88,19.88,0,0,1-2.77-.86l1.07-5.2a21.67,21.67,0,0,0,3.36,1A16.51,16.51,0,0,0,807.28,506.46Z"/><path class="cls-3" d="M828.13,506.46a6.37,6.37,0,0,0,2.49-.34,1.32,1.32,0,0,0,.73-1.33,1.63,1.63,0,0,0-.94-1.36,17.92,17.92,0,0,0-2.88-1.31A27.68,27.68,0,0,1,824.8,501a8.06,8.06,0,0,1-2.09-1.44,5.84,5.84,0,0,1-1.33-2,7.33,7.33,0,0,1-.47-2.8,6,6,0,0,1,2.36-5,10.3,10.3,0,0,1,6.49-1.85,21.12,21.12,0,0,1,4,.37,19,19,0,0,1,3,.79l-1.12,5a24.7,24.7,0,0,0-2.43-.68,13.13,13.13,0,0,0-2.94-.31c-2,0-3,.56-3,1.68a1.67,1.67,0,0,0,.13.69,1.41,1.41,0,0,0,.51.58,6.43,6.43,0,0,0,1.06.6c.44.22,1,.46,1.69.72a25.54,25.54,0,0,1,3.49,1.54,8.21,8.21,0,0,1,2.17,1.64,5,5,0,0,1,1.12,1.95,8.8,8.8,0,0,1,.32,2.49A5.72,5.72,0,0,1,835.2,510a12.55,12.55,0,0,1-7.11,1.72,20.6,20.6,0,0,1-5-.52,19.68,19.68,0,0,1-2.78-.86l1.08-5.2a21.88,21.88,0,0,0,3.35,1A16.59,16.59,0,0,0,828.13,506.46Z"/><path class="cls-3" d="M872.76,510.33c-.57.17-1.23.34-2,.5s-1.53.29-2.35.41-1.65.2-2.49.28-1.66.1-2.43.1a14.31,14.31,0,0,1-5-.81,9.82,9.82,0,0,1-6-6.05,14.07,14.07,0,0,1-.79-4.88,16.62,16.62,0,0,1,.68-5,10.77,10.77,0,0,1,2-3.76,8.4,8.4,0,0,1,3.16-2.37,10.71,10.71,0,0,1,4.28-.82,10.23,10.23,0,0,1,2.39.26,13.43,13.43,0,0,1,2.13.73V478.73l6.4-1Zm-14.49-10.75a7.94,7.94,0,0,0,1.33,4.78,4.62,4.62,0,0,0,4,1.8q.86,0,1.59-.06c.49-.05.89-.1,1.21-.15V494.29a6,6,0,0,0-1.57-.64,7.7,7.7,0,0,0-2-.26C859.79,493.39,858.27,495.46,858.27,499.58Z"/><path class="cls-3" d="M877.71,499.93a13.78,13.78,0,0,1,.92-5.27,11.31,11.31,0,0,1,2.43-3.76,9.93,9.93,0,0,1,3.46-2.28,10.81,10.81,0,0,1,4-.78,10,10,0,0,1,7.61,3q2.8,2.94,2.8,8.66c0,.38,0,.79,0,1.23s-.06.84-.09,1.18H884.29a4.23,4.23,0,0,0,1.84,3.14,7.41,7.41,0,0,0,4.39,1.16,18.87,18.87,0,0,0,3.46-.32,12.66,12.66,0,0,0,2.78-.8l.86,5.21a9.37,9.37,0,0,1-1.38.51,14.54,14.54,0,0,1-1.91.45c-.71.13-1.46.24-2.26.33s-1.61.13-2.41.13a14.12,14.12,0,0,1-5.31-.91,10.23,10.23,0,0,1-3.74-2.47,9.81,9.81,0,0,1-2.19-3.72A14.51,14.51,0,0,1,877.71,499.93Zm15-2.45a7.15,7.15,0,0,0-.28-1.6,4,4,0,0,0-.73-1.37,4,4,0,0,0-1.25-1,4,4,0,0,0-1.87-.39,4.36,4.36,0,0,0-1.85.37,3.72,3.72,0,0,0-1.29,1,4.44,4.44,0,0,0-.8,1.39,9.13,9.13,0,0,0-.4,1.62Z"/><path class="cls-3" d="M903.89,489.22a36.54,36.54,0,0,1,4.22-.88,34.86,34.86,0,0,1,5.42-.41,13.23,13.23,0,0,1,4.79.75,7.1,7.1,0,0,1,3,2.13,8.19,8.19,0,0,1,1.59,3.27,17.15,17.15,0,0,1,.48,4.21v12.77H917v-12a8.58,8.58,0,0,0-.82-4.39,3.32,3.32,0,0,0-3.05-1.29c-.46,0-.95,0-1.46.07s-1,.09-1.38.15v17.45h-6.41Z"/><path class="cls-3" d="M936.23,481.91a3.5,3.5,0,0,1-1.14,2.77,3.9,3.9,0,0,1-2.69,1,3.86,3.86,0,0,1-2.68-1,3.94,3.94,0,0,1,0-5.54,3.86,3.86,0,0,1,2.68-1,3.9,3.9,0,0,1,2.69,1A3.51,3.51,0,0,1,936.23,481.91Zm-.6,29.15h-6.41V488.45h6.41Z"/><path class="cls-3" d="M940.57,499.93a13.78,13.78,0,0,1,.93-5.27,11,11,0,0,1,2.43-3.76,9.84,9.84,0,0,1,3.46-2.28,10.73,10.73,0,0,1,4-.78,10,10,0,0,1,7.61,3q2.79,2.94,2.79,8.66c0,.38,0,.79,0,1.23s-.06.84-.09,1.18H947.15A4.24,4.24,0,0,0,949,505a7.39,7.39,0,0,0,4.39,1.16,19,19,0,0,0,3.46-.32,12.56,12.56,0,0,0,2.77-.8l.86,5.21a8.57,8.57,0,0,1-1.38.51,14.54,14.54,0,0,1-1.91.45c-.7.13-1.45.24-2.26.33s-1.6.13-2.4.13a14.14,14.14,0,0,1-5.32-.91,10.31,10.31,0,0,1-3.74-2.47,9.94,9.94,0,0,1-2.19-3.72A14.79,14.79,0,0,1,940.57,499.93Zm15-2.45a6.63,6.63,0,0,0-.28-1.6,4,4,0,0,0-.73-1.37,3.87,3.87,0,0,0-1.25-1,4,4,0,0,0-1.87-.39,4.39,4.39,0,0,0-1.85.37,3.92,3.92,0,0,0-1.29,1,4.41,4.41,0,0,0-.79,1.39,9.16,9.16,0,0,0-.41,1.62Z"/><path class="cls-3" d="M986.71,510.33c-.57.17-1.23.34-2,.5s-1.52.29-2.34.41-1.65.2-2.49.28-1.66.1-2.43.1a14.31,14.31,0,0,1-5-.81,9.82,9.82,0,0,1-6-6.05,14.07,14.07,0,0,1-.8-4.88,16.61,16.61,0,0,1,.69-5,10.77,10.77,0,0,1,2-3.76,8.32,8.32,0,0,1,3.16-2.37,10.68,10.68,0,0,1,4.28-.82,10.23,10.23,0,0,1,2.39.26,13,13,0,0,1,2.12.73V478.73l6.41-1Zm-14.49-10.75a7.87,7.87,0,0,0,1.33,4.78,4.62,4.62,0,0,0,4,1.8q.86,0,1.59-.06t1.2-.15V494.29a5.68,5.68,0,0,0-1.57-.64,7.57,7.57,0,0,0-2-.26C973.74,493.39,972.22,495.46,972.22,499.58Z"/><path class="cls-3" d="M708.33,556.06v-8c-1.33-2-2.55-4-3.66-5.89s-2.15-3.74-3.11-5.53h2.21c.79,1.64,1.65,3.31,2.6,5s1.93,3.3,3,4.83q1.49-2.29,2.92-4.83t2.64-5H717c-1,1.77-2,3.62-3.14,5.53s-2.29,3.86-3.58,5.84v8Z"/><path class="cls-3" d="M730.9,548.84a9.31,9.31,0,0,1-.49,3.11,6.88,6.88,0,0,1-1.37,2.38,6.42,6.42,0,0,1-9.49,0,6.88,6.88,0,0,1-1.37-2.38,10.11,10.11,0,0,1,0-6.22,6.93,6.93,0,0,1,1.37-2.39,6.11,6.11,0,0,1,2.09-1.54,6.24,6.24,0,0,1,2.66-.55,6.3,6.3,0,0,1,2.66.55,6.17,6.17,0,0,1,2.08,1.54,6.93,6.93,0,0,1,1.37,2.39A9.31,9.31,0,0,1,730.9,548.84Zm-1.93,0a6.86,6.86,0,0,0-1.26-4.33,4.43,4.43,0,0,0-6.83,0,6.86,6.86,0,0,0-1.26,4.33,6.76,6.76,0,0,0,1.26,4.31,4.44,4.44,0,0,0,6.83,0A6.76,6.76,0,0,0,729,548.84Z"/><path class="cls-3" d="M746,555.56c-.55.15-1.27.32-2.19.5a16.81,16.81,0,0,1-3.36.28,6.72,6.72,0,0,1-2.71-.47,4.46,4.46,0,0,1-1.77-1.35,5.21,5.21,0,0,1-1-2.1,11.42,11.42,0,0,1-.3-2.71v-8.12h1.82v7.53a12.72,12.72,0,0,0,.23,2.6,4.36,4.36,0,0,0,.72,1.73,2.93,2.93,0,0,0,1.31.95,5.79,5.79,0,0,0,1.94.29,14.65,14.65,0,0,0,2.24-.14,5.51,5.51,0,0,0,1.21-.25V541.59H746Z"/><path class="cls-3" d="M768.67,555.62a17.93,17.93,0,0,1-2.07.53,16.54,16.54,0,0,1-3.19.25,7.72,7.72,0,0,1-2.9-.52,6.14,6.14,0,0,1-2.24-1.5,6.71,6.71,0,0,1-1.45-2.38,8.91,8.91,0,0,1-.52-3.16,10.15,10.15,0,0,1,.43-3,6.94,6.94,0,0,1,1.28-2.39,5.77,5.77,0,0,1,2-1.57,6.68,6.68,0,0,1,2.79-.56,6.89,6.89,0,0,1,2.48.41,6,6,0,0,1,1.52.77v-7.79l1.82-.33Zm-1.82-11.4a4.89,4.89,0,0,0-.63-.42,5.57,5.57,0,0,0-.88-.42,6.64,6.64,0,0,0-1.09-.32,5.46,5.46,0,0,0-1.23-.13,4.81,4.81,0,0,0-2.26.48,4.21,4.21,0,0,0-1.47,1.27,5.44,5.44,0,0,0-.81,1.88,9.9,9.9,0,0,0-.25,2.28,6.18,6.18,0,0,0,1.43,4.38,4.92,4.92,0,0,0,3.78,1.53,14.13,14.13,0,0,0,2.17-.13,8,8,0,0,0,1.24-.26Z"/><path class="cls-3" d="M785.84,548.84a9.57,9.57,0,0,1-.49,3.11,7.21,7.21,0,0,1-1.37,2.38,6.43,6.43,0,0,1-9.5,0,7.21,7.21,0,0,1-1.37-2.38,10.11,10.11,0,0,1,0-6.22,7.26,7.26,0,0,1,1.37-2.39,6.21,6.21,0,0,1,2.09-1.54,6.71,6.71,0,0,1,5.32,0,6.21,6.21,0,0,1,2.09,1.54,7.26,7.26,0,0,1,1.37,2.39A9.57,9.57,0,0,1,785.84,548.84Zm-1.93,0a6.86,6.86,0,0,0-1.26-4.33,4.44,4.44,0,0,0-6.84,0,6.86,6.86,0,0,0-1.26,4.33,6.76,6.76,0,0,0,1.26,4.31,4.46,4.46,0,0,0,6.84,0A6.76,6.76,0,0,0,783.91,548.84Z"/><path class="cls-3" d="M789.79,542.09c.54-.15,1.26-.31,2.18-.5a16.81,16.81,0,0,1,3.36-.28,7.16,7.16,0,0,1,2.76.47,4.23,4.23,0,0,1,1.76,1.36,5.56,5.56,0,0,1,.94,2.12,12,12,0,0,1,.28,2.71v8.09h-1.82v-7.5A13.64,13.64,0,0,0,799,546a4.32,4.32,0,0,0-.7-1.74,2.77,2.77,0,0,0-1.29-1,6,6,0,0,0-2-.29,15.9,15.9,0,0,0-2.23.14,6.83,6.83,0,0,0-1.21.25v12.71h-1.82Z"/><path class="cls-3" d="M807.26,535.6a9.52,9.52,0,0,1-.48,3,11.65,11.65,0,0,1-1.43,2.87l-1.34-.61a10.83,10.83,0,0,0,1-2.47,8.9,8.9,0,0,0,.27-2.1v-.53a3.83,3.83,0,0,0,0-.47h2Z"/><path class="cls-3" d="M813.45,541.59h5.76v1.54h-5.76v7.7a7.37,7.37,0,0,0,.21,2,2.72,2.72,0,0,0,.6,1.19,1.89,1.89,0,0,0,1,.56,6,6,0,0,0,3.08-.13,6.92,6.92,0,0,0,1.09-.49l.45,1.52a6.84,6.84,0,0,1-1.37.57,7,7,0,0,1-2.13.32,6.11,6.11,0,0,1-2.25-.35,3.24,3.24,0,0,1-1.46-1.06,4.32,4.32,0,0,1-.77-1.78,12.36,12.36,0,0,1-.22-2.52V537.33l1.82-.33Z"/><path class="cls-3" d="M829,556.06V534.67l1.82-.33V542a10.5,10.5,0,0,1,1.82-.52,9.59,9.59,0,0,1,1.85-.18,7.38,7.38,0,0,1,2.8.47,4.39,4.39,0,0,1,1.79,1.36,5.26,5.26,0,0,1,.93,2.12,12.63,12.63,0,0,1,.27,2.71v8.09h-1.82v-7.5a13.64,13.64,0,0,0-.21-2.6,4.32,4.32,0,0,0-.7-1.74,2.75,2.75,0,0,0-1.3-1,6.21,6.21,0,0,0-2-.29,7.73,7.73,0,0,0-1,.08c-.36.06-.7.12-1,.19a7,7,0,0,0-.85.21,3.9,3.9,0,0,0-.49.16v12.46Z"/><path class="cls-3" d="M849.28,541.25a6.46,6.46,0,0,1,2.43.41,4.12,4.12,0,0,1,1.61,1.12,4.28,4.28,0,0,1,.89,1.69,7.62,7.62,0,0,1,.28,2.13v9.13l-.81.18q-.52.11-1.23.21c-.47.07-1,.14-1.56.18s-1.15.07-1.75.07a8.25,8.25,0,0,1-2.11-.25,4.67,4.67,0,0,1-1.68-.8,3.68,3.68,0,0,1-1.12-1.4,4.82,4.82,0,0,1-.41-2.08,4.22,4.22,0,0,1,.45-2,3.9,3.9,0,0,1,1.26-1.39,5.6,5.6,0,0,1,1.93-.79,11,11,0,0,1,2.44-.26,8.19,8.19,0,0,1,.83,0,7.4,7.4,0,0,1,.84.11c.27,0,.5.09.7.14a2.23,2.23,0,0,1,.4.12v-.89a10,10,0,0,0-.11-1.47,3.15,3.15,0,0,0-.49-1.29,2.73,2.73,0,0,0-1.06-.92,3.92,3.92,0,0,0-1.81-.35,9.35,9.35,0,0,0-2.38.22c-.52.15-.9.27-1.15.36l-.25-1.59a6.77,6.77,0,0,1,1.47-.42A12.56,12.56,0,0,1,849.28,541.25Zm.17,13.5c.71,0,1.33,0,1.86-.07s1-.11,1.36-.18v-5.1a5.51,5.51,0,0,0-1-.29,8.16,8.16,0,0,0-1.85-.16,11.67,11.67,0,0,0-1.4.1,4.28,4.28,0,0,0-1.34.42,2.77,2.77,0,0,0-1,.88,2.57,2.57,0,0,0-.39,1.49,3.16,3.16,0,0,0,.27,1.37,2.18,2.18,0,0,0,.75.89,3.23,3.23,0,0,0,1.18.49A6.65,6.65,0,0,0,849.45,554.75Z"/><path class="cls-3" d="M863.52,554.1c.4-.8.8-1.72,1.21-2.75s.81-2.11,1.19-3.22.74-2.23,1.07-3.36.6-2.19.83-3.18h1.82c-.34,1.32-.71,2.63-1.13,3.92s-.85,2.55-1.31,3.78-.94,2.42-1.43,3.55-1,2.22-1.45,3.22h-1.7c-.49-1-1-2.08-1.47-3.22s-1-2.32-1.42-3.55-.9-2.49-1.31-3.78-.79-2.6-1.13-3.92h1.93c.23,1,.51,2,.83,3.18s.69,2.25,1.07,3.36.78,2.18,1.19,3.22S863.13,553.3,863.52,554.1Z"/><path class="cls-3" d="M871.71,548.81a9.1,9.1,0,0,1,.55-3.32,7.16,7.16,0,0,1,1.43-2.36,5.56,5.56,0,0,1,2-1.42,6.33,6.33,0,0,1,2.34-.46,5.45,5.45,0,0,1,4.24,1.74c1.06,1.16,1.58,2.94,1.58,5.35,0,.15,0,.29,0,.44s0,.29,0,.42H873.64a6.42,6.42,0,0,0,1.32,4.09,4.92,4.92,0,0,0,3.92,1.43,7.8,7.8,0,0,0,2.35-.28,10.15,10.15,0,0,0,1.26-.48l.34,1.57a7.14,7.14,0,0,1-1.47.53,9.15,9.15,0,0,1-2.54.31,8.25,8.25,0,0,1-3.24-.56,5.71,5.71,0,0,1-2.22-1.57,6.44,6.44,0,0,1-1.26-2.39A11.19,11.19,0,0,1,871.71,548.81ZM882,547.66a5.7,5.7,0,0,0-1.07-3.52,3.44,3.44,0,0,0-2.85-1.26,3.79,3.79,0,0,0-1.75.39,4.44,4.44,0,0,0-1.35,1.05,4.91,4.91,0,0,0-.89,1.52,6.22,6.22,0,0,0-.38,1.82Z"/><path class="cls-3" d="M896.13,561.24h-1.82V542.09a17.93,17.93,0,0,1,2.07-.53,16.54,16.54,0,0,1,3.19-.25,7.68,7.68,0,0,1,2.9.52,6.24,6.24,0,0,1,2.24,1.49,7.06,7.06,0,0,1,1.46,2.38,9.25,9.25,0,0,1,.51,3.17,10.15,10.15,0,0,1-.43,3,6.88,6.88,0,0,1-1.27,2.38,5.87,5.87,0,0,1-2.06,1.55,6.65,6.65,0,0,1-2.79.56,6.89,6.89,0,0,1-2.48-.41,6,6,0,0,1-1.52-.77Zm0-7.78a6.85,6.85,0,0,0,.63.42,5.57,5.57,0,0,0,.88.42,6.94,6.94,0,0,0,1.09.32,5.46,5.46,0,0,0,1.23.13,5.08,5.08,0,0,0,2.26-.46,4.09,4.09,0,0,0,1.47-1.26,5.52,5.52,0,0,0,.81-1.88,9.9,9.9,0,0,0,.25-2.28,6.12,6.12,0,0,0-1.43-4.38,4.92,4.92,0,0,0-3.78-1.53,14.13,14.13,0,0,0-2.17.13,8,8,0,0,0-1.24.26Z"/><path class="cls-3" d="M909.76,548.81a9.31,9.31,0,0,1,.55-3.32,7.16,7.16,0,0,1,1.43-2.36,5.65,5.65,0,0,1,2-1.42,6.33,6.33,0,0,1,2.34-.46,5.43,5.43,0,0,1,4.24,1.74q1.59,1.74,1.59,5.35c0,.15,0,.29,0,.44s0,.29,0,.42H911.7a6.36,6.36,0,0,0,1.31,4.09,4.92,4.92,0,0,0,3.92,1.43,7.76,7.76,0,0,0,2.35-.28,10.15,10.15,0,0,0,1.26-.48l.34,1.57a7.14,7.14,0,0,1-1.47.53,9.07,9.07,0,0,1-2.53.31,8.3,8.3,0,0,1-3.25-.56,5.6,5.6,0,0,1-2.21-1.57,6.16,6.16,0,0,1-1.26-2.39A10.8,10.8,0,0,1,909.76,548.81ZM920,547.66a5.76,5.76,0,0,0-1.06-3.52,3.47,3.47,0,0,0-2.86-1.26,3.82,3.82,0,0,0-1.75.39,4.4,4.4,0,0,0-1.34,1.05,4.75,4.75,0,0,0-.9,1.52,6.56,6.56,0,0,0-.38,1.82Z"/><path class="cls-3" d="M930.9,541.31a10.26,10.26,0,0,1,1.7.14,4.53,4.53,0,0,1,1.1.28l-.36,1.57a3.54,3.54,0,0,0-.91-.24,9.82,9.82,0,0,0-1.81-.13,8.71,8.71,0,0,0-1.89.17,5.7,5.7,0,0,0-.94.28v12.68H926v-13.8a12.19,12.19,0,0,1,4.93-1Z"/><path class="cls-3" d="M936.45,542.09c.54-.15,1.24-.31,2.11-.5a16.35,16.35,0,0,1,3.38-.28,4.72,4.72,0,0,1,4,1.59c.09-.07.28-.2.55-.37a7.72,7.72,0,0,1,1-.55,7.58,7.58,0,0,1,1.44-.48,8,8,0,0,1,1.83-.19,6.17,6.17,0,0,1,2.68.49,3.72,3.72,0,0,1,1.58,1.37,5.57,5.57,0,0,1,.76,2.11A17.38,17.38,0,0,1,956,548v8.09h-1.82v-7.5a22.23,22.23,0,0,0-.12-2.48,4.85,4.85,0,0,0-.51-1.73,2.44,2.44,0,0,0-1.07-1,4.16,4.16,0,0,0-1.82-.35,7.15,7.15,0,0,0-1.53.15,7,7,0,0,0-1.19.38,5.17,5.17,0,0,0-.83.45c-.21.15-.37.26-.46.34a8.13,8.13,0,0,1,.38,1.63,14.73,14.73,0,0,1,.13,1.92v8.23h-1.83v-7.5a22.23,22.23,0,0,0-.12-2.48,4.65,4.65,0,0,0-.52-1.73,2.48,2.48,0,0,0-1.11-1,4.32,4.32,0,0,0-1.88-.35,15.49,15.49,0,0,0-2.23.14,6,6,0,0,0-1.16.25v12.71h-1.82Z"/><path class="cls-3" d="M962.85,537.22a1.35,1.35,0,0,1-.39,1,1.33,1.33,0,0,1-1,.38,1.4,1.4,0,1,1,0-2.8,1.33,1.33,0,0,1,1,.38A1.35,1.35,0,0,1,962.85,537.22Zm-.42,18.84h-1.82V541.59h1.82Z"/><path class="cls-3" d="M970.21,554.78a5.76,5.76,0,0,0,2.59-.52,1.81,1.81,0,0,0,1-1.75,2.4,2.4,0,0,0-.19-1,2,2,0,0,0-.6-.76,5.71,5.71,0,0,0-1.1-.64c-.46-.2-1-.45-1.7-.73s-1-.45-1.54-.68a6.53,6.53,0,0,1-1.28-.82,3.23,3.23,0,0,1-1.24-2.67,3.54,3.54,0,0,1,1.33-2.86,5.66,5.66,0,0,1,3.66-1.09,10.37,10.37,0,0,1,2.45.25A7.91,7.91,0,0,1,975,542l-.42,1.63a9.57,9.57,0,0,0-1.13-.45,7.34,7.34,0,0,0-2.34-.28,5.43,5.43,0,0,0-1.16.12,3.19,3.19,0,0,0-1,.4,2,2,0,0,0-.68.67,1.92,1.92,0,0,0-.25,1,2.25,2.25,0,0,0,.22,1,2.2,2.2,0,0,0,.66.74,5.1,5.1,0,0,0,1.07.6c.42.19.9.39,1.44.61s1.1.46,1.61.69a5.77,5.77,0,0,1,1.36.84,3.85,3.85,0,0,1,1,1.17,3.68,3.68,0,0,1,.36,1.72,3.36,3.36,0,0,1-1.47,3,7,7,0,0,1-4,1,10.29,10.29,0,0,1-2.91-.32,12.48,12.48,0,0,1-1.34-.49l.47-1.65.37.18c.19.08.44.18.75.28a8.12,8.12,0,0,0,1.14.26A8.6,8.6,0,0,0,970.21,554.78Z"/><path class="cls-3" d="M982.2,554.78a5.79,5.79,0,0,0,2.59-.52,1.81,1.81,0,0,0,1-1.75,2.57,2.57,0,0,0-.18-1,2,2,0,0,0-.6-.76,5.53,5.53,0,0,0-1.11-.64l-1.69-.73c-.55-.22-1.06-.45-1.54-.68a6.33,6.33,0,0,1-1.29-.82,3.19,3.19,0,0,1-1.23-2.67,3.51,3.51,0,0,1,1.33-2.86,5.61,5.61,0,0,1,3.65-1.09,10.31,10.31,0,0,1,2.45.25A8.1,8.1,0,0,1,987,542l-.42,1.63a9.91,9.91,0,0,0-1.14-.45,7.31,7.31,0,0,0-2.33-.28,5.52,5.52,0,0,0-1.17.12,3.19,3.19,0,0,0-1,.4,2,2,0,0,0-.67.67,1.83,1.83,0,0,0-.26,1,2.12,2.12,0,0,0,.23,1,2.2,2.2,0,0,0,.66.74,5,5,0,0,0,1.06.6c.42.19.9.39,1.44.61s1.1.46,1.61.69a5.58,5.58,0,0,1,1.36.84,3.85,3.85,0,0,1,1,1.17,3.68,3.68,0,0,1,.37,1.72,3.36,3.36,0,0,1-1.47,3,7,7,0,0,1-4,1,10.24,10.24,0,0,1-2.91-.32,12.93,12.93,0,0,1-1.35-.49l.48-1.65.36.18c.19.08.44.18.76.28a8,8,0,0,0,1.13.26A8.64,8.64,0,0,0,982.2,554.78Z"/><path class="cls-3" d="M993.45,537.22a1.35,1.35,0,0,1-.39,1,1.38,1.38,0,0,1-1.9,0,1.53,1.53,0,0,1,0-2,1.38,1.38,0,0,1,1.9,0A1.35,1.35,0,0,1,993.45,537.22ZM993,556.06h-1.82V541.59H993Z"/><path class="cls-3" d="M1010.2,548.84a9.31,9.31,0,0,1-.49,3.11,7.21,7.21,0,0,1-1.37,2.38,6.43,6.43,0,0,1-9.5,0,7.21,7.21,0,0,1-1.37-2.38,10.11,10.11,0,0,1,0-6.22,7.26,7.26,0,0,1,1.37-2.39,6.21,6.21,0,0,1,2.09-1.54,6.71,6.71,0,0,1,5.32,0,6.21,6.21,0,0,1,2.09,1.54,7.26,7.26,0,0,1,1.37,2.39A9.31,9.31,0,0,1,1010.2,548.84Zm-1.93,0a6.86,6.86,0,0,0-1.26-4.33,4.44,4.44,0,0,0-6.84,0,6.86,6.86,0,0,0-1.26,4.33,6.76,6.76,0,0,0,1.26,4.31,4.46,4.46,0,0,0,6.84,0A6.76,6.76,0,0,0,1008.27,548.84Z"/><path class="cls-3" d="M1014.15,542.09c.54-.15,1.26-.31,2.18-.5a16.81,16.81,0,0,1,3.36-.28,7.16,7.16,0,0,1,2.76.47,4.29,4.29,0,0,1,1.76,1.36,5.56,5.56,0,0,1,.94,2.12,12,12,0,0,1,.28,2.71v8.09h-1.82v-7.5a13.64,13.64,0,0,0-.21-2.6,4.32,4.32,0,0,0-.7-1.74,2.77,2.77,0,0,0-1.29-1,6,6,0,0,0-2-.29,15.9,15.9,0,0,0-2.23.14,7.25,7.25,0,0,0-1.22.25v12.71h-1.81Z"/><path class="cls-3" d="M1038.17,541.59h5.77v1.54h-5.77v7.7a7.79,7.79,0,0,0,.21,2,2.83,2.83,0,0,0,.6,1.19,1.89,1.89,0,0,0,1,.56,5.35,5.35,0,0,0,1.24.14,5.18,5.18,0,0,0,1.84-.27,6.92,6.92,0,0,0,1.09-.49l.45,1.52a7.44,7.44,0,0,1-3.5.89,6.18,6.18,0,0,1-2.25-.35,3.3,3.3,0,0,1-1.46-1.06,4.46,4.46,0,0,1-.77-1.78,12.36,12.36,0,0,1-.22-2.52V537.33l1.82-.33Z"/><path class="cls-3" d="M1059.64,548.84a9.31,9.31,0,0,1-.49,3.11,6.88,6.88,0,0,1-1.37,2.38,6.42,6.42,0,0,1-9.49,0,7,7,0,0,1-1.37-2.38,10.11,10.11,0,0,1,0-6.22,7.09,7.09,0,0,1,1.37-2.39,6.11,6.11,0,0,1,2.09-1.54,6.71,6.71,0,0,1,5.32,0,6.17,6.17,0,0,1,2.08,1.54,6.93,6.93,0,0,1,1.37,2.39A9.31,9.31,0,0,1,1059.64,548.84Zm-1.93,0a6.86,6.86,0,0,0-1.26-4.33,4.43,4.43,0,0,0-6.83,0,6.86,6.86,0,0,0-1.26,4.33,6.76,6.76,0,0,0,1.26,4.31,4.44,4.44,0,0,0,6.83,0A6.76,6.76,0,0,0,1057.71,548.84Z"/><path class="cls-3" d="M1074.37,541.25a6.41,6.41,0,0,1,2.42.41,4.05,4.05,0,0,1,1.61,1.12,4.43,4.43,0,0,1,.9,1.69,7.62,7.62,0,0,1,.28,2.13v9.13l-.81.18-1.23.21c-.47.07-1,.14-1.56.18s-1.15.07-1.75.07a8.25,8.25,0,0,1-2.11-.25,4.52,4.52,0,0,1-1.68-.8,3.68,3.68,0,0,1-1.12-1.4,4.82,4.82,0,0,1-.41-2.08,4.22,4.22,0,0,1,.45-2,3.9,3.9,0,0,1,1.26-1.39,5.6,5.6,0,0,1,1.93-.79,11,11,0,0,1,2.44-.26,8,8,0,0,1,.82,0,7.4,7.4,0,0,1,.84.11,6.62,6.62,0,0,1,.7.14,2.15,2.15,0,0,1,.41.12v-.89a10,10,0,0,0-.11-1.47,3.3,3.3,0,0,0-.49-1.29,2.69,2.69,0,0,0-1.07-.92,3.84,3.84,0,0,0-1.8-.35,9.29,9.29,0,0,0-2.38.22c-.52.15-.91.27-1.15.36l-.25-1.59a6.77,6.77,0,0,1,1.47-.42A12.56,12.56,0,0,1,1074.37,541.25Zm.17,13.5c.71,0,1.33,0,1.86-.07s1-.11,1.36-.18v-5.1a5.79,5.79,0,0,0-1-.29,8.16,8.16,0,0,0-1.85-.16,11.53,11.53,0,0,0-1.4.1,4.28,4.28,0,0,0-1.34.42,2.77,2.77,0,0,0-1,.88,2.57,2.57,0,0,0-.39,1.49,3.31,3.31,0,0,0,.26,1.37,2.2,2.2,0,0,0,.76.89,3.23,3.23,0,0,0,1.18.49A6.59,6.59,0,0,0,1074.54,554.75Z"/><path class="cls-3" d="M1090.22,556.37a7.83,7.83,0,0,1-3-.53,5.46,5.46,0,0,1-2.14-1.53,6.75,6.75,0,0,1-1.3-2.38,10.69,10.69,0,0,1,0-6.17,7,7,0,0,1,1.33-2.41,5.87,5.87,0,0,1,2.1-1.55,6.68,6.68,0,0,1,2.77-.55,11.68,11.68,0,0,1,2.2.2,5.65,5.65,0,0,1,1.58.5l-.47,1.57a5.49,5.49,0,0,0-1.26-.45,8.48,8.48,0,0,0-1.88-.17,4.4,4.4,0,0,0-3.65,1.56,6.87,6.87,0,0,0-1.25,4.41,9.61,9.61,0,0,0,.28,2.36,4.79,4.79,0,0,0,.91,1.85,4.18,4.18,0,0,0,1.63,1.21,6,6,0,0,0,2.42.43,6.2,6.2,0,0,0,2-.27,7.24,7.24,0,0,0,1.16-.46l.4,1.57a6.91,6.91,0,0,1-1.59.55A9.7,9.7,0,0,1,1090.22,556.37Z"/><path class="cls-3" d="M1103.1,556.37a7.83,7.83,0,0,1-3-.53,5.46,5.46,0,0,1-2.14-1.53,6.75,6.75,0,0,1-1.3-2.38,10.69,10.69,0,0,1,0-6.17,7,7,0,0,1,1.33-2.41,5.87,5.87,0,0,1,2.1-1.55,6.68,6.68,0,0,1,2.77-.55,11.68,11.68,0,0,1,2.2.2,5.65,5.65,0,0,1,1.58.5l-.47,1.57a5.66,5.66,0,0,0-1.26-.45,8.48,8.48,0,0,0-1.88-.17,4.4,4.4,0,0,0-3.65,1.56,6.87,6.87,0,0,0-1.25,4.41,9.61,9.61,0,0,0,.28,2.36,4.79,4.79,0,0,0,.91,1.85,4.18,4.18,0,0,0,1.63,1.21,6,6,0,0,0,2.42.43,6.2,6.2,0,0,0,2-.27,7.24,7.24,0,0,0,1.16-.46l.4,1.57a6.91,6.91,0,0,1-1.59.55A9.7,9.7,0,0,1,1103.1,556.37Z"/><path class="cls-3" d="M1109.12,548.81a9.1,9.1,0,0,1,.55-3.32,7.31,7.31,0,0,1,1.42-2.36,5.59,5.59,0,0,1,2-1.42,6.33,6.33,0,0,1,2.34-.46,5.45,5.45,0,0,1,4.24,1.74q1.57,1.74,1.58,5.35c0,.15,0,.29,0,.44s0,.29,0,.42h-10.17a6.42,6.42,0,0,0,1.32,4.09,4.92,4.92,0,0,0,3.92,1.43,7.8,7.8,0,0,0,2.35-.28,10.15,10.15,0,0,0,1.26-.48l.34,1.57a7.64,7.64,0,0,1-1.47.53,9.15,9.15,0,0,1-2.54.31,8.33,8.33,0,0,1-3.25-.56,5.75,5.75,0,0,1-2.21-1.57,6.16,6.16,0,0,1-1.26-2.39A11.19,11.19,0,0,1,1109.12,548.81Zm10.28-1.15a5.76,5.76,0,0,0-1.07-3.52,3.44,3.44,0,0,0-2.85-1.26,3.79,3.79,0,0,0-1.75.39,4.32,4.32,0,0,0-1.35,1.05,4.91,4.91,0,0,0-.89,1.52,6.22,6.22,0,0,0-.38,1.82Z"/><path class="cls-3" d="M1128.3,554.78a5.79,5.79,0,0,0,2.59-.52,1.81,1.81,0,0,0,1-1.75,2.57,2.57,0,0,0-.18-1,2,2,0,0,0-.6-.76,5.53,5.53,0,0,0-1.11-.64l-1.69-.73c-.54-.22-1.06-.45-1.54-.68a6.33,6.33,0,0,1-1.29-.82,3.57,3.57,0,0,1-.9-1.1,3.41,3.41,0,0,1-.33-1.57,3.51,3.51,0,0,1,1.33-2.86,5.61,5.61,0,0,1,3.65-1.09,10.31,10.31,0,0,1,2.45.25,7.78,7.78,0,0,1,1.36.45l-.42,1.63a9.57,9.57,0,0,0-1.13-.45,7.43,7.43,0,0,0-2.34-.28,5.36,5.36,0,0,0-1.16.12,3.14,3.14,0,0,0-1,.4,2,2,0,0,0-.67.67,1.83,1.83,0,0,0-.25,1,2.12,2.12,0,0,0,.22,1,2.2,2.2,0,0,0,.66.74,5,5,0,0,0,1.06.6c.42.19.9.39,1.44.61s1.1.46,1.61.69a5.58,5.58,0,0,1,1.36.84,3.85,3.85,0,0,1,1,1.17,3.56,3.56,0,0,1,.37,1.72,3.36,3.36,0,0,1-1.47,3,7,7,0,0,1-4,1,10.24,10.24,0,0,1-2.91-.32,13.91,13.91,0,0,1-1.35-.49l.48-1.65.36.18c.19.08.44.18.76.28a8,8,0,0,0,1.13.26A8.64,8.64,0,0,0,1128.3,554.78Z"/><path class="cls-3" d="M1140.28,554.78a5.76,5.76,0,0,0,2.59-.52,1.82,1.82,0,0,0,1-1.75,2.56,2.56,0,0,0-.19-1,2,2,0,0,0-.6-.76,5.53,5.53,0,0,0-1.11-.64l-1.69-.73c-.54-.22-1-.45-1.54-.68a6.93,6.93,0,0,1-1.29-.82,3.4,3.4,0,0,1-.89-1.1,3.28,3.28,0,0,1-.34-1.57,3.51,3.51,0,0,1,1.33-2.86,5.66,5.66,0,0,1,3.66-1.09,10.43,10.43,0,0,1,2.45.25,7.91,7.91,0,0,1,1.35.45l-.42,1.63a9.57,9.57,0,0,0-1.13-.45,7.34,7.34,0,0,0-2.34-.28,5.36,5.36,0,0,0-1.16.12,3.25,3.25,0,0,0-1,.4,2,2,0,0,0-.67.67,1.83,1.83,0,0,0-.25,1,2.12,2.12,0,0,0,.22,1,2.2,2.2,0,0,0,.66.74,5.27,5.27,0,0,0,1.06.6c.42.19.91.39,1.45.61l1.61.69a6,6,0,0,1,1.36.84,4,4,0,0,1,1,1.17,3.68,3.68,0,0,1,.36,1.72,3.36,3.36,0,0,1-1.47,3,7,7,0,0,1-4,1,10.24,10.24,0,0,1-2.91-.32,12.48,12.48,0,0,1-1.34-.49l.47-1.65.37.18a7.88,7.88,0,0,0,.75.28,8.12,8.12,0,0,0,1.14.26A8.52,8.52,0,0,0,1140.28,554.78Z"/><path class="cls-3" d="M1157.39,541.59h5.77v1.54h-5.77v7.7a7.79,7.79,0,0,0,.21,2,2.83,2.83,0,0,0,.6,1.19,1.88,1.88,0,0,0,1,.56,5.2,5.2,0,0,0,1.23.14,5.28,5.28,0,0,0,1.85-.27,7.37,7.37,0,0,0,1.09-.49l.45,1.52a7,7,0,0,1-1.38.57,6.88,6.88,0,0,1-2.12.32A6.2,6.2,0,0,1,1158,556a3.27,3.27,0,0,1-1.45-1.06,4.33,4.33,0,0,1-.78-1.78,13.12,13.12,0,0,1-.22-2.52V537.33l1.82-.33Z"/><path class="cls-3" d="M1166.52,556.06V534.67l1.82-.33V542a10.75,10.75,0,0,1,1.82-.52,9.59,9.59,0,0,1,1.85-.18,7.34,7.34,0,0,1,2.8.47,4.39,4.39,0,0,1,1.79,1.36,5.27,5.27,0,0,1,.94,2.12,13.33,13.33,0,0,1,.26,2.71v8.09H1176v-7.5a13.64,13.64,0,0,0-.21-2.6,4.32,4.32,0,0,0-.7-1.74,2.7,2.7,0,0,0-1.3-1,6.21,6.21,0,0,0-2-.29,7.73,7.73,0,0,0-1,.08c-.36.06-.7.12-1,.19a7,7,0,0,0-.85.21,4.61,4.61,0,0,0-.49.16v12.46Z"/><path class="cls-3" d="M1184.69,537.22a1.35,1.35,0,0,1-.39,1,1.33,1.33,0,0,1-1,.38,1.4,1.4,0,1,1,0-2.8,1.33,1.33,0,0,1,1,.38A1.35,1.35,0,0,1,1184.69,537.22Zm-.42,18.84h-1.82V541.59h1.82Z"/><path class="cls-3" d="M1192.05,554.78a5.76,5.76,0,0,0,2.59-.52,1.81,1.81,0,0,0,1-1.75,2.4,2.4,0,0,0-.19-1,2,2,0,0,0-.6-.76,5.71,5.71,0,0,0-1.1-.64l-1.7-.73c-.54-.22-1-.45-1.54-.68a6.93,6.93,0,0,1-1.29-.82,3.4,3.4,0,0,1-.89-1.1,3.28,3.28,0,0,1-.34-1.57,3.54,3.54,0,0,1,1.33-2.86,5.66,5.66,0,0,1,3.66-1.09,10.37,10.37,0,0,1,2.45.25,7.91,7.91,0,0,1,1.35.45l-.42,1.63a9.57,9.57,0,0,0-1.13-.45,7.34,7.34,0,0,0-2.34-.28,5.43,5.43,0,0,0-1.16.12,3.36,3.36,0,0,0-1,.4,2,2,0,0,0-.67.67,1.92,1.92,0,0,0-.25,1,2.25,2.25,0,0,0,.22,1,2.2,2.2,0,0,0,.66.74,5.1,5.1,0,0,0,1.07.6c.42.19.9.39,1.44.61s1.1.46,1.61.69a6,6,0,0,1,1.36.84,3.85,3.85,0,0,1,1,1.17,3.68,3.68,0,0,1,.36,1.72,3.36,3.36,0,0,1-1.47,3,7,7,0,0,1-4,1,10.29,10.29,0,0,1-2.91-.32,12.48,12.48,0,0,1-1.34-.49l.47-1.65.37.18c.19.08.44.18.75.28a8.12,8.12,0,0,0,1.14.26A8.6,8.6,0,0,0,1192.05,554.78Z"/><path class="cls-3" d="M1210.42,554.78a5.76,5.76,0,0,0,2.59-.52,1.81,1.81,0,0,0,1-1.75,2.57,2.57,0,0,0-.18-1,2,2,0,0,0-.6-.76,5.53,5.53,0,0,0-1.11-.64l-1.69-.73c-.54-.22-1-.45-1.54-.68a6.61,6.61,0,0,1-1.29-.82,3.4,3.4,0,0,1-.89-1.1,3.28,3.28,0,0,1-.34-1.57,3.51,3.51,0,0,1,1.33-2.86,5.63,5.63,0,0,1,3.65-1.09,10.31,10.31,0,0,1,2.45.25,7.78,7.78,0,0,1,1.36.45l-.42,1.63a9.57,9.57,0,0,0-1.13-.45,7.34,7.34,0,0,0-2.34-.28,5.36,5.36,0,0,0-1.16.12,3.14,3.14,0,0,0-1,.4,2,2,0,0,0-.67.67,1.83,1.83,0,0,0-.25,1,2.12,2.12,0,0,0,.22,1,2.2,2.2,0,0,0,.66.74,5,5,0,0,0,1.06.6c.42.19.9.39,1.45.61l1.61.69a5.71,5.71,0,0,1,1.35.84,3.89,3.89,0,0,1,1,1.17,3.68,3.68,0,0,1,.36,1.72,3.36,3.36,0,0,1-1.47,3,7,7,0,0,1-4,1,10.24,10.24,0,0,1-2.91-.32,12.48,12.48,0,0,1-1.34-.49l.47-1.65.37.18a7,7,0,0,0,.75.28,8.12,8.12,0,0,0,1.14.26A8.44,8.44,0,0,0,1210.42,554.78Z"/><path class="cls-3" d="M1221.68,537.22a1.32,1.32,0,0,1-1.35,1.4,1.33,1.33,0,0,1-.95-.38,1.53,1.53,0,0,1,0-2,1.33,1.33,0,0,1,.95-.38,1.32,1.32,0,0,1,1.35,1.4Zm-.42,18.84h-1.82V541.59h1.82Z"/><path class="cls-3" d="M1227.78,541.59h5.77v1.54h-5.77v7.7a7.79,7.79,0,0,0,.21,2,2.83,2.83,0,0,0,.6,1.19,1.92,1.92,0,0,0,1,.56,5.2,5.2,0,0,0,1.23.14,5.28,5.28,0,0,0,1.85-.27,7.37,7.37,0,0,0,1.09-.49l.45,1.52a7,7,0,0,1-1.38.57,6.88,6.88,0,0,1-2.12.32,6.2,6.2,0,0,1-2.26-.35A3.27,3.27,0,0,1,1227,555a4.19,4.19,0,0,1-.77-1.78,12.3,12.3,0,0,1-.23-2.52V537.33l1.82-.33Z"/><path class="cls-3" d="M1236,548.81a9.1,9.1,0,0,1,.55-3.32,7.16,7.16,0,0,1,1.43-2.36,5.56,5.56,0,0,1,2-1.42,6.33,6.33,0,0,1,2.34-.46,5.45,5.45,0,0,1,4.24,1.74c1.06,1.16,1.58,2.94,1.58,5.35,0,.15,0,.29,0,.44s0,.29,0,.42H1238a6.42,6.42,0,0,0,1.32,4.09,4.92,4.92,0,0,0,3.92,1.43,7.8,7.8,0,0,0,2.35-.28,10.15,10.15,0,0,0,1.26-.48l.34,1.57a7.14,7.14,0,0,1-1.47.53,9.15,9.15,0,0,1-2.54.31,8.25,8.25,0,0,1-3.24-.56,5.71,5.71,0,0,1-2.22-1.57,6.44,6.44,0,0,1-1.26-2.39A11.19,11.19,0,0,1,1236,548.81Zm10.28-1.15a5.7,5.7,0,0,0-1.07-3.52,3.44,3.44,0,0,0-2.85-1.26,3.79,3.79,0,0,0-1.75.39,4.44,4.44,0,0,0-1.35,1.05,4.91,4.91,0,0,0-.89,1.52,6.22,6.22,0,0,0-.38,1.82Z"/><path class="cls-3" d="M780.33,313.25V384h12.58v20.74H780.33v26.35H755.51V404.71H704.68V386.18q3.74-7.47,9.35-16.91t12.49-19.38q6.88-9.94,14.54-19.47a213.67,213.67,0,0,1,15.3-17.17Zm-24.82,30.94q-6.63,8.67-14.11,18.87A129.34,129.34,0,0,0,728.82,384h26.69Z"/><path class="cls-3" d="M888.62,371.9q0,29.76-11.31,45.65t-31.19,15.89q-19.89,0-31.2-15.89t-11.3-45.65a104.21,104.21,0,0,1,3-26.18,57.67,57.67,0,0,1,8.59-19.21,38.24,38.24,0,0,1,13.43-11.9,37.27,37.27,0,0,1,17.51-4.08q19.89,0,31.19,15.9T888.62,371.9Zm-25.84,0a139.8,139.8,0,0,0-.85-16.06,58.51,58.51,0,0,0-2.72-12.5,19.5,19.5,0,0,0-5.1-8.16,11.59,11.59,0,0,0-8-2.89,11.27,11.27,0,0,0-7.91,2.89,20.55,20.55,0,0,0-5.1,8.16,54.32,54.32,0,0,0-2.8,12.5,137.57,137.57,0,0,0-.85,16.06,139.68,139.68,0,0,0,.85,16.15,54.22,54.22,0,0,0,2.8,12.58,20.4,20.4,0,0,0,5.1,8.16,11.23,11.23,0,0,0,7.91,2.89,11.55,11.55,0,0,0,8-2.89,19.37,19.37,0,0,0,5.1-8.16,58.36,58.36,0,0,0,2.72-12.58A142,142,0,0,0,862.78,371.9Z"/><path class="cls-3" d="M933.16,433.61a83,83,0,0,1-9.69-.59q-5.1-.6-9.86-1.62c-3.18-.68-6.07-1.41-8.67-2.21a49,49,0,0,1-6.12-2.21l4.93-21.08q4.41,1.88,11.3,4A58.66,58.66,0,0,0,932.14,412q11.73,0,17.17-4.42A15.91,15.91,0,0,0,952.79,388a14.9,14.9,0,0,0-5.35-5.1,23.89,23.89,0,0,0-8.08-2.72,61.57,61.57,0,0,0-9.94-.77h-9.86V359h11.22a37.07,37.07,0,0,0,7.22-.68,19.24,19.24,0,0,0,6.21-2.29,12.08,12.08,0,0,0,4.33-4.42,13.94,13.94,0,0,0,1.62-7.06,11.2,11.2,0,0,0-1.36-5.61,12.29,12.29,0,0,0-3.49-3.91,15.22,15.22,0,0,0-4.93-2.29,21.56,21.56,0,0,0-5.69-.77,40.11,40.11,0,0,0-13.52,2.21,56.84,56.84,0,0,0-11.3,5.44l-9-18.53q2.71-1.69,6.37-3.57a64,64,0,0,1,8.08-3.4,73.57,73.57,0,0,1,9.43-2.55,53.26,53.26,0,0,1,10.63-1A58.18,58.18,0,0,1,953.3,313a33.77,33.77,0,0,1,12.5,7,28.14,28.14,0,0,1,7.31,10.52,35.63,35.63,0,0,1,2.38,13.15,26,26,0,0,1-3.91,13.5A25.76,25.76,0,0,1,961,367.06a30.51,30.51,0,0,1,14.19,11.15q5,7.41,5,17.79a40.78,40.78,0,0,1-2.72,15.06A30.48,30.48,0,0,1,969,423a41.08,41.08,0,0,1-14.71,7.83A70.91,70.91,0,0,1,933.16,433.61Z"/></g><g class="cls-4"><path class="cls-3" d="M726.43,213.62a7.14,7.14,0,0,0-6.23-12.85L705,208c-.08,1.05-.16,2.1-.16,3.16a31.63,31.63,0,0,0,2.26,11.72l19.33-9.3h0"/></g><g class="cls-4"><path class="cls-3" d="M737.1,219.2a7.14,7.14,0,0,0-9.54-3.31h0l-19.41,9.37a31.54,31.54,0,0,0,9.62,11.24l16-7.76a7.14,7.14,0,0,0,3.32-9.54"/></g><g class="cls-4"><path class="cls-5" d="M732,202.87a4,4,0,0,1,.4,1,7.14,7.14,0,0,0,8.65,1.86h0l21.67-10.51a32.38,32.38,0,0,0-10.67-10.76l-17.22,8.41a7.13,7.13,0,0,0-3.72,8.49,9.63,9.63,0,0,1,.89,1.46"/></g><g class="cls-4"><path class="cls-5" d="M742.19,208a7.23,7.23,0,0,0-3.72,8.49c.33.49.65,1,1,1.54a3.77,3.77,0,0,1,.41,1.05A7.14,7.14,0,0,0,748.5,221l18.76-9.14v-.64A30.08,30.08,0,0,0,764,197.45L742.19,208h0"/></g><g class="cls-4"><path class="cls-3" d="M762.81,195.27l-21.75,10.51h0a7.29,7.29,0,0,1-8.65-1.86,9.79,9.79,0,0,1,.4,1.45,8.85,8.85,0,0,1,.17,2.11,10,10,0,0,1-1.7,5.17,9.52,9.52,0,0,1,4.61,1.54,17.86,17.86,0,0,1,1.45,1.13,8.16,8.16,0,0,1,1.13,1.29,7.27,7.27,0,0,1,3.72-8.49h0L764,197.53c-.4-.81-.8-1.54-1.21-2.26"/></g><g class="cls-4"><path class="cls-3" d="M751.17,184c-.65-.33-1.21-.65-1.86-1a30.73,30.73,0,0,0-13.34-3,31.29,31.29,0,0,0-30.57,25l13.67-6.63a9.69,9.69,0,0,1,9.62.65,12.82,12.82,0,0,1,1.37,1.05,14.34,14.34,0,0,1,1.06,1.21,7.26,7.26,0,0,1,3.72-8.49l17.22-8.33a9,9,0,0,0-.89-.48"/></g><g class="cls-4"><path class="cls-3" d="M767.18,211.84,748.42,221a7.25,7.25,0,0,1-8.65-1.86,13.72,13.72,0,0,1,.48,2.34v.89c.08.08.16.17.25.17h0a8.76,8.76,0,0,0,8.89.72l17.46-8.49c.09-.56.09-1.05.17-1.61V213a2.57,2.57,0,0,0,.16-1.13"/></g><g class="cls-4"><path class="cls-5" d="M738.47,216.53a6.14,6.14,0,0,0,.41,1.13,7.25,7.25,0,0,0,1,1.46,7.71,7.71,0,0,0-.41-1.05c-.32-.57-.64-1-1-1.54"/></g><g class="cls-4"><path class="cls-5" d="M732.41,203.92c-.16-.32-.24-.65-.4-1a6.27,6.27,0,0,0-1-1.54,7,7,0,0,0,.41,1.13,11.55,11.55,0,0,0,1,1.46"/></g><g class="cls-4"><path class="cls-5" d="M740.33,222.35V222l-.4-.65-.89-.24-.08.16a9.55,9.55,0,0,1,1.37,1"/></g><g class="cls-4"><path class="cls-5" d="M749.55,223.24a9,9,0,0,1-9.22-.89,8.16,8.16,0,0,1-1.29-1.13v-.16l.89.24.32.08a11.17,11.17,0,0,0-.48-2.34,10.56,10.56,0,0,1-1-1.46,4.56,4.56,0,0,1-.41-1.13,8.16,8.16,0,0,0-1.13-1.29,15.87,15.87,0,0,0-1.45-1.13,10.43,10.43,0,0,0-4.61-1.54,9.88,9.88,0,0,0,1.69-5.18,9.34,9.34,0,0,0-.16-2.1,9.79,9.79,0,0,0-.4-1.45,11.55,11.55,0,0,1-1-1.46,6.42,6.42,0,0,1-.41-1.13A12.59,12.59,0,0,0,729.9,200a13.22,13.22,0,0,0-1.29-1.05,9.5,9.5,0,0,0-9.62-.65l-13.59,6.79c-.16,1-.32,2-.48,3.07l15.2-7.35a7.14,7.14,0,0,1,9.54,3.31,7.26,7.26,0,0,1-3.31,9.62h0L707.1,223a18.75,18.75,0,0,0,1,2.26l19.33-9.37h0a7.14,7.14,0,1,1,6.22,12.85l-16,7.76c.41.25.73.57,1.14.81a6.87,6.87,0,0,0,1.37.81A30.72,30.72,0,0,0,736,242.41a31.24,31.24,0,0,0,31-27.66Z"/></g><g class="cls-4"><path class="cls-5" d="M740.33,222v-.57l-.32-.08Z"/></g><g class="cls-4"><path class="cls-3" d="M736,176.51a34.69,34.69,0,1,0,34.68,34.69A34.68,34.68,0,0,0,736,176.51m0,67.92a33.12,33.12,0,1,1,23.45-9.7,33.13,33.13,0,0,1-23.45,9.7"/></g><g class="cls-4"><path class="cls-3" d="M814.24,183.38c-.33-.08-.65-.16-1.14-.24a19.73,19.73,0,0,0-3.55,0,8.36,8.36,0,0,0-1.13.24.77.77,0,0,0-.57.41,1.14,1.14,0,0,0-.16.48v35.25a1.13,1.13,0,0,0,.16.49c.08.16.32.24.57.32s.64.16,1.13.25a19.73,19.73,0,0,0,3.55,0,3.74,3.74,0,0,0,1.14-.25,1.2,1.2,0,0,0,.64-.32,1.15,1.15,0,0,0,.17-.49V184.27a1.16,1.16,0,0,0-.17-.48,2,2,0,0,0-.64-.41m31.21,10.92c-.33-.08-.65-.17-1.13-.25a11.64,11.64,0,0,0-1.78-.08,11.5,11.5,0,0,0-1.78.08,8.07,8.07,0,0,0-1.13.25,1.12,1.12,0,0,0-.57.32c-.08.16-.16.24-.16.4-.16-.08-.24-.08-.41-.16a19.85,19.85,0,0,0-6.14-.89,18.64,18.64,0,0,0-6.31,1,12.46,12.46,0,0,0-4.53,2.83,11,11,0,0,0-2.66,4.37,17.45,17.45,0,0,0-.89,5.58,17.93,17.93,0,0,0,.8,5.66,10.72,10.72,0,0,0,2.51,4.12,11,11,0,0,0,4.29,2.59,19.55,19.55,0,0,0,6.14.89,19.2,19.2,0,0,0,6.39-1,8.57,8.57,0,0,0,.81-.32.61.61,0,0,0,.16.32c.08.16.32.24.57.32s.64.16,1.13.25a11.5,11.5,0,0,0,1.78.08,11.64,11.64,0,0,0,1.78-.08,3.66,3.66,0,0,0,1.13-.25c.32-.08.48-.16.56-.32a1.15,1.15,0,0,0,.17-.49V195.19a1.15,1.15,0,0,0-.17-.49c-.08-.16-.32-.24-.56-.4M838,211a6.13,6.13,0,0,1-1.21,2.51,5.7,5.7,0,0,1-2,1.62,6.46,6.46,0,0,1-2.91.56,8.42,8.42,0,0,1-3.07-.56,5,5,0,0,1-1.94-1.7,8.38,8.38,0,0,1-1.05-2.59,13.83,13.83,0,0,1-.32-3.23,14.1,14.1,0,0,1,.4-3.4,7,7,0,0,1,1.21-2.59,5.72,5.72,0,0,1,2-1.61,6.4,6.4,0,0,1,2.92-.57,6.84,6.84,0,0,1,3.07.65,4.92,4.92,0,0,1,1.94,1.7,8.22,8.22,0,0,1,1.05,2.58,13.91,13.91,0,0,1,.32,3.24A14.08,14.08,0,0,1,838,211M873,198a8.5,8.5,0,0,0-3.32-2.83,10.29,10.29,0,0,0-4.93-1.06,20,20,0,0,0-2.26.17,19.73,19.73,0,0,0-2.1.56,13.09,13.09,0,0,0-2,1,17.75,17.75,0,0,0-2,1.54V184.27a1.14,1.14,0,0,0-.16-.48,2,2,0,0,0-.65-.41c-.32-.08-.64-.16-1.13-.24a11.5,11.5,0,0,0-1.78-.08,11.64,11.64,0,0,0-1.78.08,9.12,9.12,0,0,0-1.13.24.77.77,0,0,0-.56.41,1.14,1.14,0,0,0-.16.48v35.25a1.13,1.13,0,0,0,.16.49.73.73,0,0,0,.48.32,3.05,3.05,0,0,0,1,.16c.41,0,.89.09,1.54.09a7.86,7.86,0,0,0,1.53-.09,3.12,3.12,0,0,0,1-.16,1.29,1.29,0,0,0,.56-.32,1.13,1.13,0,0,0,.16-.49v-2.58a15.29,15.29,0,0,0,2.11,1.86,11.07,11.07,0,0,0,2.1,1.29,11.64,11.64,0,0,0,2.18.73,12.73,12.73,0,0,0,2.51.24,11.14,11.14,0,0,0,4.77-1,9.94,9.94,0,0,0,3.56-2.75A12.37,12.37,0,0,0,874.8,213a21,21,0,0,0,.81-5.74,19.57,19.57,0,0,0-.57-5,16.58,16.58,0,0,0-2-4.2m-5.58,12.45a6.2,6.2,0,0,1-1,2.42,5,5,0,0,1-1.7,1.78,3.84,3.84,0,0,1-2.42.65,5.24,5.24,0,0,1-3-1,15.08,15.08,0,0,1-3-2.75v-7.92a12.2,12.2,0,0,1,1.7-1.78,16.94,16.94,0,0,1,1.54-1.22,5.74,5.74,0,0,1,1.45-.64,4.55,4.55,0,0,1,1.46-.16,4.86,4.86,0,0,1,2.51.64,5,5,0,0,1,1.61,1.78,7.53,7.53,0,0,1,.89,2.51,17.85,17.85,0,0,1,.24,2.91,10.76,10.76,0,0,1-.32,2.75m27.65-10.11a3,3,0,0,0,.17-1c0-.4.08-1,.08-1.62v-1.53c0-.41-.08-.65-.08-.81a1.25,1.25,0,0,0-.17-.49c-.08-.08-.16-.24-.24-.32a1.3,1.3,0,0,0-.48-.24l-.81-.25c-.33-.08-.65-.08-.89-.16h-.81a10.1,10.1,0,0,0-1.62.16,8.54,8.54,0,0,0-1.7.73,12,12,0,0,0-1.77,1.38,13,13,0,0,0-1.95,2.18v-3a1.22,1.22,0,0,0-.16-.49.73.73,0,0,0-.48-.32,8.55,8.55,0,0,0-1-.24,9,9,0,0,0-1.54-.08,8.31,8.31,0,0,0-1.53.08,2.8,2.8,0,0,0-1,.24,1.27,1.27,0,0,0-.57.32,1.22,1.22,0,0,0-.16.49v23.93a1.18,1.18,0,0,0,.16.49c.08.16.32.24.65.32s.64.16,1.13.24a11.5,11.5,0,0,0,1.78.08,11.64,11.64,0,0,0,1.78-.08,3.43,3.43,0,0,0,1.13-.24c.24-.08.48-.16.56-.32a1.2,1.2,0,0,0,.17-.49V204.65c.56-.81,1.05-1.46,1.53-2a9.8,9.8,0,0,1,1.38-1.29,5.63,5.63,0,0,1,1.29-.73,3.26,3.26,0,0,1,1.21-.24,3.94,3.94,0,0,1,1,.08,3.7,3.7,0,0,0,.81.16,5.6,5.6,0,0,1,.65.25,1.36,1.36,0,0,0,.56.08,1.13,1.13,0,0,0,.49-.16c.16,0,.32-.17.4-.41m27.33-5.17a1.13,1.13,0,0,0-.16-.49c-.08-.16-.32-.24-.64-.32s-.65-.16-1.14-.25a19.73,19.73,0,0,0-3.55,0,10.66,10.66,0,0,0-1.14.25,1.12,1.12,0,0,0-.56.32c-.08.08-.08.16-.16.24a19.38,19.38,0,0,0-6.07-.89,18.68,18.68,0,0,0-6.31,1,12.42,12.42,0,0,0-4.52,2.83,10.9,10.9,0,0,0-2.67,4.37,17.45,17.45,0,0,0-.89,5.58,17.64,17.64,0,0,0,.81,5.66,10.58,10.58,0,0,0,2.5,4.12,10.91,10.91,0,0,0,4.29,2.59,19.6,19.6,0,0,0,6.14.89,19.2,19.2,0,0,0,6.39-1,1.39,1.39,0,0,1,.41-.16l.08.08c.08.16.32.24.56.32s.65.16,1.14.25a19.73,19.73,0,0,0,3.55,0,3.59,3.59,0,0,0,1.13-.25,1.2,1.2,0,0,0,.65-.32,1.13,1.13,0,0,0,.16-.49V195.19ZM915,209.5c-.08.56-.16,1.05-.24,1.53a6,6,0,0,1-1.21,2.51,5.67,5.67,0,0,1-2,1.62,6.52,6.52,0,0,1-2.91.56,8.43,8.43,0,0,1-3.08-.56,5.07,5.07,0,0,1-1.94-1.7,8.63,8.63,0,0,1-1.05-2.59,13.83,13.83,0,0,1-.32-3.23,14.1,14.1,0,0,1,.4-3.4,7,7,0,0,1,1.22-2.59,5.55,5.55,0,0,1,2-1.61,6.38,6.38,0,0,1,2.91-.57,6.84,6.84,0,0,1,3.07.65,4.85,4.85,0,0,1,1.94,1.7,8,8,0,0,1,1.05,2.58,7.22,7.22,0,0,1,.16,1.3Zm52.08-9.22a7.71,7.71,0,0,0-1.62-3.23,8.21,8.21,0,0,0-2.91-2.19,10.51,10.51,0,0,0-4.45-.81,9.72,9.72,0,0,0-2.26.25,7.79,7.79,0,0,0-2.19.81,13.91,13.91,0,0,0-2.26,1.37,23.4,23.4,0,0,0-2.34,2,7,7,0,0,0-1.22-1.78,6.07,6.07,0,0,0-1.78-1.37,8.46,8.46,0,0,0-2.34-.89,11.18,11.18,0,0,0-2.91-.33,10,10,0,0,0-4.53,1.06,16.59,16.59,0,0,0-4.37,3.23v-2.75a1.14,1.14,0,0,0-.16-.48.71.71,0,0,0-.48-.33,9.14,9.14,0,0,0-1-.24,9,9,0,0,0-1.54-.08,8.49,8.49,0,0,0-1.54.08,2.92,2.92,0,0,0-1,.24,1.21,1.21,0,0,0-.56.33,1.14,1.14,0,0,0-.16.48V219.6a1.13,1.13,0,0,0,.16.49c.08.16.32.24.64.32s.65.17,1.14.25a19.73,19.73,0,0,0,3.55,0,3.22,3.22,0,0,0,1.14-.25c.32-.08.48-.16.56-.32a.6.6,0,0,0,.16-.49v-16a17.44,17.44,0,0,1,2.92-2.75,4.42,4.42,0,0,1,4.6-.57,3,3,0,0,1,1.3,1.13,5.71,5.71,0,0,1,.73,1.7,9.09,9.09,0,0,1,.24,2.18v14.15a1.18,1.18,0,0,0,.16.49c.08.16.32.24.57.32s.64.16,1.13.24a10.24,10.24,0,0,0,1.78.09,10.36,10.36,0,0,0,1.78-.09,3.49,3.49,0,0,0,1.13-.24c.32-.08.48-.16.56-.32a1.2,1.2,0,0,0,.17-.49V203.6a14.73,14.73,0,0,1,3-2.75,4.5,4.5,0,0,1,2.67-1,4.22,4.22,0,0,1,1.85.4,3.43,3.43,0,0,1,1.3,1.13,9,9,0,0,1,.81,1.7,9.09,9.09,0,0,1,.24,2.18v14.15a1.18,1.18,0,0,0,.16.49c.08.16.32.24.57.32s.64.16,1.13.24a10.75,10.75,0,0,0,1.86.09,10.3,10.3,0,0,0,1.78-.09,4,4,0,0,0,1.13-.24c.24-.08.49-.16.57-.32a1.18,1.18,0,0,0,.16-.49v-15.2a7.36,7.36,0,0,0-.08-4M788.77,189.2h13.66c1.7,0,1.7-1.37,1.7-3.07s0-3.07-1.7-3.07H788.77a10.87,10.87,0,0,0-7.44,18.84,11.08,11.08,0,0,0-3.48,7.92,10.87,10.87,0,0,0,10.92,10.92h13.66c1.7,0,1.7-1.38,1.7-3.08s0-3.07-1.7-3.07H788.77a4.77,4.77,0,1,1,0-9.54h13.66c1.7,0,1.7-1.37,1.7-3.07v-.16c0-1.7,0-3.08-1.7-3.08H788.77A4.73,4.73,0,0,1,784,194a4.78,4.78,0,0,1,4.77-4.77"/></g><g class="cls-4"><path class="cls-5" d="M775.26,230s.81-.25,2.35-.57,3.8-.81,6.63-1.29c1.45-.25,3.07-.49,4.77-.73.89-.08,1.78-.24,2.75-.41s1.94-.24,2.91-.32c4-.48,8.65-.89,13.66-1.21,2.51-.16,5.1-.25,7.85-.41l8.41-.24c2.91,0,5.82,0,8.89-.08s6.15.08,9.22.16,6.31.24,9.54.32c.81,0,1.62.09,2.43.09s1.61.08,2.42.16c1.62.08,3.24.24,4.93.32,3.32.16,6.63.41,10,.65l9.94.73c6.63.48,13.35,1,19.9,1.29s13,.73,19.24.81,12.29.08,18-.24a104.36,104.36,0,0,0,15.93-1.95A53.15,53.15,0,0,0,967.78,223a28.6,28.6,0,0,0,8.41-6.06,23.45,23.45,0,0,0,3.72-5.58,5.31,5.31,0,0,0,.41-1l.24-.73c.16-.4.24-.57.24-.57a2.77,2.77,0,0,0-.16.57,3.63,3.63,0,0,0-.24.73c-.08.24-.24.56-.41,1a20.75,20.75,0,0,1-3.47,5.9,27.87,27.87,0,0,1-8.33,6.63,53.9,53.9,0,0,1-12.94,4.69A117.11,117.11,0,0,1,939.16,231c-5.74.48-11.88.64-18.11.64s-12.78-.24-19.33-.56-13.26-.81-20-1.22-13.34-1.05-19.89-1.45-13-.81-19.24-1.13c-3.16-.08-6.23-.25-9.22-.33s-6-.08-8.81-.16h-8.33c-2.67.08-5.34.08-7.76.16-5,.16-9.63.41-13.67.65l-2.91.24-2.75.24c-1.78.17-3.39.33-4.85.49s-2.75.32-3.88.49-2.1.32-2.83.4c-1.54.32-2.35.57-2.35.57"/></g><g class="cls-4"><path class="cls-3" d="M775.18,233.59s.81-.24,2.35-.56,3.8-.73,6.71-1.13c1.45-.25,3.07-.41,4.85-.65.89-.08,1.78-.24,2.75-.33s1.94-.16,3-.32c4.12-.4,8.73-.73,13.75-1,2.5-.16,5.17-.24,7.84-.32s5.5-.08,8.41-.16h8.89l9.3.24c3.16.08,6.39.24,9.62.4s6.55.41,9.87.57c6.63.4,13.34,1,20,1.45s13.42,1,20,1.3,13.1.64,19.33.72,12.37,0,18.11-.4a114.75,114.75,0,0,0,16-2,58.41,58.41,0,0,0,12.94-4.12,30.93,30.93,0,0,0,8.57-6,19.21,19.21,0,0,0,2.5-3c.65-1,1.13-1.78,1.54-2.43a8.73,8.73,0,0,1,.48-.88,2.76,2.76,0,0,0,.33-.73c.16-.41.24-.57.24-.57s-.08.16-.24.57a3.63,3.63,0,0,0-.24.73,4.86,4.86,0,0,0-.41,1,22.47,22.47,0,0,1-3.8,5.74,31.09,31.09,0,0,1-8.49,6.46,52.91,52.91,0,0,1-13,4.69,104.39,104.39,0,0,1-16.17,2.51q-8.73.74-18.19.73c-6.31,0-12.86-.16-19.49-.49s-13.34-.72-20.05-1.21-13.42-1-20-1.45-13.1-.81-19.33-1.14c-3.15-.16-6.22-.24-9.22-.32l-8.89-.24c-2.91,0-5.66-.08-8.41-.08s-5.34,0-7.84.08c-5,.08-9.62.24-13.75.48-1,.08-2,.08-3,.16s-1.86.17-2.75.17c-1.78.08-3.39.24-4.85.4-2.91.32-5.17.57-6.79.81s-2.43.4-2.43.4"/></g><g class="cls-4"><path class="cls-6" d="M775.1,238s.81-.24,2.35-.57c.81-.16,1.78-.32,2.91-.56s2.42-.41,3.88-.65,3.07-.4,4.85-.65c.89-.08,1.78-.24,2.75-.32s1.94-.16,3-.32c2-.24,4.29-.41,6.55-.57s4.77-.32,7.28-.4,5.17-.25,7.92-.33,5.58-.08,8.49-.16h9l9.38.24c3.15.17,6.38.25,9.7.41s6.55.4,9.94.57c6.63.4,13.43,1,20.14,1.45s13.5.89,20.13,1.29,13.18.65,19.49.65,12.45,0,18.19-.4a120.36,120.36,0,0,0,16.17-2,59.91,59.91,0,0,0,13.1-4.13,29.93,29.93,0,0,0,8.73-5.9,23,23,0,0,0,4.13-5.42l.48-1a2.79,2.79,0,0,0,.33-.73c.16-.4.24-.56.24-.56s-.08.16-.24.56a4,4,0,0,0-.25.73,6,6,0,0,0-.4,1,22.87,22.87,0,0,1-3.88,5.74,31.83,31.83,0,0,1-8.65,6.39,54.65,54.65,0,0,1-13.18,4.69,109.2,109.2,0,0,1-16.34,2.51c-5.82.48-12,.72-18.35.81s-12.94-.17-19.65-.41-13.42-.73-20.21-1.21-13.51-1-20.14-1.46c-3.31-.24-6.63-.48-9.86-.64s-6.47-.33-9.62-.57-6.31-.24-9.3-.4l-8.9-.25c-2.91,0-5.74-.08-8.49-.08s-5.33,0-7.92.08q-7.64.12-13.83.49c-1,.08-2,.08-3,.16s-1.86.16-2.75.16c-1.78.08-3.39.24-4.85.41-2.91.32-5.26.56-6.79.8-1.62.41-2.51.57-2.51.57"/></g><ellipse class="cls-7" cx="378.36" cy="577.92" rx="279.64" ry="16.49"/><path class="cls-8" d="M285.66,364.13V371H257.53v-6.91c0-.1,0-.2,0-.3a7.64,7.64,0,0,1,7.64-7.36H278a7.64,7.64,0,0,1,7.64,7.66Z"/><rect class="cls-8" x="262.99" y="370.07" width="17.21" height="189.04"/><rect class="cls-8" x="245.14" y="559.02" width="52.9" height="14.23"/><path class="cls-9" d="M298,559v14.24h-26.6a10.19,10.19,0,0,0-10.07-8.56H245.14V559Z"/><path class="cls-9" d="M285.66,364.13V371H280.2V559.11h-8.62a15.44,15.44,0,0,0-2.67-8.29,15.93,15.93,0,0,0-5.54-5l-.38-.2v-16h8.6V476.34a15.92,15.92,0,0,0-2.73-8.95,15.65,15.65,0,0,0-5.87-5.23v-15.8h8.6v-67.2a15.22,15.22,0,0,0-2.33-8.12,6.57,6.57,0,0,0-.65-1,12.81,12.81,0,0,0-1.56-1.83,15.53,15.53,0,0,0-4.88-3.28,15,15,0,0,0-4.63-1.13,7.64,7.64,0,0,1,7.64-7.36H278a7.64,7.64,0,0,1,7.64,7.66Z"/><circle class="cls-10" cx="271.79" cy="335.63" r="21.8"/><path class="cls-11" d="M287.92,344.67a18.54,18.54,0,0,1-5.8,6.3"/><path class="cls-11" d="M276.54,353.51a18.68,18.68,0,0,1-4.05.6"/><path class="cls-11" d="M256.66,325a18.11,18.11,0,0,1,1.71-2.09"/><path class="cls-11" d="M261.85,320a18.51,18.51,0,0,1,19.08-.47"/><circle class="cls-12" cx="271.79" cy="335.63" r="14.79" transform="translate(-152.54 255.24) rotate(-40.27)"/><circle class="cls-13" cx="271.79" cy="335.63" r="9.72"/><path class="cls-14" d="M266.22,475.26v13.38"/><path class="cls-14" d="M266.22,551.67v5.16"/><path class="cls-8" d="M499.19,364.13V371H471.06v-6.91a1.51,1.51,0,0,1,0-.3,7.64,7.64,0,0,1,7.64-7.36h12.83a7.64,7.64,0,0,1,7.64,7.66Z"/><rect class="cls-8" x="476.52" y="370.07" width="17.21" height="189.04"/><rect class="cls-8" x="458.67" y="559.02" width="52.9" height="14.23"/><path class="cls-9" d="M511.58,559v14.24H485a10.21,10.21,0,0,0-10.08-8.56H458.67V559Z"/><path class="cls-9" d="M499.19,364.13V371h-5.46V559.11h-8.62a15.43,15.43,0,0,0-2.66-8.29,16.05,16.05,0,0,0-5.55-5l-.38-.2v-16h8.61V476.34a15.92,15.92,0,0,0-2.73-8.95,15.76,15.76,0,0,0-5.88-5.23v-15.8h8.61v-67.2A15.22,15.22,0,0,0,482.8,371a7.46,7.46,0,0,0-.65-1,12.88,12.88,0,0,0-1.57-1.83A15.53,15.53,0,0,0,475.7,365a15.05,15.05,0,0,0-4.62-1.13,7.64,7.64,0,0,1,7.64-7.36h12.83a7.64,7.64,0,0,1,7.64,7.66Z"/><circle class="cls-10" cx="485.32" cy="335.63" r="21.8"/><path class="cls-11" d="M501.46,344.67a18.56,18.56,0,0,1-5.81,6.3"/><path class="cls-11" d="M490.08,353.51a18.77,18.77,0,0,1-4.06.6"/><path class="cls-11" d="M470.19,325a18.11,18.11,0,0,1,1.71-2.09"/><path class="cls-11" d="M475.39,320a18.49,18.49,0,0,1,19.07-.47"/><circle class="cls-12" cx="485.32" cy="335.63" r="14.79" transform="translate(39.41 722.08) rotate(-75.58)"/><circle class="cls-13" cx="485.32" cy="335.63" r="9.72"/><path class="cls-14" d="M479.75,475.26v13.38"/><path class="cls-14" d="M479.75,551.67v5.16"/><rect class="cls-15" x="234.54" y="495.34" width="287.63" height="41.77"/><polygon class="cls-10" points="266.27 495.34 234.54 527.13 234.54 510.05 249.22 495.34 266.27 495.34"/><polygon class="cls-10" points="299.66 495.34 257.98 537.1 240.92 537.1 282.6 495.34 299.66 495.34"/><polygon class="cls-10" points="333.04 495.34 291.36 537.1 274.31 537.1 315.99 495.34 333.04 495.34"/><polygon class="cls-10" points="366.43 495.34 324.75 537.1 307.69 537.1 349.37 495.34 366.43 495.34"/><polygon class="cls-10" points="399.82 495.34 358.14 537.1 341.08 537.1 382.76 495.34 399.82 495.34"/><polygon class="cls-10" points="433.2 495.34 391.52 537.1 374.46 537.1 416.14 495.34 433.2 495.34"/><polygon class="cls-10" points="466.59 495.34 424.91 537.1 407.85 537.1 449.53 495.34 466.59 495.34"/><polygon class="cls-10" points="499.97 495.34 458.29 537.1 441.24 537.1 482.92 495.34 499.97 495.34"/><polygon class="cls-10" points="522.18 495.34 522.18 506.56 491.68 537.1 474.62 537.1 516.3 495.34 522.18 495.34"/><polygon class="cls-10" points="522.18 522.9 522.18 537.1 508.01 537.1 522.18 522.9"/><path class="cls-16" d="M522.18,495.34V537.1H438.36a93,93,0,0,0-68.2-29.63H234.54V495.34Z"/><rect class="cls-15" x="234.55" y="370.07" width="287.64" height="83.51"/><polygon class="cls-10" points="284.88 370.07 234.54 420.51 234.54 393.64 258.08 370.07 284.88 370.07"/><polygon class="cls-10" points="338.5 370.07 255.15 453.59 234.54 453.59 234.54 447.36 311.68 370.07 338.5 370.07"/><polygon class="cls-10" points="392.1 370.07 308.75 453.59 281.95 453.59 365.3 370.07 392.1 370.07"/><polygon class="cls-10" points="445.72 370.07 362.37 453.59 335.57 453.59 418.92 370.07 445.72 370.07"/><polygon class="cls-10" points="499.34 370.07 415.99 453.59 389.17 453.59 472.52 370.07 499.34 370.07"/><polygon class="cls-10" points="522.18 374.03 522.18 400.88 469.59 453.59 442.79 453.59 522.18 374.03"/><polygon class="cls-10" points="522.18 430.55 522.18 453.59 499.19 453.59 522.18 430.55"/><path class="cls-17" d="M387.86,440.05H253.51a8.36,8.36,0,0,1-8.37-8.36h0a8.37,8.37,0,0,1,8.37-8.37H387.86a8.36,8.36,0,0,1,8.37,8.37h0A8.36,8.36,0,0,1,387.86,440.05Z"/><path class="cls-17" d="M354.56,531.27H253.51a8.37,8.37,0,0,1-8.37-8.37h0a8.37,8.37,0,0,1,8.37-8.37H354.56a8.39,8.39,0,0,1,8.37,8.37h0A8.37,8.37,0,0,1,354.56,531.27Z"/><path class="cls-16" d="M234.54,370.07v25.2H370.16a93,93,0,0,1,41.14,9.54l-48.77,48.77h74l18.9-18.9a93.47,93.47,0,0,1,10.37,18.91h56.4V370.07Z"/><path class="cls-16" d="M461.6,415.73a7.36,7.36,0,0,1-2.08,3.9l-33.94,33.95H378.36V370.07h42.32l38.84,38.85A7.58,7.58,0,0,1,461.6,415.73Z"/><path class="cls-13" d="M453.28,411.9a5.65,5.65,0,0,1-1.66,4l-74,74a5.66,5.66,0,0,1-8,0l-74-74a5.66,5.66,0,0,1,0-8l56.77-56.76,17.25-17.27a5.66,5.66,0,0,1,8,0l74,74A5.6,5.6,0,0,1,453.28,411.9Z"/><path class="cls-18" d="M453.28,411.9a5.65,5.65,0,0,1-1.66,4l-74,74a5.66,5.66,0,0,1-8,0l-14.12-14.12L386.26,445a42.39,42.39,0,0,0,0-60l-33.91-33.91,17.25-17.27a5.66,5.66,0,0,1,8,0l74,74A5.6,5.6,0,0,1,453.28,411.9Z"/><path class="cls-19" d="M310.31,414.3a2.15,2.15,0,1,1,2.14-2.15A2.15,2.15,0,0,1,310.31,414.3Z"/><path class="cls-9" d="M310.74,414.3a2.15,2.15,0,1,1,2.14-2.15A2.15,2.15,0,0,1,310.74,414.3Z"/><path class="cls-19" d="M436.94,410a2.15,2.15,0,1,1-2.15,2.15A2.14,2.14,0,0,1,436.94,410Z"/><circle class="cls-9" cx="436.51" cy="412.15" r="2.15"/><path class="cls-20" d="M373.6,484.31a6,6,0,0,1-4.26-1.76L303,416.16a6,6,0,0,1,0-8.51l66.38-66.39a6.18,6.18,0,0,1,8.52,0l66.38,66.39a6,6,0,0,1,0,8.51l-66.38,66.39A6,6,0,0,1,373.6,484.31Zm0-142.9a4.12,4.12,0,0,0-2.91,1.2L304.31,409a4.12,4.12,0,0,0,0,5.81l66.38,66.39a4.22,4.22,0,0,0,5.82,0l66.38-66.39a4.09,4.09,0,0,0,0-5.81l-66.38-66.39A4.12,4.12,0,0,0,373.6,341.41Z"/><path class="cls-21" d="M385.89,438.43a9.82,9.82,0,0,1-3.32,7.93,11.53,11.53,0,0,1-15.06,0,11.14,11.14,0,0,1,0-15.87,11.53,11.53,0,0,1,15.06,0A9.82,9.82,0,0,1,385.89,438.43Zm-1.52-50.77q0,9.45-.7,17.62t-1.86,16.58H368.5q-1.17-8.42-1.92-16.58t-.76-17.62V366.77h18.55Z"/><polygon class="cls-10" points="610.04 559.1 541.51 559.1 546.65 539.25 550.99 522.41 554.61 508.43 558.95 491.6 569.49 450.79 582.06 450.79 592.6 491.6 596.94 508.43 600.55 522.41 604.9 539.25 610.04 559.1"/><polygon class="cls-15" points="596.94 508.43 554.61 508.43 558.95 491.6 592.6 491.6 596.94 508.43"/><polygon class="cls-15" points="604.89 539.25 546.66 539.25 550.99 522.41 600.56 522.41 604.89 539.25"/><rect class="cls-22" x="526.73" y="559.02" width="98.09" height="14.23"/><path class="cls-16" d="M624.82,559v14.24H580.28a10.19,10.19,0,0,0-10.07-8.56H526.73V559Z"/><path class="cls-16" d="M577.78,559.1c14.66-66.4-8.29-108.31-8.29-108.31h12.57L592.6,491.6l4.34,16.83,3.61,14,4.35,16.84L610,559.1Z"/><path class="cls-17" d="M571.14,515c-3.42,17.6-8.84,31.36-12.11,30.72s-3.17-15.42.24-33,8.84-31.36,12.12-30.73S574.55,497.35,571.14,515Z"/><polygon class="cls-10" points="215.21 559.1 146.69 559.1 151.83 539.25 156.16 522.41 159.78 508.43 164.12 491.6 174.66 450.79 187.23 450.79 197.77 491.6 202.11 508.43 205.72 522.41 210.07 539.25 215.21 559.1"/><polygon class="cls-15" points="202.11 508.43 159.78 508.43 164.12 491.6 197.77 491.6 202.11 508.43"/><polygon class="cls-15" points="210.07 539.25 151.83 539.25 156.16 522.41 205.73 522.41 210.07 539.25"/><rect class="cls-22" x="131.9" y="559.02" width="98.09" height="14.23"/><path class="cls-16" d="M230,559v14.24H185.46a10.21,10.21,0,0,0-10.08-8.56H131.9V559Z"/><path class="cls-16" d="M183,559.1c14.66-66.4-8.29-108.31-8.29-108.31h12.57l10.54,40.81,4.34,16.83,3.61,14,4.35,16.84,5.14,19.85Z"/><path class="cls-17" d="M176.31,515c-3.41,17.6-8.84,31.36-12.11,30.72s-3.17-15.42.25-33,8.83-31.36,12.11-30.73S179.72,497.35,176.31,515Z"/><path class="cls-23" d="M564.75,282.38a2.85,2.85,0,0,0-.29,0,8.87,8.87,0,0,0-13-5.48,15.55,15.55,0,0,0-3.17-3.91,8.87,8.87,0,0,0-12.4-11.64A15.58,15.58,0,0,0,510,259.46a15.42,15.42,0,0,0-5.78-1.12,15.63,15.63,0,0,0-15,11.16,15.63,15.63,0,0,0-9.85,7.43,8.86,8.86,0,0,0-12.1,3.34,4.89,4.89,0,0,0-2.32-.58,5,5,0,0,0,0,9.91,4.89,4.89,0,0,0,2.32-.58,8.86,8.86,0,0,0,12.1,3.34,15.57,15.57,0,0,0,25,2.85,15.58,15.58,0,0,0,22.48.49,15.59,15.59,0,0,0,24.56-3.34,8.93,8.93,0,0,0,4.39,1.16,8.83,8.83,0,0,0,6.57-2.92,4.43,4.43,0,1,0,2.3-8.22Z"/><path class="cls-24" d="M564.45,282.4a8.86,8.86,0,0,0-13-5.47,15.55,15.55,0,0,0-3.17-3.91,8.87,8.87,0,0,0-12.4-11.64A15.58,15.58,0,0,0,510,259.46a15.42,15.42,0,0,0-5.78-1.12,15.63,15.63,0,0,0-15,11.16,15.63,15.63,0,0,0-9.85,7.43,8.86,8.86,0,0,0-12.1,3.34,4.89,4.89,0,0,0-2.32-.58"/><path class="cls-25" d="M565.61,285l-.18,0a5.65,5.65,0,0,0-5.46-4.23,5.59,5.59,0,0,0-2.79.74,10,10,0,0,0-2-2.49,5.65,5.65,0,0,0-5-8.18,5.57,5.57,0,0,0-2.84.78,9.91,9.91,0,0,0-16.47-1.23,9.93,9.93,0,0,0-13.21,6.39,11.78,11.78,0,0,0-1.19.38,7.36,7.36,0,0,0-13.12.31l0,0a4.16,4.16,0,0,0,.45-1.9,4.24,4.24,0,0,0-6.38-3.66,7.45,7.45,0,0,0-12.38-.92,7.44,7.44,0,0,0-9.92,4.8,7.44,7.44,0,0,0-4.71,3.56,4.15,4.15,0,0,0-2.1-.56,4.25,4.25,0,0,0-3.69,2.15,2.43,2.43,0,0,0-1.11-.27,2.37,2.37,0,0,0,0,4.73,2.43,2.43,0,0,0,1.11-.27,4.23,4.23,0,0,0,5.79,1.59,7.44,7.44,0,0,0,12,1.37,7.45,7.45,0,0,0,10.75.23,7.46,7.46,0,0,0,5.27,2.18,7.35,7.35,0,0,0,3.55-.92c.11,0,.21,0,.32,0a3.09,3.09,0,0,0,1.48-.37,5.64,5.64,0,0,0,4.91,2.87,5.75,5.75,0,0,0,2.79-.74,9.9,9.9,0,0,0,15.91,1.81,9.9,9.9,0,0,0,14.3.31,9.93,9.93,0,0,0,15.64-2.12,5.69,5.69,0,0,0,2.79.74,5.59,5.59,0,0,0,4.18-1.87,2.74,2.74,0,0,0,1.46.43,2.83,2.83,0,1,0,0-5.65Z"/><path class="cls-26" d="M506.13,279.13a3.24,3.24,0,0,1-.31,1.77,4.79,4.79,0,0,1-1.31,1.56,7.91,7.91,0,0,1-9.1,0,4.54,4.54,0,0,1-1.3-1.56,3.24,3.24,0,0,1-.31-1.77,4.37,4.37,0,0,0,2,3.05,7.77,7.77,0,0,0,8.33,0A4.37,4.37,0,0,0,506.13,279.13Z"/><path class="cls-26" d="M543.81,275.71a3.29,3.29,0,0,1-.31,1.78,4.74,4.74,0,0,1-1.3,1.56,7.91,7.91,0,0,1-9.1,0,4.9,4.9,0,0,1-1.31-1.56,3.29,3.29,0,0,1-.31-1.78,4.45,4.45,0,0,0,2,3.06,7.53,7.53,0,0,0,4.17,1.2,7.44,7.44,0,0,0,4.16-1.2A4.39,4.39,0,0,0,543.81,275.71Z"/><path class="cls-26" d="M527.94,284.58a3.26,3.26,0,0,1-.31,1.78,4.64,4.64,0,0,1-1.3,1.56,7.91,7.91,0,0,1-9.1,0,4.79,4.79,0,0,1-1.31-1.56,3.36,3.36,0,0,1-.31-1.78,4.43,4.43,0,0,0,2,3.06,7.85,7.85,0,0,0,8.34,0A4.39,4.39,0,0,0,527.94,284.58Z"/><path class="cls-23" d="M257.12,202.53c.11,0,.2,0,.3,0a8.88,8.88,0,0,1,8.58-6.64,8.76,8.76,0,0,1,4.38,1.17,15.46,15.46,0,0,1,3.18-3.92A8.86,8.86,0,0,1,286,181.54a15.57,15.57,0,0,1,25.88-1.93,15.59,15.59,0,0,1,20.75,10,15.63,15.63,0,0,1,9.85,7.44,8.79,8.79,0,0,1,4.38-1.17,8.89,8.89,0,0,1,7.72,4.5,5,5,0,0,1,2.32-.57,4.95,4.95,0,0,1,0,9.9,4.89,4.89,0,0,1-2.32-.58,8.86,8.86,0,0,1-12.1,3.34,15.58,15.58,0,0,1-25,2.85,15.57,15.57,0,0,1-22.47.49,15.6,15.6,0,0,1-24.57-3.34,8.85,8.85,0,0,1-10.95-1.76,4.43,4.43,0,1,1-2.31-8.22Z"/><path class="cls-24" d="M257.42,202.55a8.88,8.88,0,0,1,8.58-6.63,8.76,8.76,0,0,1,4.38,1.17,15.46,15.46,0,0,1,3.18-3.92A8.86,8.86,0,0,1,286,181.54a15.57,15.57,0,0,1,25.88-1.93,15.59,15.59,0,0,1,20.75,10,15.63,15.63,0,0,1,9.85,7.44,8.79,8.79,0,0,1,4.38-1.17,8.89,8.89,0,0,1,7.72,4.5,5,5,0,0,1,2.32-.57"/><path class="cls-25" d="M256.26,205.19l.19,0a5.64,5.64,0,0,1,8.25-3.49,10.32,10.32,0,0,1,2-2.49,5.64,5.64,0,0,1,7.89-7.4,9.91,9.91,0,0,1,16.47-1.23,9.92,9.92,0,0,1,13.2,6.39,9.89,9.89,0,0,1,1.2.39,7.35,7.35,0,0,1,13.12.31l0-.05a4.16,4.16,0,0,1-.46-1.9,4.25,4.25,0,0,1,6.39-3.66,7.44,7.44,0,0,1,12.37-.92,7.48,7.48,0,0,1,9.93,4.8,7.5,7.5,0,0,1,4.71,3.56,4.23,4.23,0,0,1,5.79,1.59,2.37,2.37,0,1,1,0,4.19,4.25,4.25,0,0,1-3.7,2.15,4.14,4.14,0,0,1-2.09-.56,7.44,7.44,0,0,1-12,1.37,7.45,7.45,0,0,1-10.75.23,7.42,7.42,0,0,1-8.83,1.26,3,3,0,0,1-.31,0,3.06,3.06,0,0,1-1.48-.37,5.63,5.63,0,0,1-7.7,2.13,9.91,9.91,0,0,1-15.92,1.81,9.9,9.9,0,0,1-14.3.31,9.92,9.92,0,0,1-15.63-2.12,5.63,5.63,0,0,1-7-1.12,2.82,2.82,0,1,1-1.47-5.23Z"/><path class="cls-26" d="M315.75,199.28a3.29,3.29,0,0,0,.31,1.78,4.61,4.61,0,0,0,1.3,1.55,7.91,7.91,0,0,0,9.1,0,4.64,4.64,0,0,0,1.31-1.55,3.29,3.29,0,0,0,.31-1.78,4.4,4.4,0,0,1-2,3.05,7.77,7.77,0,0,1-8.33,0A4.37,4.37,0,0,1,315.75,199.28Z"/><path class="cls-26" d="M278.07,195.86a3.17,3.17,0,0,0,.31,1.78,4.64,4.64,0,0,0,1.3,1.56,7.91,7.91,0,0,0,9.1,0,4.64,4.64,0,0,0,1.3-1.56,3.17,3.17,0,0,0,.31-1.78,4.39,4.39,0,0,1-2,3.06,7.85,7.85,0,0,1-8.34,0A4.39,4.39,0,0,1,278.07,195.86Z"/><path class="cls-26" d="M293.94,204.74a3.16,3.16,0,0,0,.31,1.77,4.54,4.54,0,0,0,1.3,1.56,7.91,7.91,0,0,0,9.1,0,4.54,4.54,0,0,0,1.3-1.56,3.16,3.16,0,0,0,.31-1.77,4.39,4.39,0,0,1-2,3A7.56,7.56,0,0,1,300.1,209a7.48,7.48,0,0,1-4.17-1.21A4.39,4.39,0,0,1,293.94,204.74Z"/><path class="cls-23" d="M262.39,256.45A12.85,12.85,0,0,0,252.23,243a18,18,0,1,0-34.31-10.6,19.4,19.4,0,0,0-21.26-7.81,18,18,0,0,0-33.93-3.06,12.85,12.85,0,0,0-21.22,8.23,29.46,29.46,0,0,0-8.26,10.09,14.35,14.35,0,0,0-.49,28.67,14.79,14.79,0,0,0,2,0A29.24,29.24,0,0,0,151.32,281a18,18,0,0,0,33.72,6.3c.53.08,1.06.15,1.6.19a17.94,17.94,0,0,0,12.63-4.09,18,18,0,0,0,24.89,1.42,18,18,0,0,0,27-14.34,19.1,19.1,0,0,0,0-2.14A12.87,12.87,0,0,0,262.39,256.45Z"/><path class="cls-23" d="M262.39,256.45A12.85,12.85,0,0,0,252.23,243a18,18,0,1,0-34.31-10.6,19.4,19.4,0,0,0-21.26-7.81,18,18,0,0,0-33.93-3.06,12.85,12.85,0,0,0-21.22,8.23,29.46,29.46,0,0,0-8.26,10.09,14.35,14.35,0,0,0-.49,28.67,14.79,14.79,0,0,0,2,0A29.24,29.24,0,0,0,151.32,281a18,18,0,0,0,33.72,6.3c.53.08,1.06.15,1.6.19a17.94,17.94,0,0,0,12.63-4.09,18,18,0,0,0,24.89,1.42,18,18,0,0,0,27-14.34,19.1,19.1,0,0,0,0-2.14A12.87,12.87,0,0,0,262.39,256.45Z"/><path class="cls-24" d="M261.34,260.77A12.87,12.87,0,0,0,252.23,243a18,18,0,1,0-34.31-10.6,19.4,19.4,0,0,0-21.26-7.81,18,18,0,0,0-33.93-3.06,12.85,12.85,0,0,0-21.22,8.23,29.46,29.46,0,0,0-8.26,10.09,14.33,14.33,0,0,0-13.6,11.51Z"/><path class="cls-25" d="M256.68,245.37a10.15,10.15,0,0,0-3.83.48,16,16,0,0,0-26.23-8.8,16,16,0,0,0-19.91,2.26,11.26,11.26,0,0,0-21.61,5.54,11.65,11.65,0,0,0-15.83-1.74,12.73,12.73,0,0,0-9.33-5,13.06,13.06,0,0,0-4,.37,12.8,12.8,0,0,0-23.19,5.42A16,16,0,0,0,131,275.82a15.56,15.56,0,0,0,1.67,0,16,16,0,0,0,24.83,6.29,12.6,12.6,0,0,0,5.06,1.42,12.81,12.81,0,0,0,13.6-11.64,9.13,9.13,0,0,0,16.34-5c0-.33,0-.65,0-1l.11-.12a11.64,11.64,0,0,0,18.54-.89c.37.18.75.35,1.14.5a11.65,11.65,0,0,0,22.37-.63,14.63,14.63,0,0,0,1.5.18,16,16,0,0,0,11.32-3.71,10.27,10.27,0,1,0,9.23-15.95Z"/><path class="cls-26" d="M213.19,252.1a4.49,4.49,0,0,1-.66,2.58,7.22,7.22,0,0,1-2.21,2.15,13.34,13.34,0,0,1-14.4-.95,7.18,7.18,0,0,1-1.91-2.43,4.42,4.42,0,0,1-.31-2.64,6.46,6.46,0,0,0,2.86,4.7,13.21,13.21,0,0,0,13.18.87A6.44,6.44,0,0,0,213.19,252.1Z"/><path class="cls-26" d="M165.23,263.08a5.81,5.81,0,0,1-.76,3.13,8.2,8.2,0,0,1-2.51,2.62,14.13,14.13,0,0,1-16.22-1.07,8.4,8.4,0,0,1-2.14-2.93,5.85,5.85,0,0,1-.35-3.21,7.85,7.85,0,0,0,3.2,5.68,14,14,0,0,0,14.87,1A7.84,7.84,0,0,0,165.23,263.08Z"/><path class="cls-26" d="M245.13,250.39a6.3,6.3,0,0,1-.58,2.81,7.36,7.36,0,0,1-1.79,2.38,8.19,8.19,0,0,1-11.36-.75,7.31,7.31,0,0,1-1.46-2.6,6.47,6.47,0,0,1-.2-2.86,7.36,7.36,0,0,0,2.17,5,8,8,0,0,0,10.41.69A7.44,7.44,0,0,0,245.13,250.39Z"/></g></g></svg>