<?xml version="1.0" encoding="utf-8"?>
<!-- Generator: Adobe Illustrator 22.0.1, SVG Export Plug-In . SVG Version: 6.00 Build 0)  -->
<svg version="1.1" id="Layer_1" xmlns="http://www.w3.org/2000/svg" xmlns:xlink="http://www.w3.org/1999/xlink" x="0px" y="0px"
	 viewBox="0 0 1366 768" style="enable-background:new 0 0 1366 768;" xml:space="preserve">
<style type="text/css">
	.st0{display:none;fill:#005A92;}
	.st1{display:none;}
	.st2{display:inline;}
	.st3{display:inline;clip-path:url(#SVGID_2_);}
	.st4{fill:#005A92;}
	.st5{display:inline;clip-path:url(#SVGID_4_);}
	.st6{display:inline;clip-path:url(#SVGID_6_);}
	.st7{fill:#FFF100;}
	.st8{display:inline;clip-path:url(#SVGID_8_);}
	.st9{display:inline;clip-path:url(#SVGID_10_);}
	.st10{display:inline;clip-path:url(#SVGID_12_);}
	.st11{display:inline;clip-path:url(#SVGID_14_);}
	.st12{display:inline;clip-path:url(#SVGID_16_);}
	.st13{display:inline;clip-path:url(#SVGID_18_);}
	.st14{display:inline;clip-path:url(#SVGID_20_);}
	.st15{display:inline;clip-path:url(#SVGID_22_);}
	.st16{display:inline;clip-path:url(#SVGID_24_);}
	.st17{display:inline;clip-path:url(#SVGID_26_);}
	.st18{display:inline;clip-path:url(#SVGID_28_);}
	.st19{display:inline;clip-path:url(#SVGID_30_);}
	.st20{display:inline;clip-path:url(#SVGID_32_);}
	.st21{display:inline;clip-path:url(#SVGID_34_);}
	.st22{fill:#F26F31;}
	.st23{fill:#B1C3CD;}
	.st24{fill:#9ED7F2;}
	.st25{fill:#F0F8FF;}
	.st26{fill:#E7F6FD;}
	.st27{fill:#D6E8F2;}
	.st28{fill:#5FE383;}
	.st29{fill:#228A71;}
	.st30{fill:#44C788;}
	.st31{fill:#32AB8E;}
	.st32{fill:#F0F0F0;}
	.st33{fill:#534B62;}
	.st34{fill:#D6D6D6;}
	.st35{fill:#BDBDBD;}
</style>
<title>404 Page</title>
<path class="st0" d="M711.6,509.2c1.9,0.1,3.8-0.3,5.4-1.3c1.3-0.9,2.1-2.5,1.9-4.1c0-1-0.2-1.9-0.6-2.7c-0.4-0.7-1-1.4-1.7-1.9
	c-0.7-0.5-1.5-1-2.4-1.3l-2.8-1.1c-1.1-0.4-2.2-0.9-3.3-1.5c-0.9-0.5-1.7-1-2.5-1.7c-0.7-0.6-1.2-1.4-1.6-2.2
	c-0.4-0.9-0.6-1.9-0.5-2.9c-0.1-2.2,0.8-4.4,2.5-5.8c2-1.4,4.5-2.1,7-2c0.8,0,1.6,0.1,2.4,0.2c0.7,0.1,1.5,0.3,2.2,0.5
	c0.6,0.2,1.2,0.4,1.8,0.6c0.5,0.2,1,0.4,1.4,0.7l-1,2.5c-0.9-0.6-1.9-1.1-3-1.4c-1.3-0.3-2.5-0.5-3.8-0.5c-0.9,0-1.7,0.1-2.6,0.3
	c-0.7,0.2-1.4,0.5-2,0.9c-0.6,0.4-1,0.9-1.3,1.6c-0.7,1.5-0.7,3.1,0,4.6c0.4,0.6,0.8,1.2,1.4,1.6c0.7,0.5,1.4,0.9,2.2,1.3
	c0.8,0.4,1.7,0.8,2.7,1.2c1.2,0.5,2.3,1,3.3,1.5c1,0.5,1.9,1,2.7,1.7c0.8,0.7,1.4,1.5,1.8,2.4c0.5,1.1,0.7,2.3,0.7,3.5
	c0.1,2.4-0.9,4.6-2.8,6.1c-2.3,1.5-4.9,2.2-7.6,2c-1.9,0-3.8-0.2-5.7-0.8c-0.6-0.2-1.3-0.4-1.9-0.7c-0.4-0.2-0.8-0.4-1.2-0.6l1-2.5
	c0.4,0.2,0.8,0.4,1.2,0.6c0.6,0.3,1.1,0.5,1.7,0.7c0.7,0.2,1.5,0.4,2.2,0.5C709.8,509.1,710.7,509.2,711.6,509.2z"/>
<path class="st0" d="M746.2,500c0,1.6-0.2,3.2-0.8,4.8c-0.5,1.3-1.2,2.6-2.1,3.7c-0.9,1-2,1.8-3.2,2.3c-3.9,1.8-8.5,0.8-11.4-2.3
	c-0.9-1.1-1.7-2.3-2.1-3.7c-1-3.1-1-6.4,0-9.5c0.5-1.4,1.2-2.6,2.1-3.7c0.9-1,2-1.8,3.2-2.4c2.6-1.1,5.6-1.1,8.2,0
	c1.2,0.5,2.3,1.4,3.2,2.4c0.9,1.1,1.7,2.3,2.1,3.7C745.9,496.8,746.2,498.4,746.2,500z M743.2,500c0.1-2.4-0.6-4.7-1.9-6.6
	c-2.4-2.9-6.7-3.3-9.6-0.9c-0.3,0.3-0.7,0.6-0.9,0.9c-2.6,4-2.6,9.2,0,13.3c2.4,2.9,6.7,3.3,9.6,0.9c0.3-0.3,0.6-0.5,0.9-0.9
	C742.6,504.7,743.3,502.4,743.2,500L743.2,500z"/>
<path class="st0" d="M759.8,488.4c0.9,0,1.7,0.1,2.6,0.2c0.6,0.1,1.2,0.2,1.7,0.4l-0.6,2.4c-0.4-0.2-0.9-0.3-1.4-0.4
	c-0.9-0.1-1.8-0.2-2.8-0.2c-1,0-1.9,0.1-2.9,0.3c-0.5,0.1-1,0.2-1.4,0.4v19.5h-2.8v-21.2c1-0.4,2-0.7,3-1
	C756.7,488.5,758.3,488.4,759.8,488.4z"/>
<path class="st0" d="M775.9,488.4c0.9,0,1.7,0.1,2.6,0.2c0.6,0.1,1.2,0.2,1.7,0.4l-0.6,2.4c-0.4-0.2-0.9-0.3-1.4-0.4
	c-0.9-0.1-1.8-0.2-2.8-0.2c-1,0-1.9,0.1-2.9,0.3c-0.5,0.1-1,0.2-1.4,0.4v19.5h-2.8v-21.2c1-0.4,2-0.7,3-1
	C772.8,488.5,774.3,488.4,775.9,488.4z"/>
<path class="st0" d="M791.4,511.5c-0.9-1.8-1.8-3.6-2.7-5.5s-1.7-3.8-2.5-5.7s-1.5-3.9-2.1-5.8s-1.2-3.8-1.6-5.7h3
	c0.3,1.4,0.7,2.9,1.2,4.5s1,3.2,1.7,4.9s1.3,3.4,2,5.2s1.6,3.5,2.4,5.3c0.6-1.8,1.2-3.5,1.7-5s1-3.1,1.4-4.7s0.8-3.2,1.2-4.8
	s0.8-3.4,1.2-5.3h2.8c-0.9,4.2-2,8.2-3.2,12.1c-1.1,3.7-2.3,7.3-3.8,10.8c-0.5,1.1-1,2.3-1.7,3.3c-0.5,0.9-1.2,1.6-1.9,2.3
	c-0.7,0.6-1.6,1.1-2.5,1.3c-1.1,0.3-2.2,0.4-3.3,0.4c-0.7,0-1.3-0.1-2-0.3c-0.4-0.1-0.8-0.2-1.1-0.4l0.6-2.3c0.3,0.2,0.7,0.3,1,0.4
	c0.5,0.2,1.1,0.2,1.7,0.2c0.7,0,1.5-0.1,2.2-0.3c0.6-0.2,1.2-0.5,1.8-0.9c0.6-0.5,1-1,1.4-1.6C790.6,513.3,791,512.4,791.4,511.5z"
	/>
<path class="st0" d="M808.5,507c0,0.2,0,0.5,0,0.7v0.5c0,1.7-0.2,3.5-0.8,5.1c-0.5,1.6-1.2,3.2-2.1,4.6l-2.1-0.9
	c0.7-1.3,1.1-2.6,1.4-4c0.3-1.4,0.4-2.9,0.4-4.3c0-0.4,0-0.6,0-0.9s0-0.5-0.1-0.8L808.5,507z"/>
<path class="st0" d="M828.4,519h-2.8v-29.4c1-0.3,2.1-0.6,3.2-0.8c1.6-0.3,3.3-0.4,4.9-0.4c1.5,0,3,0.3,4.5,0.8
	c1.3,0.5,2.5,1.3,3.4,2.3c1,1,1.7,2.3,2.2,3.6c0.6,1.6,0.8,3.2,0.8,4.9c0,1.6-0.2,3.2-0.7,4.7c-0.4,1.3-1.1,2.6-2,3.6
	c-0.9,1-1.9,1.8-3.2,2.4c-1.3,0.6-2.8,0.9-4.3,0.9c-1.3,0-2.6-0.2-3.8-0.6c-0.8-0.3-1.6-0.7-2.3-1.2L828.4,519z M828.4,507
	c0.3,0.2,0.7,0.4,1,0.6c0.4,0.3,0.9,0.5,1.4,0.6c0.5,0.2,1.1,0.4,1.7,0.5c0.6,0.1,1.3,0.2,1.9,0.2c1.2,0,2.4-0.2,3.5-0.7
	c0.9-0.4,1.6-1.1,2.2-1.9c0.6-0.9,1-1.9,1.2-2.9c0.3-1.2,0.4-2.3,0.4-3.5c0-2.9-0.7-5.2-2.2-6.7c-1.5-1.6-3.6-2.4-5.8-2.3
	c-1.1,0-2.2,0-3.3,0.2c-0.6,0.1-1.3,0.2-1.9,0.4V507z"/>
<path class="st0" d="M857.4,488.3c1.3,0,2.5,0.2,3.7,0.6c0.9,0.4,1.8,1,2.5,1.7c0.6,0.8,1.1,1.6,1.4,2.6c0.3,1.1,0.4,2.2,0.4,3.3v14
	c-0.3,0.1-0.7,0.2-1.3,0.3s-1.2,0.2-1.9,0.3s-1.5,0.2-2.4,0.3s-1.8,0.1-2.7,0.1c-1.1,0-2.2-0.1-3.3-0.4c-0.9-0.2-1.8-0.7-2.6-1.2
	c-0.7-0.6-1.3-1.3-1.7-2.1c-0.4-1-0.7-2.1-0.6-3.2c0-1.1,0.2-2.1,0.7-3.1c0.5-0.9,1.1-1.6,1.9-2.1c0.9-0.6,1.9-1,3-1.2
	c1.2-0.3,2.5-0.4,3.7-0.4c0.4,0,0.8,0,1.3,0.1s0.9,0.1,1.3,0.2s0.8,0.1,1.1,0.2c0.2,0,0.4,0.1,0.6,0.2V497c0-0.8-0.1-1.5-0.2-2.3
	c-0.1-0.7-0.4-1.4-0.8-2c-0.4-0.6-1-1.1-1.6-1.4c-0.9-0.4-1.8-0.6-2.8-0.5c-1.2,0-2.5,0.1-3.7,0.4c-0.8,0.2-1.4,0.4-1.8,0.5
	l-0.4-2.5c0.7-0.3,1.5-0.5,2.3-0.6C855,488.4,856.2,488.3,857.4,488.3z M857.7,509c1.1,0,2,0,2.9-0.1s1.5-0.2,2.1-0.3v-7.8
	c-0.5-0.2-1-0.3-1.5-0.5c-0.9-0.2-1.9-0.3-2.8-0.2c-0.7,0-1.4,0.1-2.2,0.1c-0.7,0.1-1.4,0.3-2.1,0.6c-0.6,0.3-1.2,0.8-1.5,1.4
	c-0.4,0.7-0.6,1.5-0.6,2.3c0,0.7,0.1,1.4,0.4,2.1c0.3,0.6,0.7,1,1.2,1.4c0.5,0.4,1.2,0.6,1.8,0.8C856.1,509,856.9,509,857.7,509
	L857.7,509z"/>
<path class="st0" d="M887,508.5c-0.2,0.2-0.5,0.4-0.8,0.5c-0.4,0.2-0.8,0.4-1.3,0.6c-0.6,0.2-1.1,0.4-1.7,0.5
	c-0.7,0.1-1.4,0.2-2.2,0.2c-1.3,0-2.5-0.2-3.7-0.6c-1.2-0.4-2.3-1-3.2-1.9c-1-0.9-1.7-2.1-2.2-3.3c-0.6-1.6-0.9-3.3-0.8-5
	c0-1.5,0.2-3,0.7-4.4c0.5-1.3,1.2-2.5,2.1-3.5c0.9-1,2.1-1.8,3.3-2.3c1.4-0.6,2.9-0.9,4.4-0.8c1.7,0,3.4,0.1,5,0.4
	c1.3,0.3,2.3,0.5,3.1,0.8v20.3c0,3.3-0.9,5.7-2.6,7.1c-1.7,1.4-4.3,2.1-7.8,2.1c-1.3,0-2.6-0.1-3.9-0.3c-1-0.2-2-0.4-3-0.8l0.5-2.5
	c0.9,0.4,1.9,0.6,2.8,0.8c1.2,0.2,2.4,0.3,3.6,0.3c2.7,0,4.6-0.5,5.7-1.5s1.8-2.7,1.8-5.2V508.5z M887,491.5
	c-0.6-0.2-1.3-0.3-1.9-0.4c-1.1-0.1-2.2-0.2-3.3-0.2c-1.1,0-2.2,0.2-3.2,0.6c-0.9,0.4-1.7,1-2.4,1.8c-0.7,0.8-1.2,1.7-1.5,2.7
	c-0.4,1.1-0.5,2.3-0.5,3.5c0,1.3,0.2,2.6,0.6,3.8c0.3,1,0.9,1.8,1.6,2.6c0.6,0.6,1.4,1.1,2.2,1.4c0.8,0.3,1.7,0.4,2.5,0.5
	c1.2,0,2.3-0.2,3.5-0.6c0.9-0.3,1.7-0.7,2.4-1.3L887,491.5z"/>
<path class="st0" d="M895.8,499.9c0-1.7,0.2-3.5,0.8-5.1c0.5-1.3,1.2-2.6,2.2-3.6c0.9-1,1.9-1.7,3.1-2.2c1.1-0.5,2.4-0.7,3.6-0.7
	c2.5-0.1,4.8,0.9,6.5,2.7c1.6,1.8,2.4,4.5,2.4,8.2c0,0.2,0,0.5,0,0.7c0,0.2,0,0.4-0.1,0.6h-15.7c-0.1,2.3,0.6,4.5,2,6.3
	c1.3,1.5,3.3,2.2,6,2.2c1.2,0,2.4-0.1,3.6-0.4c0.7-0.2,1.3-0.4,1.9-0.7l0.5,2.4c-0.7,0.3-1.5,0.6-2.3,0.8c-1.3,0.3-2.6,0.5-3.9,0.5
	c-1.7,0-3.4-0.2-5-0.9c-1.3-0.5-2.5-1.4-3.4-2.4c-0.9-1.1-1.6-2.3-1.9-3.7C896,503,895.8,501.5,895.8,499.9z M911.6,498.2
	c0.1-1.9-0.5-3.8-1.6-5.4c-1.1-1.3-2.7-2-4.4-1.9c-0.9,0-1.9,0.2-2.7,0.6c-0.8,0.4-1.5,1-2.1,1.6c-0.6,0.7-1.1,1.5-1.4,2.3
	c-0.3,0.9-0.5,1.8-0.6,2.8H911.6z"/>
<path class="st0" d="M930.5,489.6c0.8-0.2,2-0.5,3.4-0.8c1.7-0.3,3.4-0.5,5.2-0.4c1.4,0,2.9,0.2,4.2,0.7c1.1,0.4,2,1.2,2.7,2.1
	c0.7,1,1.2,2.1,1.4,3.3c0.3,1.4,0.4,2.8,0.4,4.2v12.4h-2.8v-11.5c0-1.3-0.1-2.7-0.3-4c-0.2-1-0.5-1.9-1.1-2.7
	c-0.5-0.7-1.2-1.2-2-1.5c-1-0.3-2-0.5-3.1-0.5c-1.1,0-2.3,0.1-3.4,0.2c-0.6,0.1-1.3,0.2-1.9,0.4v19.5h-2.8L930.5,489.6z"/>
<path class="st0" d="M974,500c0,1.6-0.2,3.2-0.8,4.8c-0.5,1.3-1.2,2.6-2.1,3.7c-0.9,1-2,1.8-3.2,2.3c-3.9,1.8-8.5,0.8-11.4-2.3
	c-0.9-1.1-1.7-2.3-2.1-3.7c-1-3.1-1-6.4,0-9.5c0.5-1.4,1.2-2.6,2.1-3.7c0.9-1,2-1.8,3.2-2.4c2.6-1.1,5.6-1.1,8.2,0
	c1.2,0.5,2.3,1.4,3.2,2.4c0.9,1.1,1.7,2.3,2.1,3.7C973.8,496.8,974,498.4,974,500z M971,500c0.1-2.4-0.6-4.7-1.9-6.6
	c-2.4-2.9-6.7-3.3-9.6-0.9c-0.3,0.3-0.7,0.6-0.9,0.9c-2.6,4-2.6,9.2,0,13.3c2.4,2.9,6.7,3.3,9.6,0.9c0.3-0.3,0.6-0.5,0.9-0.9
	C970.4,504.7,971.1,502.4,971,500z"/>
<path class="st0" d="M982.7,488.8h8.8v2.4h-8.8V503c0,1,0.1,2.1,0.3,3.1c0.2,0.7,0.5,1.3,0.9,1.8c0.4,0.4,0.9,0.7,1.5,0.9
	c0.6,0.1,1.3,0.2,1.9,0.2c1,0,1.9-0.1,2.8-0.4c0.6-0.2,1.1-0.5,1.7-0.8l0.7,2.3c-0.7,0.4-1.4,0.7-2.1,0.9c-1.1,0.3-2.2,0.5-3.3,0.5
	c-1.2,0-2.4-0.2-3.5-0.5c-0.9-0.3-1.7-0.9-2.2-1.6c-0.6-0.8-1-1.7-1.2-2.7c-0.2-1.3-0.4-2.6-0.3-3.9v-20.5l2.8-0.5L982.7,488.8z"/>
<path class="st0" d="M1014.7,477.7c1,0,2,0.1,2.9,0.3c0.5,0.1,1,0.3,1.5,0.5l-0.6,2.4c-0.5-0.2-0.9-0.3-1.4-0.5
	c-0.8-0.2-1.6-0.3-2.3-0.2c-2,0-3.4,0.5-4.2,1.5s-1.3,2.6-1.3,4.8v2.3h9v2.4h-9v19.9h-2.8v-24.6c0-2.9,0.7-5.1,2-6.5
	S1011.9,477.7,1014.7,477.7z"/>
<path class="st0" d="M1041.6,500c0,1.6-0.2,3.2-0.8,4.8c-0.5,1.3-1.2,2.6-2.1,3.7c-0.9,1-2,1.8-3.2,2.3c-2.6,1.1-5.6,1.1-8.2,0
	c-1.2-0.5-2.3-1.3-3.2-2.3c-0.9-1.1-1.7-2.3-2.1-3.7c-1-3.1-1-6.4,0-9.5c0.5-1.4,1.2-2.6,2.1-3.7c0.9-1,2-1.8,3.2-2.4
	c2.6-1.1,5.6-1.1,8.2,0c1.2,0.5,2.3,1.4,3.2,2.4c0.9,1.1,1.7,2.3,2.1,3.7C1041.4,496.8,1041.6,498.4,1041.6,500z M1038.6,500
	c0.1-2.4-0.6-4.7-1.9-6.6c-2.4-2.9-6.7-3.3-9.6-0.9c-0.3,0.3-0.6,0.6-0.9,0.9c-2.6,4-2.6,9.2,0,13.3c2.4,2.9,6.8,3.3,9.7,0.9
	c0.3-0.3,0.6-0.5,0.8-0.9C1038.1,504.7,1038.8,502.4,1038.6,500L1038.6,500z"/>
<path class="st0" d="M1064.8,510.3c-0.8,0.2-2,0.5-3.3,0.8c-1.7,0.3-3.4,0.5-5.2,0.4c-1.4,0-2.8-0.2-4.2-0.7c-1.1-0.4-2-1.2-2.7-2.1
	c-0.7-1-1.2-2.1-1.5-3.2c-0.3-1.4-0.5-2.8-0.5-4.2v-12.5h2.8v11.6c0,1.3,0.1,2.7,0.3,4c0.2,1,0.6,1.9,1.1,2.6c0.5,0.7,1.2,1.2,2,1.5
	c1,0.3,2,0.5,3,0.5c1.2,0,2.3-0.1,3.4-0.2c0.6-0.1,1.2-0.2,1.8-0.4v-19.5h2.8L1064.8,510.3z"/>
<path class="st0" d="M1072.2,489.6c0.8-0.2,1.9-0.5,3.3-0.8c1.7-0.3,3.4-0.5,5.2-0.4c1.4,0,2.9,0.2,4.2,0.7c1.1,0.4,2,1.2,2.7,2.1
	c0.7,1,1.2,2.1,1.4,3.3c0.3,1.4,0.4,2.8,0.4,4.2v12.4h-2.8v-11.5c0-1.3-0.1-2.7-0.3-4c-0.2-1-0.5-1.9-1.1-2.7
	c-0.5-0.7-1.2-1.2-2-1.5c-1-0.3-2-0.5-3.1-0.5c-1.1,0-2.3,0.1-3.4,0.2c-0.6,0.1-1.3,0.2-1.9,0.4v19.5h-2.8L1072.2,489.6z"/>
<path class="st0" d="M1114.3,510.4c-2.6,0.9-5.3,1.3-8.1,1.2c-1.5,0-3-0.3-4.4-0.8c-1.3-0.5-2.5-1.3-3.4-2.3c-1-1-1.7-2.3-2.2-3.6
	c-0.6-1.6-0.8-3.2-0.8-4.9c0-1.6,0.2-3.2,0.7-4.7c0.4-1.3,1.1-2.6,2-3.7c0.9-1,1.9-1.9,3.2-2.4c1.3-0.6,2.8-0.9,4.3-0.9
	c1.3,0,2.6,0.2,3.8,0.6c0.8,0.3,1.6,0.7,2.3,1.2v-12l2.8-0.5L1114.3,510.4z M1111.5,492.9c-0.3-0.2-0.7-0.5-1-0.6
	c-0.4-0.3-0.9-0.5-1.3-0.6c-0.5-0.2-1.1-0.4-1.7-0.5c-0.6-0.1-1.3-0.2-1.9-0.2c-1.2,0-2.4,0.2-3.5,0.7c-0.9,0.5-1.7,1.1-2.3,2
	c-0.6,0.9-1,1.9-1.3,2.9c-0.3,1.1-0.4,2.3-0.4,3.5c0,2.9,0.7,5.2,2.2,6.7c1.5,1.6,3.6,2.4,5.8,2.3c1.1,0,2.2,0,3.3-0.2
	c0.6-0.1,1.3-0.2,1.9-0.4L1111.5,492.9z"/>
<path class="st0" d="M780.3,313.3V384h12.6v20.7h-12.6v26.4h-24.8v-26.4h-50.8v-18.5c2.5-5,5.6-10.6,9.3-16.9s7.9-12.8,12.5-19.4
	c4.6-6.6,9.4-13.1,14.5-19.5c4.8-6,9.9-11.7,15.3-17.2L780.3,313.3z M755.5,344.2c-4.4,5.8-9.1,12.1-14.1,18.9
	c-4.8,6.6-9.1,13.6-12.6,20.9h26.7V344.2z"/>
<path class="st0" d="M888.6,371.9c0,19.8-3.8,35.1-11.3,45.6c-7.5,10.6-17.9,15.9-31.2,15.9c-13.3,0-23.7-5.3-31.2-15.9
	c-7.5-10.6-11.3-25.8-11.3-45.6c-0.1-8.8,0.9-17.6,3-26.2c1.7-6.9,4.6-13.4,8.6-19.2c3.5-5,8.1-9.1,13.4-11.9
	c5.4-2.8,11.4-4.2,17.5-4.1c13.3,0,23.7,5.3,31.2,15.9C884.9,337,888.6,352.2,888.6,371.9z M862.8,371.9c0-5.4-0.3-10.7-0.8-16.1
	c-0.4-4.3-1.4-8.4-2.7-12.5c-1-3.1-2.7-5.9-5.1-8.2c-2.2-1.9-5.1-3-8-2.9c-2.9-0.1-5.7,0.9-7.9,2.9c-2.3,2.3-4.1,5.1-5.1,8.2
	c-1.4,4-2.4,8.2-2.8,12.5c-0.6,5.3-0.9,10.7-0.8,16.1c0,5.4,0.3,10.8,0.8,16.1c0.4,4.3,1.4,8.5,2.8,12.6c1,3.1,2.8,5.9,5.1,8.2
	c2.2,2,5,3,7.9,2.9c2.9,0.1,5.8-0.9,8-2.9c2.4-2.2,4.1-5.1,5.1-8.2c1.4-4.1,2.3-8.3,2.7-12.6C862.5,382.7,862.8,377.3,862.8,371.9
	L862.8,371.9z"/>
<path class="st0" d="M973.5,313.3V384H986v20.7h-12.5v26.4h-24.8v-26.4h-50.8v-18.5c2.5-5,5.6-10.6,9.3-16.9s7.9-12.8,12.5-19.4
	c4.6-6.6,9.4-13.1,14.5-19.5c4.8-6,9.9-11.7,15.3-17.2L973.5,313.3z M948.6,344.2c-4.4,5.8-9.1,12.1-14.1,18.9
	c-4.8,6.6-9.1,13.6-12.6,20.9h26.7V344.2z"/>
<g class="st1">
	<defs>
		<rect id="SVGID_1_" x="701.3" y="176.5" width="283" height="69.5"/>
	</defs>
	<clipPath id="SVGID_2_" class="st2">
		<use xlink:href="#SVGID_1_"  style="overflow:visible;"/>
	</clipPath>
	<g class="st3">
		<path class="st4" d="M726.4,213.6c3.5-1.7,5-6,3.3-9.5c-1.7-3.5-6-5-9.5-3.3l0,0L705,208c-0.1,1.1-0.2,2.1-0.2,3.2
			c0,4,0.8,8,2.3,11.7L726.4,213.6L726.4,213.6"/>
	</g>
</g>
<g class="st1">
	<defs>
		<rect id="SVGID_3_" x="701.3" y="176.5" width="283" height="69.5"/>
	</defs>
	<clipPath id="SVGID_4_" class="st2">
		<use xlink:href="#SVGID_3_"  style="overflow:visible;"/>
	</clipPath>
	<g class="st5">
		<path class="st4" d="M737.1,219.2c-1.7-3.5-6-5-9.5-3.3c0,0,0,0,0,0l0,0l-19.4,9.4c2.3,4.5,5.6,8.3,9.6,11.2l16-7.8
			C737.3,227,738.8,222.8,737.1,219.2C737.1,219.2,737.1,219.2,737.1,219.2"/>
	</g>
</g>
<g class="st1">
	<defs>
		<rect id="SVGID_5_" x="701.3" y="176.5" width="283" height="69.5"/>
	</defs>
	<clipPath id="SVGID_6_" class="st2">
		<use xlink:href="#SVGID_5_"  style="overflow:visible;"/>
	</clipPath>
	<g class="st6">
		<path class="st7" d="M732,202.9c0.2,0.3,0.3,0.7,0.4,1c2.1,2.5,5.7,3.3,8.7,1.9l0,0l21.7-10.5c-2.7-4.4-6.3-8.1-10.7-10.8
			l-17.2,8.4c-3.2,1.5-4.7,5.1-3.7,8.5C731.4,201.8,731.7,202.3,732,202.9"/>
	</g>
</g>
<g class="st1">
	<defs>
		<rect id="SVGID_7_" x="701.3" y="176.5" width="283" height="69.5"/>
	</defs>
	<clipPath id="SVGID_8_" class="st2">
		<use xlink:href="#SVGID_7_"  style="overflow:visible;"/>
	</clipPath>
	<g class="st8">
		<path class="st7" d="M742.2,208c-3.1,1.6-4.7,5.1-3.7,8.5c0.3,0.5,0.7,1,1,1.5c0.2,0.3,0.3,0.7,0.4,1.1c2.1,2.6,5.6,3.3,8.6,1.9
			l18.8-9.1v-0.6c0-4.8-1.1-9.5-3.3-13.8L742.2,208L742.2,208"/>
	</g>
</g>
<g class="st1">
	<defs>
		<rect id="SVGID_9_" x="701.3" y="176.5" width="283" height="69.5"/>
	</defs>
	<clipPath id="SVGID_10_" class="st2">
		<use xlink:href="#SVGID_9_"  style="overflow:visible;"/>
	</clipPath>
	<g class="st9">
		<path class="st4" d="M762.8,195.3l-21.8,10.5l0,0c-3,1.4-6.5,0.6-8.7-1.9c0.2,0.5,0.3,1,0.4,1.4c0.1,0.7,0.2,1.4,0.2,2.1
			c-0.1,1.8-0.7,3.6-1.7,5.2c1.6,0.1,3.2,0.6,4.6,1.5c0.5,0.4,1,0.7,1.5,1.1c0.4,0.4,0.8,0.8,1.1,1.3c-1-3.4,0.6-6.9,3.7-8.5l0,0
			l21.8-10.6C763.6,196.7,763.2,196,762.8,195.3"/>
	</g>
</g>
<g class="st1">
	<defs>
		<rect id="SVGID_11_" x="701.3" y="176.5" width="283" height="69.5"/>
	</defs>
	<clipPath id="SVGID_12_" class="st2">
		<use xlink:href="#SVGID_11_"  style="overflow:visible;"/>
	</clipPath>
	<g class="st10">
		<path class="st4" d="M751.2,184c-0.7-0.3-1.2-0.6-1.9-1c-4.2-2-8.7-3-13.3-3c-14.8,0-27.6,10.5-30.6,25l13.7-6.6
			c3.1-1.5,6.8-1.3,9.6,0.6c0.5,0.3,0.9,0.7,1.4,1.1c0.4,0.4,0.7,0.8,1.1,1.2c-1-3.4,0.6-6.9,3.7-8.5l17.2-8.3
			C751.8,184.3,751.5,184.1,751.2,184"/>
	</g>
</g>
<g class="st1">
	<defs>
		<rect id="SVGID_13_" x="701.3" y="176.5" width="283" height="69.5"/>
	</defs>
	<clipPath id="SVGID_14_" class="st2">
		<use xlink:href="#SVGID_13_"  style="overflow:visible;"/>
	</clipPath>
	<g class="st11">
		<path class="st4" d="M767.2,211.8l-18.8,9.2c-3,1.4-6.5,0.7-8.7-1.9c0.2,0.8,0.4,1.5,0.5,2.3v0.9c0.1,0.1,0.2,0.2,0.3,0.2l0,0
			c2.6,1.8,6,2.1,8.9,0.7l17.5-8.5c0.1-0.6,0.1-1.1,0.2-1.6V213C767.2,212.6,767.2,212.3,767.2,211.8"/>
	</g>
</g>
<g class="st1">
	<defs>
		<rect id="SVGID_15_" x="701.3" y="176.5" width="283" height="69.5"/>
	</defs>
	<clipPath id="SVGID_16_" class="st2">
		<use xlink:href="#SVGID_15_"  style="overflow:visible;"/>
	</clipPath>
	<g class="st12">
		<path class="st7" d="M738.5,216.5c0.1,0.4,0.2,0.8,0.4,1.1c0.3,0.5,0.6,1,1,1.5c-0.1-0.4-0.2-0.7-0.4-1.1
			C739.1,217.5,738.8,217.1,738.5,216.5"/>
	</g>
</g>
<g class="st1">
	<defs>
		<rect id="SVGID_17_" x="701.3" y="176.5" width="283" height="69.5"/>
	</defs>
	<clipPath id="SVGID_18_" class="st2">
		<use xlink:href="#SVGID_17_"  style="overflow:visible;"/>
	</clipPath>
	<g class="st13">
		<path class="st7" d="M732.4,203.9c-0.2-0.3-0.2-0.6-0.4-1c-0.3-0.6-0.6-1.1-1-1.5c0.1,0.4,0.2,0.8,0.4,1.1
			C731.7,203,732,203.5,732.4,203.9"/>
	</g>
</g>
<g class="st1">
	<defs>
		<rect id="SVGID_19_" x="701.3" y="176.5" width="283" height="69.5"/>
	</defs>
	<clipPath id="SVGID_20_" class="st2">
		<use xlink:href="#SVGID_19_"  style="overflow:visible;"/>
	</clipPath>
	<g class="st14">
		<path class="st7" d="M740.3,222.4V222l-0.4-0.6l-0.9-0.2l-0.1,0.2C739.4,221.6,739.9,221.9,740.3,222.4"/>
	</g>
</g>
<g class="st1">
	<defs>
		<rect id="SVGID_21_" x="701.3" y="176.5" width="283" height="69.5"/>
	</defs>
	<clipPath id="SVGID_22_" class="st2">
		<use xlink:href="#SVGID_21_"  style="overflow:visible;"/>
	</clipPath>
	<g class="st15">
		<path class="st7" d="M749.5,223.2c-3,1.4-6.5,1.1-9.2-0.9c-0.5-0.3-0.9-0.7-1.3-1.1v-0.2l0.9,0.2l0.3,0.1
			c-0.1-0.8-0.2-1.6-0.5-2.3c-0.4-0.5-0.7-0.9-1-1.5c-0.2-0.4-0.3-0.7-0.4-1.1c-0.3-0.5-0.7-0.9-1.1-1.3c-0.5-0.4-0.9-0.8-1.5-1.1
			c-1.4-0.9-3-1.4-4.6-1.5c1-1.5,1.6-3.3,1.7-5.2c0-0.7,0-1.4-0.2-2.1c-0.1-0.5-0.2-1-0.4-1.4c-0.4-0.5-0.7-0.9-1-1.5
			c-0.2-0.4-0.3-0.7-0.4-1.1c-0.3-0.4-0.6-0.8-1-1.2c-0.4-0.4-0.8-0.7-1.3-1.1c-2.9-1.9-6.5-2.2-9.6-0.6l-13.6,6.8
			c-0.2,1-0.3,2-0.5,3.1l15.2-7.4c3.5-1.7,7.8-0.2,9.5,3.3c0,0,0,0,0,0c1.7,3.6,0.2,7.9-3.3,9.6l0,0l-19.3,9.3
			c0.3,0.8,0.6,1.5,1,2.3l19.3-9.4l0,0c3.5-1.8,7.8-0.4,9.6,3.1c1.8,3.5,0.4,7.8-3.1,9.6c-0.1,0-0.2,0.1-0.3,0.1l-16,7.8
			c0.4,0.3,0.7,0.6,1.1,0.8c0.4,0.3,0.9,0.6,1.4,0.8c4.8,2.8,10.3,4.3,15.8,4.3c15.9,0,29.2-11.9,31-27.7L749.5,223.2z"/>
	</g>
</g>
<g class="st1">
	<defs>
		<rect id="SVGID_23_" x="701.3" y="176.5" width="283" height="69.5"/>
	</defs>
	<clipPath id="SVGID_24_" class="st2">
		<use xlink:href="#SVGID_23_"  style="overflow:visible;"/>
	</clipPath>
	<g class="st16">
		<path class="st7" d="M740.3,222v-0.6l-0.3-0.1L740.3,222z"/>
	</g>
</g>
<g class="st1">
	<defs>
		<rect id="SVGID_25_" x="701.3" y="176.5" width="283" height="69.5"/>
	</defs>
	<clipPath id="SVGID_26_" class="st2">
		<use xlink:href="#SVGID_25_"  style="overflow:visible;"/>
	</clipPath>
	<g class="st17">
		<path class="st4" d="M736,176.5c-19.2,0-34.7,15.5-34.7,34.7c0,19.2,15.5,34.7,34.7,34.7s34.7-15.5,34.7-34.7c0,0,0,0,0,0
			C770.7,192,755.2,176.5,736,176.5C736,176.5,736,176.5,736,176.5 M736,244.4c-18.3,0-33.1-14.9-33.1-33.2s14.9-33.1,33.2-33.1
			s33.1,14.9,33.1,33.2c0,8.8-3.5,17.2-9.7,23.4C753.2,240.9,744.8,244.4,736,244.4"/>
	</g>
</g>
<g class="st1">
	<defs>
		<rect id="SVGID_27_" x="701.3" y="176.5" width="283" height="69.5"/>
	</defs>
	<clipPath id="SVGID_28_" class="st2">
		<use xlink:href="#SVGID_27_"  style="overflow:visible;"/>
	</clipPath>
	<g class="st18">
		<path class="st4" d="M814.2,183.4c-0.3-0.1-0.7-0.2-1.1-0.2c-1.2-0.1-2.4-0.1-3.5,0c-0.4,0.1-0.8,0.1-1.1,0.2
			c-0.2,0-0.5,0.2-0.6,0.4c-0.1,0.1-0.1,0.3-0.2,0.5v35.3c0,0.2,0.1,0.3,0.2,0.5c0.1,0.2,0.3,0.2,0.6,0.3s0.6,0.2,1.1,0.3
			c1.2,0.1,2.4,0.1,3.5,0c0.4,0,0.8-0.1,1.1-0.3c0.2,0,0.5-0.2,0.6-0.3c0.1-0.1,0.2-0.3,0.2-0.5v-35.3c0-0.2-0.1-0.3-0.2-0.5
			C814.7,183.6,814.5,183.5,814.2,183.4 M845.5,194.3c-0.3-0.1-0.7-0.2-1.1-0.3c-0.6-0.1-1.2-0.1-1.8-0.1c-0.6,0-1.2,0-1.8,0.1
			c-0.4,0.1-0.8,0.1-1.1,0.3c-0.2,0-0.4,0.2-0.6,0.3c-0.1,0.2-0.2,0.2-0.2,0.4c-0.2-0.1-0.2-0.1-0.4-0.2c-2-0.6-4.1-0.9-6.1-0.9
			c-2.1,0-4.3,0.3-6.3,1c-1.7,0.6-3.2,1.6-4.5,2.8c-1.2,1.2-2.1,2.7-2.7,4.4c-0.6,1.8-0.9,3.7-0.9,5.6c0,1.9,0.2,3.8,0.8,5.7
			c0.5,1.5,1.4,3,2.5,4.1c1.2,1.2,2.7,2.1,4.3,2.6c2,0.6,4.1,0.9,6.1,0.9c2.2,0,4.3-0.3,6.4-1c0.3-0.1,0.5-0.2,0.8-0.3
			c0,0.1,0.1,0.2,0.2,0.3c0.1,0.2,0.3,0.2,0.6,0.3s0.6,0.2,1.1,0.3c0.6,0.1,1.2,0.1,1.8,0.1c0.6,0,1.2,0,1.8-0.1
			c0.4,0,0.8-0.1,1.1-0.3c0.3-0.1,0.5-0.2,0.6-0.3c0.1-0.1,0.2-0.3,0.2-0.5v-24.3c0-0.2-0.1-0.3-0.2-0.5
			C845.9,194.5,845.7,194.5,845.5,194.3 M838,211c-0.2,0.9-0.6,1.8-1.2,2.5c-0.5,0.7-1.2,1.2-2,1.6c-0.9,0.4-1.9,0.6-2.9,0.6
			c-1,0-2.1-0.2-3.1-0.6c-0.8-0.4-1.5-1-1.9-1.7c-0.5-0.8-0.8-1.7-1-2.6c-0.2-1.1-0.3-2.1-0.3-3.2c0-1.1,0.1-2.3,0.4-3.4
			c0.2-0.9,0.6-1.8,1.2-2.6c0.5-0.7,1.2-1.2,2-1.6c0.9-0.4,1.9-0.6,2.9-0.6c1.1,0,2.1,0.2,3.1,0.6c0.8,0.4,1.5,1,1.9,1.7
			c0.5,0.8,0.8,1.7,1,2.6c0.2,1.1,0.3,2.2,0.3,3.2C838.4,208.8,838.3,209.9,838,211 M873,198c-0.8-1.2-2-2.2-3.3-2.8
			c-1.5-0.8-3.2-1.1-4.9-1.1c-0.8,0-1.5,0.1-2.3,0.2c-0.7,0.1-1.4,0.3-2.1,0.6c-0.7,0.3-1.4,0.6-2,1c-0.7,0.5-1.4,1-2,1.5v-13.1
			c0-0.2-0.1-0.3-0.2-0.5c-0.2-0.2-0.4-0.3-0.7-0.4c-0.3-0.1-0.6-0.2-1.1-0.2c-0.6-0.1-1.2-0.1-1.8-0.1c-0.6,0-1.2,0-1.8,0.1
			c-0.4,0.1-0.8,0.1-1.1,0.2c-0.2,0-0.4,0.2-0.6,0.4c-0.1,0.1-0.1,0.3-0.2,0.5v35.3c0,0.2,0.1,0.3,0.2,0.5c0.1,0.2,0.3,0.3,0.5,0.3
			c0.3,0.1,0.7,0.2,1,0.2c0.4,0,0.9,0.1,1.5,0.1c0.5,0,1,0,1.5-0.1c0.3,0,0.7-0.1,1-0.2c0.2-0.1,0.4-0.2,0.6-0.3
			c0.1-0.1,0.1-0.3,0.2-0.5v-2.6c0.6,0.7,1.4,1.3,2.1,1.9c0.6,0.5,1.4,0.9,2.1,1.3c0.7,0.3,1.4,0.6,2.2,0.7c0.8,0.2,1.7,0.2,2.5,0.2
			c1.6,0,3.3-0.3,4.8-1c1.4-0.6,2.6-1.6,3.6-2.8c1-1.3,1.7-2.8,2.1-4.3c0.5-1.9,0.8-3.8,0.8-5.7c0-1.7-0.2-3.4-0.6-5
			C874.6,200.8,873.9,199.4,873,198 M867.5,210.5c-0.2,0.9-0.5,1.7-1,2.4c-0.4,0.7-1,1.3-1.7,1.8c-0.7,0.5-1.6,0.7-2.4,0.6
			c-1.1,0-2.1-0.4-3-1c-1.1-0.8-2.1-1.7-3-2.8v-7.9c0.5-0.6,1.1-1.2,1.7-1.8c0.5-0.4,1-0.8,1.5-1.2c0.5-0.3,0.9-0.5,1.5-0.6
			c0.5-0.1,1-0.2,1.5-0.2c0.9,0,1.7,0.2,2.5,0.6c0.7,0.5,1.2,1.1,1.6,1.8c0.4,0.8,0.7,1.6,0.9,2.5c0.2,1,0.2,1.9,0.2,2.9
			C867.8,208.7,867.6,209.6,867.5,210.5 M895.1,200.4c0.1-0.3,0.2-0.7,0.2-1c0-0.4,0.1-1,0.1-1.6v-1.5c0-0.4-0.1-0.6-0.1-0.8
			c0-0.2-0.1-0.3-0.2-0.5c-0.1-0.1-0.2-0.2-0.2-0.3c-0.1-0.1-0.3-0.2-0.5-0.2l-0.8-0.3c-0.3-0.1-0.7-0.1-0.9-0.2h-0.8
			c-0.5,0-1.1,0.1-1.6,0.2c-0.6,0.2-1.2,0.4-1.7,0.7c-0.6,0.4-1.2,0.9-1.8,1.4c-0.7,0.7-1.4,1.4-2,2.2v-3c0-0.2-0.1-0.3-0.2-0.5
			c-0.1-0.2-0.3-0.3-0.5-0.3c-0.3-0.1-0.7-0.2-1-0.2c-0.5-0.1-1-0.1-1.5-0.1c-0.5,0-1,0-1.5,0.1c-0.3,0-0.7,0.1-1,0.2
			c-0.2,0.1-0.4,0.2-0.6,0.3c-0.1,0.2-0.1,0.3-0.2,0.5v23.9c0,0.2,0.1,0.3,0.2,0.5c0.1,0.2,0.3,0.2,0.7,0.3s0.6,0.2,1.1,0.2
			c0.6,0.1,1.2,0.1,1.8,0.1c0.6,0,1.2,0,1.8-0.1c0.4,0,0.8-0.1,1.1-0.2c0.2-0.1,0.5-0.2,0.6-0.3c0.1-0.1,0.1-0.3,0.2-0.5v-14.7
			c0.6-0.8,1-1.5,1.5-2c0.4-0.5,0.9-0.9,1.4-1.3c0.4-0.3,0.8-0.5,1.3-0.7c0.4-0.2,0.8-0.2,1.2-0.2c0.3,0,0.7,0,1,0.1
			c0.3,0.1,0.5,0.1,0.8,0.2c0.2,0.1,0.4,0.2,0.7,0.3c0.2,0.1,0.4,0.1,0.6,0.1c0.2,0,0.3-0.1,0.5-0.2
			C894.8,200.8,895,200.6,895.1,200.4 M922.4,195.2c0-0.2-0.1-0.3-0.2-0.5c-0.1-0.2-0.3-0.2-0.6-0.3s-0.7-0.2-1.1-0.3
			c-1.2-0.1-2.4-0.1-3.5,0c-0.4,0.1-0.8,0.1-1.1,0.3c-0.2,0-0.4,0.2-0.6,0.3c-0.1,0.1-0.1,0.2-0.2,0.2c-2-0.6-4-0.9-6.1-0.9
			c-2.1,0-4.3,0.3-6.3,1c-1.7,0.6-3.2,1.6-4.5,2.8c-1.2,1.2-2.1,2.7-2.7,4.4c-0.6,1.8-0.9,3.7-0.9,5.6c0,1.9,0.2,3.8,0.8,5.7
			c0.5,1.5,1.4,3,2.5,4.1c1.2,1.2,2.7,2.1,4.3,2.6c2,0.6,4.1,0.9,6.1,0.9c2.2,0,4.3-0.3,6.4-1c0.1-0.1,0.3-0.1,0.4-0.2l0.1,0.1
			c0.1,0.2,0.3,0.2,0.6,0.3s0.7,0.2,1.1,0.3c1.2,0.1,2.4,0.1,3.5,0c0.4,0,0.8-0.1,1.1-0.3c0.2,0,0.5-0.1,0.7-0.3
			c0.1-0.1,0.1-0.3,0.2-0.5V195.2L922.4,195.2z M915,209.5c-0.1,0.6-0.2,1.1-0.2,1.5c-0.2,0.9-0.6,1.8-1.2,2.5
			c-0.5,0.7-1.2,1.2-2,1.6c-0.9,0.4-1.9,0.6-2.9,0.6c-1.1,0-2.1-0.2-3.1-0.6c-0.8-0.4-1.5-1-1.9-1.7c-0.5-0.8-0.8-1.7-1-2.6
			c-0.2-1.1-0.3-2.1-0.3-3.2c0-1.1,0.1-2.3,0.4-3.4c0.2-0.9,0.6-1.8,1.2-2.6c0.5-0.7,1.2-1.2,2-1.6c0.9-0.4,1.9-0.6,2.9-0.6
			c1.1,0,2.1,0.2,3.1,0.6c0.8,0.4,1.5,1,1.9,1.7c0.5,0.8,0.9,1.7,1,2.6c0.1,0.4,0.1,0.9,0.2,1.3L915,209.5z M967.1,200.3
			c-0.3-1.2-0.8-2.3-1.6-3.2c-0.8-0.9-1.8-1.7-2.9-2.2c-1.4-0.6-2.9-0.9-4.5-0.8c-0.8,0-1.5,0.1-2.3,0.3c-0.8,0.2-1.5,0.4-2.2,0.8
			c-0.8,0.4-1.6,0.8-2.3,1.4c-0.8,0.6-1.6,1.3-2.3,2c-0.3-0.7-0.7-1.3-1.2-1.8c-0.5-0.6-1.1-1-1.8-1.4c-0.7-0.4-1.5-0.7-2.3-0.9
			c-1-0.2-1.9-0.3-2.9-0.3c-1.6,0-3.1,0.4-4.5,1.1c-1.6,0.8-3.1,1.9-4.4,3.2v-2.8c0-0.2-0.1-0.3-0.2-0.5c-0.1-0.2-0.3-0.3-0.5-0.3
			c-0.3-0.1-0.7-0.2-1-0.2c-0.5-0.1-1-0.1-1.5-0.1c-0.5,0-1,0-1.5,0.1c-0.3,0-0.7,0.1-1,0.2c-0.2,0.1-0.4,0.2-0.6,0.3
			c-0.1,0.1-0.1,0.3-0.2,0.5v24c0,0.2,0.1,0.3,0.2,0.5c0.1,0.2,0.3,0.2,0.6,0.3s0.7,0.2,1.1,0.3c1.2,0.1,2.4,0.1,3.5,0
			c0.4,0,0.8-0.1,1.1-0.3c0.3-0.1,0.5-0.2,0.6-0.3c0.1-0.1,0.2-0.3,0.2-0.5v-16c0.9-1,1.8-1.9,2.9-2.8c1.3-1,3.1-1.3,4.6-0.6
			c0.5,0.2,1,0.6,1.3,1.1c0.3,0.5,0.6,1.1,0.7,1.7c0.2,0.7,0.2,1.4,0.2,2.2v14.1c0,0.2,0.1,0.3,0.2,0.5c0.1,0.2,0.3,0.2,0.6,0.3
			s0.6,0.2,1.1,0.2c0.6,0.1,1.2,0.1,1.8,0.1c0.6,0,1.2,0,1.8-0.1c0.4,0,0.8-0.1,1.1-0.2c0.3-0.1,0.5-0.2,0.6-0.3
			c0.1-0.1,0.1-0.3,0.2-0.5v-15.8c0.9-1.1,1.9-2,3-2.8c0.8-0.6,1.7-1,2.7-1c0.6,0,1.3,0.1,1.8,0.4c0.5,0.3,1,0.6,1.3,1.1
			c0.3,0.5,0.6,1.1,0.8,1.7c0.2,0.7,0.2,1.4,0.2,2.2v14.1c0,0.2,0.1,0.3,0.2,0.5c0.1,0.2,0.3,0.2,0.6,0.3s0.6,0.2,1.1,0.2
			c0.6,0.1,1.2,0.1,1.9,0.1c0.6,0,1.2,0,1.8-0.1c0.4,0,0.8-0.1,1.1-0.2c0.2-0.1,0.5-0.2,0.6-0.3c0.1-0.1,0.1-0.3,0.2-0.5v-15.2
			C967.5,202.9,967.4,201.5,967.1,200.3 M788.8,189.2h13.7c1.7,0,1.7-1.4,1.7-3.1s0-3.1-1.7-3.1h-13.7c-6,0-10.9,4.8-10.9,10.8
			c0,3,1.2,6,3.5,8c-2.2,2.1-3.4,4.9-3.5,7.9c0,6,4.8,10.9,10.8,10.9c0,0,0.1,0,0.1,0h13.7c1.7,0,1.7-1.4,1.7-3.1s0-3.1-1.7-3.1
			h-13.7c-2.6,0-4.8-2.1-4.8-4.8c0-2.6,2.1-4.8,4.8-4.8c0,0,0,0,0,0h13.7c1.7,0,1.7-1.4,1.7-3.1v-0.2c0-1.7,0-3.1-1.7-3.1h-13.7
			c-2.6,0-4.7-2.1-4.8-4.7c0,0,0,0,0-0.1C784,191.4,786.1,189.2,788.8,189.2"/>
	</g>
</g>
<g class="st1">
	<defs>
		<rect id="SVGID_29_" x="701.3" y="176.5" width="283" height="69.5"/>
	</defs>
	<clipPath id="SVGID_30_" class="st2">
		<use xlink:href="#SVGID_29_"  style="overflow:visible;"/>
	</clipPath>
	<g class="st19">
		<path class="st7" d="M775.3,230c0,0,0.8-0.3,2.3-0.6s3.8-0.8,6.6-1.3c1.5-0.3,3.1-0.5,4.8-0.7c0.9-0.1,1.8-0.2,2.8-0.4
			s1.9-0.2,2.9-0.3c4-0.5,8.7-0.9,13.7-1.2c2.5-0.2,5.1-0.3,7.8-0.4l8.4-0.2c2.9,0,5.8,0,8.9-0.1s6.2,0.1,9.2,0.2s6.3,0.2,9.5,0.3
			c0.8,0,1.6,0.1,2.4,0.1s1.6,0.1,2.4,0.2c1.6,0.1,3.2,0.2,4.9,0.3c3.3,0.2,6.6,0.4,10,0.6l9.9,0.7c6.6,0.5,13.3,1,19.9,1.3
			s13,0.7,19.2,0.8s12.3,0.1,18-0.2c5.4-0.2,10.7-0.9,15.9-1.9c4.4-0.8,8.7-2.2,12.8-4.1c3.1-1.5,6-3.5,8.4-6.1
			c1.5-1.7,2.8-3.6,3.7-5.6c0.2-0.3,0.3-0.7,0.4-1l0.2-0.7c0.2-0.4,0.2-0.6,0.2-0.6c-0.1,0.2-0.1,0.4-0.2,0.6
			c-0.1,0.2-0.2,0.5-0.2,0.7c-0.1,0.2-0.2,0.6-0.4,1c-0.8,2.1-2,4.1-3.5,5.9c-2.3,2.7-5.2,5-8.3,6.6c-4.1,2.1-8.4,3.7-12.9,4.7
			c-5.3,1.2-10.7,2-16.1,2.4c-5.7,0.5-11.9,0.6-18.1,0.6s-12.8-0.2-19.3-0.6s-13.3-0.8-20-1.2s-13.3-1.1-19.9-1.4s-13-0.8-19.2-1.1
			c-3.2-0.1-6.2-0.3-9.2-0.3s-6-0.1-8.8-0.2h-8.3c-2.7,0.1-5.3,0.1-7.8,0.2c-5,0.2-9.6,0.4-13.7,0.6l-2.9,0.2l-2.8,0.2
			c-1.8,0.2-3.4,0.3-4.8,0.5s-2.8,0.3-3.9,0.5s-2.1,0.3-2.8,0.4C776,229.8,775.2,230,775.3,230"/>
	</g>
</g>
<g class="st1">
	<defs>
		<rect id="SVGID_31_" x="701.3" y="176.5" width="283" height="69.5"/>
	</defs>
	<clipPath id="SVGID_32_" class="st2">
		<use xlink:href="#SVGID_31_"  style="overflow:visible;"/>
	</clipPath>
	<g class="st20">
		<path class="st4" d="M775.2,233.6c0,0,0.8-0.2,2.3-0.6s3.8-0.7,6.7-1.1c1.5-0.3,3.1-0.4,4.8-0.6c0.9-0.1,1.8-0.2,2.8-0.3
			s1.9-0.2,3-0.3c4.1-0.4,8.7-0.7,13.8-1c2.5-0.2,5.2-0.2,7.8-0.3s5.5-0.1,8.4-0.2h8.9l9.3,0.2c3.2,0.1,6.4,0.2,9.6,0.4
			s6.5,0.4,9.9,0.6c6.6,0.4,13.3,1,20,1.4s13.4,1,20,1.3s13.1,0.6,19.3,0.7s12.4,0,18.1-0.4c5.4-0.3,10.7-1,16-2
			c4.5-0.9,8.8-2.2,12.9-4.1c3.2-1.5,6.1-3.5,8.6-6c0.9-0.9,1.8-1.9,2.5-3c0.7-1,1.1-1.8,1.5-2.4c0.1-0.3,0.3-0.6,0.5-0.9
			c0.1-0.2,0.3-0.5,0.3-0.7c0.2-0.4,0.2-0.6,0.2-0.6s-0.1,0.2-0.2,0.6c-0.1,0.2-0.2,0.5-0.2,0.7c-0.2,0.3-0.3,0.7-0.4,1
			c-1,2.1-2.2,4-3.8,5.7c-2.4,2.6-5.3,4.8-8.5,6.5c-4.1,2.1-8.5,3.7-13,4.7c-5.3,1.3-10.7,2.1-16.2,2.5c-5.8,0.5-11.9,0.7-18.2,0.7
			c-6.3,0-12.9-0.2-19.5-0.5s-13.3-0.7-20-1.2s-13.4-1-20-1.4s-13.1-0.8-19.3-1.1c-3.2-0.2-6.2-0.2-9.2-0.3l-8.9-0.2
			c-2.9,0-5.7-0.1-8.4-0.1s-5.3,0-7.8,0.1c-5,0.1-9.6,0.2-13.8,0.5c-1,0.1-2,0.1-3,0.2s-1.9,0.2-2.8,0.2c-1.8,0.1-3.4,0.2-4.8,0.4
			c-2.9,0.3-5.2,0.6-6.8,0.8S775.2,233.7,775.2,233.6"/>
	</g>
</g>
<g class="st1">
	<defs>
		<rect id="SVGID_33_" x="701.3" y="176.5" width="283" height="69.5"/>
	</defs>
	<clipPath id="SVGID_34_" class="st2">
		<use xlink:href="#SVGID_33_"  style="overflow:visible;"/>
	</clipPath>
	<g class="st21">
		<path class="st22" d="M775.1,238c0,0,0.8-0.2,2.3-0.6c0.8-0.2,1.8-0.3,2.9-0.6s2.4-0.4,3.9-0.6s3.1-0.4,4.8-0.6
			c0.9-0.1,1.8-0.2,2.8-0.3s1.9-0.2,3-0.3c2-0.2,4.3-0.4,6.5-0.6s4.8-0.3,7.3-0.4s5.2-0.3,7.9-0.3s5.6-0.1,8.5-0.2h9l9.4,0.2
			c3.2,0.2,6.4,0.3,9.7,0.4s6.5,0.4,9.9,0.6c6.6,0.4,13.4,1,20.1,1.4s13.5,0.9,20.1,1.3s13.2,0.6,19.5,0.6s12.5,0,18.2-0.4
			c5.4-0.3,10.8-1,16.2-2c4.5-0.9,8.9-2.3,13.1-4.1c3.2-1.4,6.2-3.4,8.7-5.9c1.6-1.6,3-3.4,4.1-5.4l0.5-1c0.1-0.2,0.3-0.5,0.3-0.7
			c0.2-0.4,0.2-0.6,0.2-0.6s-0.1,0.2-0.2,0.6c-0.1,0.2-0.2,0.5-0.3,0.7c-0.2,0.3-0.3,0.7-0.4,1c-1,2.1-2.3,4-3.9,5.7
			c-2.5,2.6-5.4,4.8-8.7,6.4c-4.2,2.1-8.6,3.7-13.2,4.7c-5.4,1.2-10.8,2.1-16.3,2.5c-5.8,0.5-12,0.7-18.3,0.8s-12.9-0.2-19.7-0.4
			s-13.4-0.7-20.2-1.2s-13.5-1-20.1-1.5c-3.3-0.2-6.6-0.5-9.9-0.6s-6.5-0.3-9.6-0.6s-6.3-0.2-9.3-0.4l-8.9-0.3
			c-2.9,0-5.7-0.1-8.5-0.1s-5.3,0-7.9,0.1c-5.1,0.1-9.7,0.2-13.8,0.5c-1,0.1-2,0.1-3,0.2s-1.9,0.2-2.8,0.2c-1.8,0.1-3.4,0.2-4.8,0.4
			c-2.9,0.3-5.3,0.6-6.8,0.8C776,237.9,775.1,238,775.1,238"/>
	</g>
</g>
<ellipse class="st23" cx="376.6" cy="575.6" rx="125.5" ry="14.7"/>
<path class="st24" d="M283.1,219.4c-1,0-1.9,0.2-2.8,0.7c-2.3-3.1-6.3-4.5-10-3.5c-1.1-5.1-6-8.3-11.1-7.3c-0.8,0.2-1.6,0.5-2.4,0.8
	c0.3-1.1,0.4-2.3,0.4-3.4c0-8.3-6.7-15-15-15l0,0c-1.4,0-2.8,0.2-4.2,0.6c-1-8.2-8.5-14-16.8-13c-3.4,0.4-6.5,2-8.8,4.4
	c-9-8.4-23.1-8-31.5,1c-2.5,2.7-4.3,5.9-5.3,9.5c-0.5-0.1-1-0.1-1.6-0.1c-5.7,0-11,3.3-13.5,8.4c-1-0.4-2.1-0.6-3.3-0.6
	c-4.7,0-8.6,3.4-9.3,8.1c-1.4-0.9-3.1-1.3-4.8-1.3c-4.4,0-8.3,3.1-9.2,7.5c-0.8-0.2-1.6-0.3-2.5-0.4c-3,0-5.8,1.4-7.6,3.8
	c-0.9-0.4-1.8-0.7-2.8-0.7c-3.5,0-6.3,2.8-6.3,6.3s2.8,6.3,6.3,6.3c1,0,1.9-0.2,2.8-0.7c3,4.1,8.7,5.1,12.9,2.2
	c2.4,4.6,8,6.4,12.6,4.1c0.7-0.4,1.4-0.8,2-1.3c2.3,4.6,8,6.5,12.6,4.1c1.4-0.7,2.6-1.8,3.5-3.1c4,2,8.8,0.9,11.5-2.6
	c0.8,4.5,4.7,7.8,9.3,7.8c1.2,0,2.3-0.2,3.4-0.6c8.9,8.5,23,8.3,31.6-0.6c1.3-1.4,2.5-3,3.4-4.7c1.7,1.3,3.7,2,5.8,2
	c1.4,0,2.8-0.4,4.1-1c2.9,4.3,8.8,5.4,13.1,2.4c1.3-0.9,2.4-2.1,3.1-3.5c3.9,3.4,9.8,3.1,13.3-0.8c0.5-0.6,1-1.3,1.3-2
	c4.2,2.9,9.9,1.9,12.9-2.2c3.1,1.6,6.8,0.3,8.4-2.8c0.4-0.9,0.7-1.8,0.7-2.8C289.4,222.1,286.6,219.3,283.1,219.4
	C283.1,219.4,283.1,219.4,283.1,219.4z"/>
<path class="st25" d="M289.4,225.3c-0.2-3.4-3.1-6.1-6.5-5.9c-0.9,0-1.8,0.3-2.5,0.7c-2.3-3.1-6.3-4.5-10-3.5
	c-1.1-5.1-6-8.3-11.1-7.3c-0.8,0.2-1.6,0.5-2.4,0.8c0.3-1.1,0.4-2.3,0.4-3.4c0-8.3-6.7-15-15-15l0,0c-1.4,0-2.8,0.2-4.2,0.6
	c-1-8.2-8.5-14-16.8-13c-3.4,0.4-6.5,2-8.8,4.4c-9-8.4-23.1-8-31.5,1c-2.5,2.7-4.3,5.9-5.3,9.5c-0.5-0.1-1-0.1-1.6-0.1
	c-5.7,0-11,3.3-13.5,8.4c-1-0.4-2.1-0.6-3.3-0.6c-4.7,0-8.6,3.4-9.3,8.1c-1.4-0.9-3.1-1.3-4.8-1.3c-4.4,0-8.3,3.1-9.2,7.5
	c-0.8-0.2-1.6-0.3-2.5-0.4c-3,0-5.8,1.4-7.6,3.8c-0.9-0.4-1.8-0.7-2.8-0.7c-3.5,0-6.3,2.8-6.3,6.2c0,0,0,0,0,0.1L289.4,225.3
	L289.4,225.3z"/>
<path class="st26" d="M287.8,222.1h-0.2c-1-4-5.1-6.5-9.1-5.5c-0.8,0.2-1.6,0.5-2.3,1c-2.5-5.9-9.4-8.7-15.3-6.1
	c-0.5,0.2-1,0.5-1.5,0.8c-0.7-3.8-4.4-6.2-8.1-5.5c-0.3,0-0.5,0.1-0.8,0.2c-2.5-5.9-9.4-8.7-15.3-6.2c-3.3,1.4-5.8,4.2-6.7,7.7
	c-0.7-1.1-1.7-2-2.9-2.7c0-0.3,0-0.6,0-1c0-5.1-4.2-9.3-9.3-9.2c-4,0-7.5,2.6-8.8,6.4c-2.3,0.1-4.4,0.8-6.3,2.1
	c-3.1-5.7-10.2-7.7-15.9-4.6c-2.2,1.2-4,3.2-5.1,5.5c-3.8-2.1-8.6-1.3-11.4,2c-4-2.1-8.9-1-11.6,2.6c-5.2-3.9-12.5-2.8-16.3,2.4
	c-0.9,1.2-1.5,2.5-1.9,3.8c-1-0.4-2.1-0.6-3.1-0.6c-2.1,0-4.2,0.7-5.9,2.1c-4-3.2-9.8-2.6-13,1.3s-2.6,9.8,1.3,13
	c1.7,1.4,3.7,2.1,5.9,2.1h0.1c0.6,3.2,3.7,5.3,6.8,4.6c2.4-0.5,4.2-2.3,4.6-4.6h0.2c1.4,0,2.8-0.3,4-0.9c2.6,4.4,8.2,5.9,12.6,3.4
	c1.1-0.6,2.1-1.5,2.8-2.5c0.6,0.2,1.2,0.3,1.8,0.3c2.9,0,5.3-2.1,5.8-5h0.1c3.7,5.3,11,6.5,16.2,2.8c0.2-0.1,0.4-0.3,0.5-0.4
	c1.3,2.9,4.7,4.3,7.7,2.9c0.9-0.4,1.6-1,2.2-1.7c2.1,3.5,5.9,5.7,10,5.7c0.6,0,1.3-0.1,1.9-0.2c1.8,4.8,7.2,7.2,12,5.3
	c3.6-1.4,6-4.8,6-8.7c0-0.2,0-0.3,0-0.5l0.4-0.1c3.4,5.5,10.6,7.2,16.1,3.8c2.1-1.3,3.8-3.3,4.7-5.6c1.2,0.9,2.5,1.6,4,2
	c2.1,6.1,8.8,9.3,14.9,7.1c3.5-1.2,6.3-4.1,7.3-7.7c3.2-0.4,6.1-2.1,8-4.7c2.3,2.4,6,3,8.9,1.4c1.8,2.2,5.1,2.6,7.3,0.7
	c2.2-1.8,2.6-5.1,0.7-7.3C290.9,222.8,289.4,222.1,287.8,222.1L287.8,222.1z"/>
<path class="st27" d="M195.9,212.7c0.1,0.7,0,1.4-0.3,2.1c-0.3,0.7-0.6,1.3-1.1,1.8c-2,2.2-5.5,2.3-7.6,0.2
	c-0.1-0.1-0.1-0.1-0.2-0.2c-0.5-0.5-0.9-1.2-1.1-1.8c-0.2-0.7-0.3-1.4-0.3-2.1c0.1,1.4,0.7,2.6,1.7,3.6c2,1.9,5.2,1.9,7.2,0
	C195.2,215.3,195.8,214,195.9,212.7z"/>
<path class="st27" d="M216.6,221.3c0.1,1,0,1.9-0.4,2.8c-0.3,0.9-0.9,1.8-1.5,2.5c-2.8,2.9-7.4,3.1-10.3,0.3
	c-0.1-0.1-0.2-0.2-0.3-0.3c-0.7-0.7-1.2-1.6-1.5-2.5c-0.3-0.9-0.4-1.9-0.4-2.8c0.1,1.8,1,3.6,2.3,4.8c2.7,2.6,7,2.6,9.7,0
	C215.6,224.9,216.4,223.2,216.6,221.3z"/>
<path class="st27" d="M256.1,218.8c0.1,1,0,1.9-0.4,2.8c-1.4,3.8-5.5,5.7-9.3,4.3c-2-0.7-3.6-2.3-4.3-4.3c-0.3-0.9-0.4-1.9-0.4-2.8
	c0.2,1.8,1,3.6,2.3,4.9c2.7,2.5,7,2.5,9.7,0C255.1,222.4,255.9,220.6,256.1,218.8z"/>
<path class="st27" d="M161.8,216c0.1,0.7,0,1.4-0.3,2.1c-1,2.7-4,4.1-6.8,3.1c-0.8-0.3-1.5-0.7-2-1.3c-0.5-0.5-0.9-1.1-1.1-1.8
	c-0.2-0.7-0.3-1.4-0.3-2.1c0.1,1.3,0.7,2.6,1.7,3.5c2,1.8,5,1.8,7,0C161,218.6,161.6,217.4,161.8,216z"/>
<path id="_Path_" class="st28" d="M160.3,519.6c11.5,5.9,25.1,6.8,37.5,3.3c7.4-2.1,14-6.4,18.9-12.4c2.1-2.6,5.6-2.6,8.4-4.6
	c2.8-2,4.9-4.9,6-8.2c0.6-1.9,0.8-4.3-0.6-5.8s-4.1-1.5-6.1-0.6s-3.6,2.4-5.6,3.4c3.7-2.7,5.8-7.1,5.5-11.6c0-1.3-0.5-2.7-1.2-3.8
	c-0.8-1.1-2.1-1.8-3.4-1.6c-1.7,0.2-2.9,1.9-3.5,3.5s-0.8,3.4-1.6,5c-0.9-4.9-5.6-8.1-10.4-7.3c-3.6,0.6-6.5,3.4-7.2,7
	c-0.2-2.5,0.4-5,0.8-7.5s0.3-5.2-0.9-7.4s-4.2-3.5-6.4-2.3c-1.2,0.8-2.1,1.9-2.5,3.3c-1.2,3.5-0.5,7.4,0.3,11
	c0.5-2.9-1.4-5.6-4.3-6.1c-2.9-0.5-5.6,1.4-6.1,4.3c-0.3,1.7,0.3,3.5,1.5,4.7c0.1-5.4-3.2-10.3-8.2-12.2c-2.1-0.7-4.8-0.6-6,1.2
	c-0.9,1.4-0.5,3.3,0.1,4.9c1.2,3.1,3,5.9,5.4,8.1c-9.1-8.8-19.8,10.1-8.9,15.4c-1.6-3.2-6.7-3.3-9.1-0.6s-2.2,7-0.3,10
	C154.1,515.9,157.1,518,160.3,519.6z"/>
<path id="_Path_2" class="st29" d="M182.4,490.5c2.2-1.3,4.7-0.2,6.3,1.5c0.2-3.5,2.5-6.7,6.2-7c2.9-0.2,5.5,2,5.8,4.9
	c0,0.5,0,1.1-0.1,1.6c-0.1,0.5-0.8,0.3-0.7-0.2c0.5-2.5-1.1-5-3.6-5.5c-0.7-0.2-1.5-0.1-2.2,0.1c-3.2,0.8-4.7,3.9-4.6,7l0.2,0.3
	c0,0.2-0.2,0.5-0.4,0.5c-0.2,0-0.4-0.1-0.5-0.4c0,0,0-0.1,0-0.1c-1.2-1.7-3.4-3.2-5.5-2.3c-1.6,0.7-2.4,2.5-1.9,4.2
	c0.1-0.4,0.8-0.2,0.7,0.2l-0.1,0.9c-0.1,0.2-0.3,0.3-0.5,0.3c-0.1,0-0.1,0-0.2-0.1c-1.3-1.8-1-4.3,0.8-5.6
	C182.1,490.6,182.2,490.5,182.4,490.5z"/>
<path id="_Path_3" class="st28" d="M220.9,533.1c-2.8,0.5-6,0.5-8.3,1.8c-6.2,3.5-10.8,8.2-18.3,9c-7.8,0.9-19.6-1.8-25.2-7.6
	c-1.3-1.3-7.6-13.5-7.3-13.5c2.6-0.4,5.2,0.7,6.7,2.8c-1.3-2.1-2.1-4.5-2.3-7c0-2.5,1.8-6.9,5-6.5c2.4,0.3,5.4,5,6.4,7l-1.8-6.6
	c-0.5-1.3-0.6-2.7-0.2-4c0.9-1.9,3-2.8,5-2.1c1.9,0.7,3.4,2.3,4,4.2c0.6,1.9,0.9,3.9,0.9,5.9c-1.1-2.2-0.3-4.8,1.9-6
	c2.2-1.1,4.8-0.3,6,1.9c0.2,0.4,0.3,0.8,0.4,1.2c-0.6-2.9-4-9.5-0.8-11.9c1.2-0.8,2.8-0.7,3.9,0.3c1,1,1.7,2.3,1.7,3.7
	c0,1.4-0.1,2.8-0.4,4.2c-0.2-3.1,2.2-5.8,5.3-6c3.1-0.2,5.8,2.2,6,5.3c0,0.1,0,0.3,0,0.4c0-3.2-0.5-6.5,2.9-8c2.6-1.1,5.5-0.2,7,2.2
	c1.5,2.9,0.3,6.5-2.5,8c5.8-2.9,16.1-0.9,12.1,7.8c-1.2,2.2-2.9,4.1-4.9,5.6c2.1-0.5,3.6,2.6,2.5,4.5
	C225.2,531.9,223.2,532.7,220.9,533.1z"/>
<path id="_Path_4" class="st30" d="M103,558.6c1.4,0.7,2.9,1.1,4.3,1.7h95.2c1.1-2.3,1-5.1-0.2-7.3c-2.4-4-8.6-4.8-12.1-1.9
	c1.9-2,3.1-4.6,3.3-7.3c-2.8-0.6-5.8,0.2-8,2c2.9-2.6,4.6-6.3,4.4-10.2c-0.2-3.9-2.8-7.4-6.6-8.6c-3.7-1.1-8.2,1-9.4,4.6
	c0.3-5.3-3.7-9.9-9-10.3c-4.3-0.3-8.2,2.3-9.7,6.3c-0.6-5.2-1.9-11.4-6.7-13.4c-4.2-1.8-9.2,0.9-11.7,4.7c-2.2,3.4-2.9,7.5-3.4,11.5
	c-0.4-2.5-3.7-4.6-6.1-3.3s-2.8,5.3-0.9,7.5c-4.2-3.3-10.2-2.6-13.5,1.6c-1.7,2.1-2.4,4.9-1.9,7.5c-1-1.8-3.2-2.4-5-1.5
	c-0.1,0-0.1,0.1-0.1,0.1c-2,1.3-2.4,4.2-1.6,6.5s2.5,4,4.1,5.8c-1.1-1.2-2.4-2.2-3.9-2.9c-1.6-0.6-3.3-0.1-4.4,1.2
	C99,554.9,100.9,557.5,103,558.6z"/>
<path id="_Path_5" class="st30" d="M176.8,557.1c2.3,1.2,5.1,1.7,7.1,3.2h115c1.9-3.1,2-6.9,0.3-10.1c-3-4.9-10.6-6-14.9-2.4
	c2.4-2.4,3.8-5.6,4.1-9c-3.5-0.6-7.1,0.3-9.8,2.5c3.6-3.2,5.6-7.8,5.5-12.6c-0.3-4.7-3.5-9.3-8.1-10.6s-10.1,1.2-11.5,5.7
	c0.4-6.6-4.6-12.2-11.2-12.6c-5.2-0.3-10,2.9-11.9,7.8c-0.7-6.4-2.3-14-8.3-16.5c-5.2-2.2-11.4,1.1-14.4,5.8
	c-2.7,4.2-3.6,9.2-4.1,14.2c-0.5-3.1-4.5-5.7-7.5-4c-3.1,1.7-3.4,6.5-1.1,9.2c-5.1-4.1-12.5-3.2-16.6,1.9c-2.1,2.6-3,6-2.4,9.3
	c-0.9-2.1-4.3-3.1-6.3-1.7c-2.4,1.7-2.9,5.2-2,8s3.1,5,5.1,7.1c-1.3-1.5-3-2.7-4.8-3.5c-1.9-0.7-4.3-0.2-5.4,1.5
	C171.9,552.6,174.1,555.8,176.8,557.1z"/>
<path id="_Path_6" class="st31" d="M225.5,527.8c-0.3-1.1-1.3-1.9-2.4-2c-2.3-0.1-4.3,1.6-4.8,3.8c-0.7-1-1.7-1.7-2.8-2.2
	c-1.3-0.5-2.4,0.2-3.5,1c-1.9,1.6-2.2,4.4-0.6,6.4c0.4,0.4,1-0.2,0.6-0.6c-0.5-0.8-0.8-1.8-0.7-2.8c0-1.2,0.8-2.2,1.8-2.7
	c2.2-1.3,4,0.9,5.2,2.5c0.3,0.4,0.9-0.1,0.7-0.5c-0.1-1.8,1.1-3.4,2.8-3.9c1.1-0.4,2.3,0.2,2.7,1.3c0,0.1,0,0.1,0.1,0.2
	c0.3,0.7,1.1,2.4,0.6,3.1c-0.3,0.5,0.4,0.9,0.8,0.4C226.8,530.6,225.9,529,225.5,527.8z"/>
<path id="_Path_7" class="st31" d="M247.1,525.4c-1.1-0.2-2.3,0.1-3.2,0.8c-0.2-2.6-0.9-5.9-3.5-5.7c-2.2,0.2-5.4,3.4-3.8,5.6
	c0.3,0.5,1.1,0,0.8-0.4c-1.4-2,2.9-5.8,4.5-3.5c0.8,1.6,1.3,3.3,1.2,5.1c-0.2,0.3-0.3,0.7-0.3,1.1c0,0.5,0.6,0.5,0.8,0.2
	c0.2,0,0.4-0.2,0.4-0.4c0-0.2,0-0.5,0-0.7c0.5-0.8,1.4-1.2,2.3-1.2c0.9,0,3.1,0.8,1.9,1.9c-0.4,0.4,0.2,1,0.6,0.6
	C250.2,527.4,248.7,525.6,247.1,525.4z"/>
<path id="_Path_8" class="st31" d="M262.7,525.1c-2.2,0.1-4,1.8-4.4,4c-0.1,0.5,0.7,0.8,0.9,0.2c0.2-1.6,1.4-2.9,3-3.3
	c1.7-0.3,3.3,0.9,3.6,2.6c0,0.1,0,0.2,0,0.3c0,0.6,0.9,0.6,0.9,0C266.6,526.8,264.8,525.1,262.7,525.1z"/>
<path id="_Path_9" class="st31" d="M174,560.3h50.2l0.2-0.1c2.6-1.5,4.4-4,5.1-6.9c0.7-3-0.5-6-2.9-7.8c-1.8-1.1-4.1-1.1-5.9,0
	c1.7-2.8,1.2-6.9-1.5-8.8c-3-2.1-7.7-0.7-9.4,2.5c0.7-1.8,1.2-3.7,1.3-5.7c0.2-2.5-0.8-4.9-2.7-6.5c-3.1-2.3-7.8-0.9-10.3,2.1
	s-3.3,6.9-4.1,10.7c0.5-2.7,0.9-5.5,0.2-8.2s-2.9-5.2-5.6-5.3c-3.1-0.1-5.5,2.6-6.8,5.4c-2.2,4.6-2.7,9.8-1.3,14.8
	c-1.1-1.9-2.4-3.9-4.3-5s-4.7-1.1-6,0.6c-1.1,1.4-0.9,3.4-0.4,5.1c0.8,2.5,2.2,4.8,4.2,6.6c-2.1-1-4.4-1.4-6.8-1.2
	c-0.4,0,3.2,5.5,3.7,6C171.9,559.2,172.9,559.9,174,560.3z"/>
<path id="_Path_10" class="st30" d="M204.6,540.6c-0.7-0.9-2.1-1.1-3-0.3c0,0-0.1,0.1-0.1,0.1c-0.4-1.8-1.8-3.2-3.5-3.6
	c-1.6-0.2-3,1.2-3.5,2.8c-0.7-0.6-1.8-0.7-2.6-0.3c-1.7,0.8-2.6,3.4-1.2,4.8c0.4,0.4,1-0.2,0.6-0.6c-0.9-0.9-0.3-2.5,0.6-3.2
	c0.7-0.5,1.8-0.5,2.4,0.2c0,0.3,0,0.6,0,0.8c0,0.1,0.1,0.3,0.3,0.3l0,0c-0.1,0.6,0.7,0.8,0.9,0.2c0.1-0.5,0.1-1.1-0.2-1.6
	c0.3-1.5,2-3.2,3.4-2.4c1.1,0.6,2.4,2,2.1,3.3c-0.1,0.6,0.8,0.8,0.9,0.2c0,0,0-0.1,0-0.1c0.2,0.1,0.4,0,0.5-0.2c0,0,0,0,0,0
	c0.3-0.5,1-0.7,1.5-0.4c0.1,0.1,0.2,0.1,0.3,0.2c0.3,0.3,0.5,0.7,0.6,1.2c0,0.1,0.2,1.4,0,1.4c-0.6,0-0.6,0.8,0,0.9
	C206.1,544.5,205.2,541.2,204.6,540.6z"/>
<path id="_Path_11" class="st30" d="M190.2,549.9c-0.3-1.5-1.8-2.4-3.3-2.1c-0.8,0.2-1.5,0.7-1.8,1.4c-0.8-0.8-2.1-0.8-2.9,0.1
	c-0.7,0.7-0.8,1.7-0.2,2.5c0.1,0.2,0.4,0.3,0.6,0.1c0.2-0.1,0.2-0.4,0.1-0.6c-1.1-1.9,1.9-2.5,2.2-0.7c0.1,0.5,0.9,0.4,0.9-0.1
	c-0.1-1,0.7-1.9,1.7-2c0.9-0.1,1.8,0.6,2,1.5c0.1,0.2,0.3,0.4,0.5,0.3S190.2,550.2,190.2,549.9z"/>
<path id="_Path_12" class="st31" d="M161.6,536.5c-0.5-0.8-1.2-1.3-2.1-1.5c-1.3-0.4-2.7-0.1-3.7,0.8c-0.1-2-3.4-3.9-5.1-3.9
	c-2.9,0-4.7,2.4-5.3,5c-1.2-1.1-3.1-1.1-4.2,0.1c-0.1,0.1-0.1,0.1-0.2,0.2c-1.5,2-1.4,4.8,0.3,6.6c0.4,0.4,1-0.2,0.6-0.6
	c-1-1.1-1.4-2.8-0.9-4.2c0.3-1.1,1.2-1.9,2.3-2.1c0.9-0.1,1.7,0.5,2,1.3c0,0.1,0,0.1,0,0.2c0,0.1,0.1,0.3,0.2,0.3c0,0,0,0,0,0.1
	c0.1,0.5,1,0.3,0.9-0.2c0-0.2-0.1-0.4-0.1-0.5c0.2-2,1-4.1,3-4.9c1.1-0.5,2.5-0.4,3.5,0.2c0.8,0.4,2.8,2.2,2.1,3.2
	c-0.2,0.2-0.1,0.5,0.1,0.7c0,0,0,0,0,0c0,0.2,0.3,0.4,0.5,0.4c0.1,0,0.2-0.1,0.3-0.2c0.6-1.1,1.9-1.8,3.1-1.6
	c0.8,0.1,1.5,0.5,1.9,1.1c0.3,0.8,0.2,1.7-0.2,2.5c-0.2,0.5,0.6,0.8,0.9,0.2C161.8,538.6,161.9,537.5,161.6,536.5z"/>
<path id="_Path_13" class="st31" d="M162.9,547.5c-0.8-1-2.3-1.1-3.3-0.3c-0.3,0.3-0.6,0.7-0.7,1.1c-1-1-2.3-1.9-3.7-1
	c-1.7,1.1-1.5,3.3-0.8,4.9c0.2,0.5,1,0.1,0.8-0.5c-0.5-1.2-0.8-3.3,0.9-3.8c1.2-0.3,2.2,0.9,2.9,1.7c0.1,0.5,0.9,0.3,0.8-0.3
	c-0.2-0.8,0.4-1.6,1.1-1.7c0.5-0.1,1.1,0.1,1.4,0.5C162.6,548.5,163.3,547.9,162.9,547.5z"/>
<path id="_Path_14" class="st29" d="M200.3,513.6c-0.7-1-2.2-1.3-3.2-0.6c-0.3,0.2-0.5,0.5-0.7,0.8c-0.6-1.1-1.9-2.2-3.2-1.8
	c-0.7,0.3-1.2,0.8-1.5,1.5c-0.5,0.6-0.5,1.4-0.2,2.1c0.2,0.3,0.7,0,0.5-0.3c-0.2-0.6-0.1-1.3,0.4-1.7c0.4-0.6,0.9-1.1,1.7-0.9
	c0.9,0.3,1.7,1,2,1.9v0.1c0,0.1,0,0.2,0,0.3c0,0.4,0.6,0.4,0.6,0c0-0.9,0.8-1.7,1.7-1.7c0.5,0,1,0.3,1.4,0.7
	C200.1,514.2,200.6,513.9,200.3,513.6z"/>
<path id="_Path_15" class="st29" d="M213.3,511.8c-0.4-0.4-1-0.4-1.4-0.1c-0.2-1.5-0.8-3.5-2.4-3.5c-1.6,0-3,1.3-3.1,2.9
	c0,0.4,0.6,0.4,0.6,0c0.1-1.2,1.3-2.6,2.6-2.2s1.5,2.3,1.6,3.5c0,0,0,0.1,0,0.1c-0.1,0.1,0,0.3,0.1,0.4c0,0,0.1,0,0.2,0
	c0.1,0.1,0.3,0,0.4-0.1c0,0,0-0.1,0-0.1c0,0,0-0.1,0-0.1c0.2-0.3,0.5-0.6,0.9-0.3c0.1,0.1,0.7,1,0.4,1.1s0,0.7,0.3,0.5
	C214.3,513.4,213.7,512.3,213.3,511.8z"/>
<path id="_Path_16" class="st29" d="M182.2,519.2c-0.3,0-0.5,0.2-0.7,0.4c-0.3-0.5-0.6-1-1-1.5c-0.6-0.7-1.6-0.9-2.5-0.4
	c-1.4,0.6-2.2,2.8-0.4,3.5c0.4,0.1,0.5-0.4,0.2-0.6c-0.6-0.3-0.8-0.9-0.6-1.5c0-0.1,0.1-0.2,0.2-0.2c0.3-0.4,0.8-0.7,1.3-0.8
	c0.7-0.1,1.4,0.2,1.7,0.8c0.3,0.4,1,1.3,0.8,1.8c-0.1,0.4,0.5,0.5,0.6,0.2l0,0c0.1,0,0.2-0.2,0.2-0.3c-0.1-0.3,0.1-0.7,0.4-0.8
	c0,0,0,0,0,0c0.3,0,0.6,0.2,0.7,0.5c0,0.4,0.6,0.4,0.6,0c0-0.7-0.5-1.2-1.2-1.2C182.4,519.2,182.3,519.2,182.2,519.2z"/>
<path id="_Path_17" class="st28" d="M540.7,550.4c-11,5.6-24,6.5-35.8,3.2c-7.1-2-13.4-6.2-18.1-11.8c-2-2.5-5.4-2.5-8-4.4
	c-2.7-1.9-4.7-4.7-5.8-7.9c-0.6-1.8-0.7-4.1,0.6-5.5s3.9-1.5,5.8-0.6s3.5,2.3,5.4,3.2c-3.5-2.5-5.5-6.7-5.3-11.1
	c0-1.3,0.5-2.5,1.2-3.6c0.7-1.1,2-1.7,3.3-1.6c1.7,0.2,2.8,1.8,3.4,3.4s0.7,3.3,1.5,4.8c0.9-4.7,5.4-7.8,10.1-6.9
	c3.4,0.6,6.1,3.3,6.8,6.6c0-2.4-0.3-4.8-0.8-7.2c-0.3-2.4-0.3-5,0.9-7s4-3.4,6.2-2.2c1.2,0.7,2,1.8,2.4,3.2c1.2,3.4,0.5,7-0.3,10.5
	c-0.5-2.7,1.4-5.3,4.1-5.8s5.3,1.4,5.8,4.1c0.3,1.6-0.3,3.2-1.4,4.4c-0.1-5.2,3.1-9.8,7.9-11.6c2-0.7,4.6-0.6,5.7,1.1
	c0.9,1.4,0.5,3.2-0.1,4.7c-1.1,2.9-2.9,5.6-5.2,7.8c8.7-8.4,19,9.6,8.5,14.8c1.5-3.1,6.4-3.2,8.7-0.6s2.1,6.7,0.3,9.6
	S543.8,548.8,540.7,550.4z"/>
<path id="_Path_18" class="st30" d="M503.5,566.1c0.9,0.5,2,0.8,3,1.2h90.3c0.8-2.1,0.7-4.4-0.4-6.4c-2.3-3.7-8-4.5-11.3-1.8
	c1.8-1.9,2.9-4.3,3.1-6.9c-2.6-0.5-5.4,0.2-7.5,1.9c2.7-2.4,4.3-5.9,4.1-9.6c-0.2-3.7-2.6-6.9-6.1-8.1c-3.5-1-7.7,0.9-8.8,4.3
	c0.5-4.9-3.2-9.3-8.1-9.8c-4.2-0.4-8.1,2.2-9.4,6.2c-0.5-4.9-1.7-10.7-6.3-12.5c-4-1.6-8.7,0.8-11,4.4c-2,3.2-2.7,7-3.1,10.8
	c-0.3-2.3-3.4-4.3-5.7-3.1s-2.6,5-0.9,7c-3.9-3-9.6-2.3-12.6,1.6c-1.5,2-2.2,4.5-1.8,6.9c-0.9-1.7-3-2.3-4.7-1.4c0,0-0.1,0-0.1,0.1
	c-1.8,1.3-2.2,3.9-1.5,6c0.9,2.1,2.2,3.9,3.9,5.4c-1-1.2-2.3-2.1-3.7-2.7c-1.5-0.6-3.1-0.1-4.1,1.1
	C499.8,562.7,501.6,565.1,503.5,566.1z"/>
<path id="_Path_19" class="st30" d="M529.5,564c2.4,1.2,5.3,1.7,7.4,3.3h118.8c1.9-3.2,2-7.2,0.3-10.4c-3.1-5.1-10.9-6.2-15.4-2.5
	c2.5-2.5,4-5.8,4.2-9.3c-3.6-0.7-7.3,0.3-10.1,2.6c3.7-3.3,5.8-8,5.6-13c-0.3-4.9-3.7-9.6-8.4-11s-10.4,1.2-11.9,5.9
	c0.4-6.8-4.8-12.6-11.5-13c-5.4-0.3-10.4,2.9-12.3,8c-0.8-6.7-2.4-14.5-8.5-17.1c-5.4-2.2-11.8,1.1-14.9,6
	c-2.8,4.3-3.7,9.5-4.3,14.7c-0.5-3.2-4.7-5.8-7.7-4.2c-3.3,1.8-3.5,6.8-1.2,9.5c-5.3-4.2-13-3.3-17.1,2c-2.1,2.7-3,6.2-2.5,9.6
	c-0.9-2.2-4.4-3.2-6.5-1.7c-2.5,1.7-3,5.3-2.1,8.2s3.2,5.2,5.3,7.3c-1.4-1.6-3.1-2.8-5-3.7c-2-0.7-4.5-0.2-5.5,1.5
	C524.4,559.3,526.8,562.6,529.5,564z"/>
<path id="_Path_20" class="st31" d="M579.8,533.7c-0.3-1.1-1.3-2-2.5-2.1c-2.4-0.1-4.5,1.6-4.9,4c-0.8-1-1.7-1.8-2.9-2.3
	c-1.3-0.5-2.5,0.2-3.6,1c-2,1.7-2.2,4.6-0.6,6.6c0.4,0.5,1-0.2,0.6-0.6c-0.5-0.9-0.8-1.9-0.7-2.9c0-1.2,0.8-2.3,1.9-2.8
	c2.2-1.3,4.1,1,5.4,2.6c0.3,0.4,0.9-0.1,0.7-0.5c-0.1-1.8,1.1-3.5,2.9-4c1.1-0.4,2.4,0.2,2.8,1.3c0,0.1,0,0.1,0.1,0.2
	c0.3,0.8,1.1,2.5,0.6,3.2c-0.3,0.5,0.5,1,0.8,0.5C581.2,536.6,580.3,534.9,579.8,533.7z"/>
<path id="_Path_21" class="st31" d="M602.2,531.2c-1.2-0.2-2.4,0.1-3.3,0.8c-0.2-2.7-1-6.1-3.7-5.9c-2.3,0.2-5.5,3.5-3.9,5.8
	c0.3,0.5,1.1,0,0.8-0.5c-1.5-2,3-6,4.7-3.6c0.9,1.6,1.3,3.4,1.2,5.2c-0.2,0.4-0.3,0.7-0.3,1.1c0,0.5,0.6,0.6,0.8,0.2
	c0.2,0,0.4-0.2,0.4-0.4c0-0.2,0-0.5,0-0.8c0.6-0.8,1.4-1.2,2.4-1.2c0.9,0,3.2,0.8,1.9,2c-0.4,0.4,0.2,1,0.7,0.6
	C605.3,533.3,603.8,531.5,602.2,531.2z"/>
<path id="_Path_22" class="st31" d="M618.2,530.9c-2.3,0.1-4.2,1.8-4.5,4.1c-0.1,0.6,0.8,0.8,0.9,0.2c0.2-1.7,1.5-3,3.1-3.4
	c1.8-0.3,3.4,0.9,3.7,2.7c0,0.1,0,0.2,0,0.3c0,0.6,1,0.6,0.9,0C622.2,532.7,620.4,530.9,618.2,530.9z"/>
<path id="_Path_23" class="st31" d="M454.6,565.5c0.3,0.6,0.6,1.2,1,1.8h71.2c0.5-0.3,1-0.7,1.5-1.1c1.8-1.6,2.7-4.4,1.5-6.5
	c-1-1.6-2.8-2.5-4.7-2.4c-1.9,0.1-3.7,0.6-5.3,1.5c2.8-1.9,4.7-4.7,5.3-8c0.5-3.3-1.1-6.9-4-8.3s-7.1,0-8.1,3.2
	c0.7-2.5,1.1-5.1,1.1-7.8c0-2.7-1.2-5.2-3.2-6.9c-3-2.4-7.6-1.8-11,0c-4.8,2.7-8.1,7.5-8.8,13c-0.9-2.6,0.1-5.5,0.2-8.3
	s-1.5-6.2-4.3-6c-1.8,0.1-3.1,1.7-4.1,3.2c-3.4,5.3-5.5,11.3-6.2,17.5c-4-3.8-4.1-11.5-9.3-13c-3.7-1.1-7.5,2-8.6,5.7
	s-0.2,7.6,0.7,11.4c-0.8-2.1-1.7-4.3-3.3-5.8s-4.4-2.1-6.1-0.8c-2.2,1.7-1.8,5-0.8,7.5C450.6,559.1,453,562.2,454.6,565.5z"/>
<path id="_Path_24" class="st30" d="M503.6,547.9c-0.6-0.5-1.5-0.6-2.2-0.4c0.5-2.8,0.1-6.2-3.4-6c-2.3,0.2-4.3,1.7-5.1,3.9
	c-0.6-1.3-2-2.1-3.5-1.9c-2.4,0.3-3.3,2.5-3.1,4.7c0,0.6,1,0.6,0.9,0c-0.1-1.1,0-2.8,1.3-3.4c1.3-0.7,2.9-0.2,3.6,1.1
	c0.2,0.5,0.4,1,0.3,1.5c0,0.3,0.3,0.4,0.5,0.4c0.2,0,0.4-0.2,0.4-0.4c0.1-2.1,1.5-3.9,3.4-4.6c4-1.5,4.2,2.7,3.6,5.3
	c-0.1,0.1-0.2,0.2-0.3,0.3c-0.4,0.5,0.3,1.1,0.6,0.7l0.1-0.1c0.2,0,0.3-0.1,0.3-0.3c0.6-0.4,1.3-0.4,1.9,0c0.8,0.6,1,1.7,0.4,2.6
	c-0.1,0.2-0.1,0.5,0.2,0.6c0.2,0.1,0.5,0.1,0.6-0.2C504.9,550.4,504.7,548.8,503.6,547.9z"/>
<path id="_Path_25" class="st30" d="M474.7,548.8c-2-0.5-2.8,1.3-3.1,3c-0.9-1.5-2.2-3.2-3.9-2.1c-2,1.3-1.3,4.2,0.1,5.6
	c0.2,0.2,0.5,0.2,0.6,0s0.2-0.5,0-0.6c-0.6-0.5-0.9-1.2-1-1.9c-0.1-1,0.3-3.2,2.3-1.9c0.8,0.5,1.4,2,1.8,2.8
	c0.1,0.2,0.4,0.3,0.6,0.1c0.1-0.1,0.2-0.2,0.2-0.4c0-1.2-0.1-3,1.2-3.6c2-0.8,2.6,2.5,2,3.4c-0.1,0.2-0.1,0.5,0.2,0.6
	c0.2,0.1,0.5,0.1,0.6-0.2C477.3,552.3,476.6,549.2,474.7,548.8z"/>
<path id="_Path_26" class="st30" d="M500.9,557.7c-1.6,0.5-3.6,2.5-3,4.3c0.2,0.5,1.1,0.3,0.9-0.3c-0.4-1.2,1.1-2.7,2.2-3.1
	c1.1-0.4,2.3,0.2,2.6,1.3c0,0.1,0.1,0.3,0.1,0.5c0.1,0.6,1,0.3,0.9-0.2c-0.2-1.6-1.8-2.8-3.4-2.5C501,557.7,500.9,557.7,500.9,557.7
	z"/>
<path id="_Path_27" class="st31" d="M593.1,565.5c0.3,0.6,0.6,1.2,1,1.8h71.2c0.5-0.3,1-0.7,1.5-1.1c1.8-1.6,2.7-4.4,1.5-6.5
	c-1-1.6-2.8-2.5-4.7-2.4c-1.9,0.1-3.7,0.6-5.3,1.5c2.8-1.8,4.7-4.7,5.3-8c0.5-3.3-1.1-6.9-4-8.3s-7.1,0-8.1,3.2
	c0.7-2.5,1.1-5.1,1.1-7.8c0-2.7-1.2-5.2-3.2-6.9c-3-2.4-7.6-1.8-11,0c-4.8,2.7-8.1,7.5-8.8,13c-0.9-2.6,0.1-5.5,0.2-8.3
	s-1.5-6.2-4.3-6c-1.8,0.1-3.1,1.7-4.1,3.2c-3.4,5.3-5.5,11.3-6.2,17.5c-4-3.8-4.1-11.5-9.3-13c-3.7-1.1-7.5,2-8.6,5.7
	s-0.2,7.6,0.7,11.4c-0.8-2.1-1.7-4.3-3.3-5.8s-4.4-2.1-6.1-0.8c-2.2,1.7-1.8,5-0.8,7.5C589.2,559.1,591.5,562.2,593.1,565.5z"/>
<path id="_Path_28" class="st30" d="M642.1,547.9c-0.6-0.5-1.5-0.6-2.2-0.4c0.5-2.8,0.2-6.2-3.4-6c-2.3,0.2-4.3,1.7-5.1,3.9
	c-0.6-1.3-2-2.1-3.5-1.9c-2.3,0.3-3.3,2.5-3.1,4.7c0,0.6,1,0.6,0.9,0c-0.1-1.1,0-2.8,1.3-3.4c1.3-0.7,2.9-0.2,3.6,1.1
	c0.2,0.5,0.4,1,0.3,1.5c0,0.3,0.3,0.4,0.5,0.4c0.2,0,0.4-0.2,0.4-0.4c0.1-2.1,1.5-3.9,3.4-4.6c4-1.5,4.2,2.7,3.6,5.3
	c-0.1,0.1-0.2,0.2-0.3,0.3c-0.4,0.5,0.3,1.1,0.6,0.7l0.1-0.1c0.2,0,0.3-0.1,0.3-0.3c0.6-0.4,1.3-0.4,1.9,0c0.8,0.6,1,1.7,0.4,2.6
	c-0.1,0.2-0.1,0.5,0.2,0.6c0.2,0.1,0.5,0.1,0.6-0.2C643.4,550.4,643.2,548.8,642.1,547.9z"/>
<path id="_Path_29" class="st30" d="M613.2,548.8c-2-0.5-2.8,1.3-3.1,3c-0.9-1.5-2.2-3.2-3.9-2.1c-2,1.3-1.3,4.2,0.1,5.6
	c0.2,0.2,0.5,0.2,0.6,0s0.2-0.5,0-0.6c-0.6-0.5-0.9-1.2-1-1.9c-0.1-1,0.3-3.2,2.3-1.9c0.8,0.5,1.3,2,1.8,2.8
	c0.1,0.2,0.4,0.3,0.6,0.1c0.1-0.1,0.2-0.2,0.2-0.4c0-1.2-0.1-3,1.2-3.6c2-0.8,2.6,2.5,2,3.4c-0.1,0.2-0.1,0.5,0.2,0.6
	c0.2,0.1,0.5,0.1,0.6-0.2C615.8,552.3,615.1,549.2,613.2,548.8z"/>
<path id="_Path_30" class="st30" d="M639.4,557.7c-1.6,0.5-3.6,2.5-3,4.3c0.2,0.5,1.1,0.3,0.9-0.3c-0.4-1.2,1.2-2.7,2.2-3.1
	c1.1-0.4,2.3,0.2,2.6,1.3c0,0.1,0.1,0.3,0.1,0.5c0.1,0.6,1,0.3,0.9-0.2c-0.2-1.6-1.8-2.8-3.4-2.5
	C639.6,557.7,639.5,557.7,639.4,557.7z"/>
<path id="_Path_31" class="st31" d="M545.8,540.3c-1-0.4-2.1-0.4-3,0.2c-0.5-2-2.5-3.2-4.5-2.8c-2.4,0.7-4.2,2.7-4.5,5.2
	c-0.8-1.1-2.3-1.4-3.4-0.6c-0.1,0.1-0.3,0.2-0.4,0.3c-1.6,1.4-1.7,3.8-0.2,5.4c0,0,0.1,0.1,0.1,0.1c0.4,0.4,1-0.2,0.6-0.7
	c-1.1-1.1-1.1-2.9-0.1-4c0.5-0.6,1.3-0.9,2-0.6c0.5,0.4,0.9,0.8,1.2,1.4v0.1c0,0.3,0.3,0.4,0.5,0.4c0.2,0,0.4-0.2,0.4-0.4
	c-0.1-2.1,0.9-4.1,2.6-5.3c2-1.2,4.4-0.2,4.7,2c-0.3,0.3-0.4,0.9,0,1.2c0.1,0.1,0.2,0.2,0.3,0.2c0.2,0.1,0.5,0,0.6-0.3
	c0-0.1,0.1-0.2,0-0.3c0,0,0,0,0,0s0-0.2,0-0.3c0.4-0.2,1-0.5,1.1-0.5c0.8-0.2,1.6,0.1,2.1,0.7c0.8,0.8,1.9,2.7,0.5,3.5
	c-0.2,0.1-0.3,0.4-0.2,0.6c0.1,0.2,0.4,0.3,0.6,0.2C549.5,544.6,547.7,541.2,545.8,540.3z"/>
<path id="_Path_32" class="st31" d="M466.9,556c-0.4-0.8-0.4-1.5-1.2-2.1c-1-0.6-2.2-0.9-3.4-0.8c-2.4,0-3,2-3.8,4
	c-0.2,0.5,0.7,0.8,0.9,0.2c0.6-1.7,1.2-3.4,3.4-3.3c1.2,0.1,2.4,0.2,2.9,1.4c0.2,0.4,0.2,0.7,0.4,1.1c-0.1,0.1-0.2,0.3-0.3,0.4
	c-0.3,0.5,0.5,1,0.8,0.5c0.6-1.2,3.8-0.8,3.1,0.7c-0.2,0.5,0.5,1,0.8,0.5C471.5,556.4,468.6,555.2,466.9,556z"/>
<path id="_Path_33" class="st29" d="M519.7,522.5c-2.1-1.3-4.5-0.2-6.1,1.5c-0.2-3.3-2.4-6.4-6-6.7c-2.8-0.2-5.3,1.9-5.5,4.7
	c0,0.5,0,1,0.1,1.5c0.1,0.4,0.8,0.3,0.7-0.2c-0.5-2.4,1.1-4.8,3.5-5.3c0.7-0.1,1.5-0.1,2.2,0.1c3.1,0.8,4.5,3.8,4.4,6.7l-0.2,0.3
	c-0.1,0.2,0,0.4,0.1,0.5c0.1,0.1,0.3,0.1,0.4,0c0.2,0,0.3-0.2,0.3-0.3c0,0,0-0.1,0-0.1c1.1-1.7,3.3-3,5.3-2.2
	c1.5,0.6,2.3,2.4,1.8,3.9c-0.1-0.4-0.7-0.2-0.7,0.2s0.1,0.6,0.1,0.9c0.1,0.2,0.3,0.3,0.4,0.2c0.1,0,0.1,0,0.2-0.1
	c1.3-1.7,1-4-0.7-5.3C519.9,522.7,519.8,522.6,519.7,522.5z"/>
<path class="st32" d="M188.1,471v39.5c0,3.8,3.1,6.9,6.9,6.9h363.1c3.8,0,6.9-3.1,6.9-6.9V471H188.1z"/>
<path class="st33" d="M565,252.7c0-3.8-3.1-6.9-6.9-6.9H195c-3.8,0-6.9,3.1-6.9,6.9V471H565V252.7z"/>
<rect x="312.5" y="517.4" class="st34" width="129.6" height="39.8"/>
<rect x="281.4" y="557.2" class="st32" width="190.2" height="18.6"/>
<rect x="312.5" y="517.4" class="st35" width="129.6" height="14.4"/>
<rect x="207.6" y="265.4" class="st7" width="338" height="185.5"/>
<polygon class="st33" points="340.7,301.8 317.2,325.3 293.7,301.8 284.3,311.2 307.8,334.7 284.3,358.3 293.7,367.7 317.2,344.1 
	340.7,367.7 350.1,358.3 326.6,334.7 350.1,311.2 "/>
<polygon class="st33" points="468.8,311.2 459.4,301.8 435.9,325.3 412.4,301.8 403,311.2 426.5,334.7 403,358.3 412.4,367.7 
	435.9,344.1 459.4,367.7 468.8,358.3 445.3,334.7 "/>
<path class="st33" d="M426.9,425.1c-49.8-34.4-100.2-0.4-100.7,0l-6.5-9.5c0.6-0.4,57.5-38.8,113.8,0L426.9,425.1z"/>
<path class="st24" d="M520,204.7c0-4.6-3.7-8.3-8.3-8.3c-0.8,0-1.6,0.1-2.4,0.3c0.1-0.6,0.1-1.2,0.1-1.8c0-7.2-5.9-13.1-13.1-13.1
	c-5.4,0-10.2,3.3-12.2,8.4c-1.5-0.4-3.1-0.6-4.7-0.6c-7.8,0-14.8,4.5-18.2,11.5c-3.5,0.6-6.7,2.6-8.7,5.5c-4.1-2.1-9.1-0.6-11.3,3.5
	s-0.6,9.1,3.5,11.3c1.2,0.6,2.5,1,3.9,1c1.4,0,2.7-0.4,3.9-1c3.3,5,9.6,7,15.3,4.9c7.5,5.3,17.7,4.9,24.7-1.1
	c5.2,5,13.5,4.9,18.5-0.3c2.4-2.4,3.7-5.7,3.7-9.1c0-1.1-0.1-2.1-0.4-3.2C517.7,211.5,520,208.3,520,204.7z"/>
<path class="st25" d="M516.8,211.3c3.6-2.8,4.3-8,1.5-11.7c-2.1-2.7-5.6-3.9-8.9-2.9c0.1-0.6,0.1-1.2,0.1-1.8
	c0-7.2-5.9-13.1-13.1-13.1c-5.4,0-10.2,3.3-12.2,8.4c-1.5-0.4-3.1-0.6-4.7-0.6c-7.8,0-14.8,4.5-18.2,11.5c-3.5,0.6-6.7,2.6-8.7,5.5
	c-4.1-2.2-9.1-0.6-11.3,3.5c-0.2,0.4-0.4,0.8-0.5,1.2L516.8,211.3z"/>
<path class="st26" d="M517.2,203.6L517.2,203.6c0-0.2,0-0.4,0-0.5c-0.1-5-4.2-8.9-9.1-8.9c-3.5,0.1-6.6,2.1-8.1,5.3
	c-1.6-1.5-3.9-2-6-1.3c-1.8-4.1-6.5-6-10.6-4.2c-1.8,0.8-3.2,2.2-4.1,4c-4-5.3-11.6-6.3-16.8-2.2c-2.6,2-4.3,5-4.6,8.2
	c-3.9-1.9-8.6-0.5-10.7,3.4c-2.1-2.4-5.8-2.6-8.2-0.5c-2.4,2.1-2.6,5.8-0.5,8.2c2.1,2.4,5.8,2.6,8.2,0.5c0.2-0.1,0.3-0.3,0.5-0.5
	c2.1,3.9,7.1,5.4,11,3.2c0.9-0.5,1.7-1.1,2.3-1.9c0.5,4.4,4.5,7.6,9,7.1c2.6-0.3,4.9-1.8,6.1-4.1c3.8,5.4,11.3,6.7,16.7,2.8
	c0.5-0.4,1-0.8,1.5-1.2c3.7,5.5,11.1,7.1,16.6,3.4c3.2-2.1,5.2-5.6,5.4-9.4c0.5,0.1,1,0.2,1.4,0.2c3.2,0,5.8-2.6,5.8-5.8
	C523,206.1,520.4,203.5,517.2,203.6L517.2,203.6z"/>
<path class="st27" d="M482.8,203.8c0,0.5,0,1.1-0.2,1.6c-0.2,0.5-0.5,1-0.8,1.4c-1.5,1.6-4,1.7-5.7,0.2c-0.1-0.1-0.1-0.1-0.2-0.2
	c-0.4-0.4-0.7-0.9-0.9-1.4c-0.2-0.5-0.2-1-0.2-1.6c0.1,1,0.5,2,1.3,2.7c1.5,1.4,3.9,1.4,5.4,0C482.3,205.8,482.7,204.8,482.8,203.8z
	"/>
<path class="st27" d="M505.5,208c0.1,0.9,0,1.7-0.3,2.5c-0.3,0.8-0.8,1.6-1.4,2.2c-2.5,2.6-6.6,2.7-9.2,0.3
	c-0.1-0.1-0.2-0.2-0.3-0.3c-0.6-0.6-1.1-1.4-1.4-2.2c-0.3-0.8-0.4-1.7-0.3-2.5c0.1,1.7,0.9,3.2,2.1,4.3c2.4,2.3,6.2,2.3,8.7,0
	C504.7,211.2,505.4,209.7,505.5,208z"/>
<path class="st27" d="M464.6,207.4c0.1,0.7,0,1.4-0.3,2c-0.2,0.6-0.6,1.2-1.1,1.7c-1.9,2-5,2.2-7.1,0.3c-0.6-0.6-1.1-1.3-1.3-2
	c-0.2-0.6-0.3-1.3-0.3-2c0.1,1.3,0.7,2.5,1.6,3.4c1.9,1.8,4.8,1.8,6.7,0C463.9,209.9,464.5,208.7,464.6,207.4z"/>
<path class="st24" d="M670.8,242.6c-0.1,0-0.3,0-0.4,0c-1.7-6.6-8.5-10.6-15.1-8.8c-1.1,0.3-2.1,0.7-3,1.2c-1.2-2.1-2.7-3.9-4.4-5.5
	c3.1-6.1,0.6-13.6-5.5-16.6c-3.8-1.9-8.2-1.7-11.8,0.4c-5.9-10.5-19.2-14.2-29.7-8.3c-2.5,1.4-4.7,3.3-6.5,5.6
	c-11.2-4.5-23.9,0.9-28.3,12.1c-0.2,0.6-0.5,1.2-0.7,1.9c-5.8,1.4-10.8,5.2-13.8,10.4c-5.9-3.4-13.5-1.3-16.9,4.6c0,0,0,0,0,0.1
	c-3.4-1.8-7.6-0.5-9.4,2.9c-1.8,3.4-0.5,7.6,2.9,9.4c2,1.1,4.5,1.1,6.5,0c3.4,6,10.9,8.1,16.9,4.7c0,0,0,0,0.1,0
	c5.9,10.5,19.2,14.2,29.6,8.3c2-1.1,3.8-2.6,5.4-4.3c8.1,8.9,21.9,9.4,30.7,1.3c0.2-0.2,0.5-0.4,0.7-0.7c8.5,8.5,22.3,8.5,30.8,0
	c1.4-1.4,2.6-2.9,3.5-4.7c5,2.9,11.4,1.9,15.3-2.5c1,0.6,2.1,0.9,3.2,0.9c3.4-0.1,6.1-3,6-6.5C676.6,245.3,674,242.7,670.8,242.6
	L670.8,242.6z"/>
<path class="st25" d="M670.3,242.6c-1.7-6.6-8.5-10.6-15.1-8.9c-1.1,0.3-2.1,0.7-3,1.2c-1.2-2.1-2.7-3.9-4.4-5.5
	c3.1-6.1,0.6-13.6-5.5-16.6c-3.8-1.9-8.2-1.7-11.8,0.4c-5.9-10.5-19.2-14.2-29.7-8.3c-2.5,1.4-4.7,3.3-6.5,5.6
	c-11.2-4.5-23.9,0.9-28.3,12.1c-0.2,0.6-0.5,1.2-0.7,1.9c-5.8,1.4-10.8,5.2-13.8,10.4c-5.9-3.4-13.5-1.3-16.9,4.6c0,0,0,0,0,0.1
	c-1-0.5-2.1-0.8-3.2-0.8"/>
<path class="st26" d="M672,246.3h-0.3c-0.9-3.5-4-5.9-7.6-5.9c-1.4,0-2.7,0.3-3.9,1c-0.7-1.3-1.7-2.5-2.8-3.5
	c2-3.9,0.4-8.6-3.5-10.6c-1.1-0.6-2.3-0.8-3.5-0.8c-1.4,0-2.8,0.4-4,1.1c-3.8-6.7-12.2-9-18.9-5.3c-1.6,0.9-3,2.1-4.1,3.6
	c-1.6-0.7-3.4-1-5.1-1c-6.1,0-11.6,4-13.3,9.9c-0.6,0.1-1.1,0.3-1.7,0.5c-2.7-5-8.9-6.9-13.9-4.2c-1.9,1-3.5,2.6-4.4,4.6h-0.1
	c1.5-2.9,0.3-6.5-2.6-8c-1.8-0.9-3.9-0.8-5.7,0.2c-2.8-5-9.2-6.8-14.2-4c-1.2,0.7-2.3,1.6-3.1,2.7c-1.2-0.5-2.5-0.7-3.9-0.7
	c-4.6,0-8.7,3-10,7.5c-2.8,0.7-5.2,2.5-6.6,5c-0.9-0.5-1.9-0.8-2.9-0.8c-2.1,0-4.1,1.1-5.2,3c-0.5-0.3-1-0.4-1.5-0.4
	c-1.8,0-3.3,1.5-3.3,3.3c0,1.8,1.5,3.3,3.3,3.3c0.5,0,1.1-0.1,1.5-0.4c1.6,2.9,5.2,3.9,8.1,2.2c2.8,5,9.2,6.8,14.2,3.9
	c0.9-0.5,1.8-1.2,2.5-2c3.9,4.2,10.5,4.5,14.7,0.6c0.1-0.1,0.2-0.2,0.3-0.3c3.3,3.3,8.3,4,12.3,1.8c0.1,0,0.3,0,0.4,0
	c0.7,0,1.4-0.2,2.1-0.5c2.1,3.8,6.9,5.1,10.7,3c0,0,0,0,0,0c3.8,6.7,12.2,9,18.9,5.2c1.3-0.7,2.4-1.6,3.4-2.7
	c5.2,5.6,13.9,6,19.6,0.9c0.2-0.1,0.3-0.3,0.4-0.4c5.4,5.4,14.2,5.4,19.6,0c0.9-0.9,1.6-1.9,2.2-3c3.2,1.8,7.3,1.2,9.8-1.6
	c0.6,0.4,1.3,0.6,2,0.6c2.2,0.1,4-1.6,4.1-3.7c0.1-2.2-1.6-4-3.7-4.1C672.2,246.3,672.1,246.3,672,246.3L672,246.3z"/>
<path class="st27" d="M588.8,238.1c0.1,0.9-0.1,1.7-0.4,2.5c-0.4,0.8-1.1,1.6-1.8,2.2c-3.8,2.7-8.9,2.7-12.7,0
	c-0.8-0.6-1.4-1.3-1.8-2.2c-0.4-0.8-0.5-1.6-0.4-2.5c0.3,1.8,1.3,3.3,2.8,4.3c3.6,2.3,8.1,2.3,11.7,0
	C587.5,241.4,588.5,239.8,588.8,238.1z"/>
<path class="st27" d="M641.5,233.3c0.1,0.9-0.1,1.7-0.4,2.5c-0.4,0.9-1.1,1.6-1.8,2.2c-3.8,2.7-8.9,2.7-12.7,0
	c-0.8-0.6-1.4-1.3-1.8-2.2c-0.4-0.8-0.5-1.6-0.4-2.5c0.3,1.8,1.3,3.3,2.8,4.3c3.6,2.2,8.1,2.2,11.7,0
	C640.2,236.6,641.2,235,641.5,233.3z"/>
<path class="st27" d="M619.3,245.7c0.1,0.9-0.1,1.7-0.4,2.5c-0.4,0.8-1.1,1.6-1.8,2.2c-3.8,2.7-8.9,2.7-12.7,0
	c-0.8-0.6-1.4-1.3-1.8-2.2c-0.4-0.8-0.5-1.6-0.4-2.5c0.3,1.8,1.3,3.3,2.8,4.3c3.6,2.2,8.1,2.2,11.7,0C618,249,619,247.4,619.3,245.7
	z"/>
</svg>
