<?xml version="1.0" encoding="utf-8"?>
<!-- Generator: Adobe Illustrator 22.0.1, SVG Export Plug-In . SVG Version: 6.00 Build 0)  -->
<svg version="1.1" id="Layer_1" xmlns="http://www.w3.org/2000/svg" xmlns:xlink="http://www.w3.org/1999/xlink" x="0px" y="0px"
	 viewBox="0 0 399.6 399.6" style="enable-background:new 0 0 399.6 399.6;" xml:space="preserve">
<style type="text/css">
	.st0{fill:#FFFFFF;}
</style>
<title>Actual</title>
<path class="st0" d="M199.8,0C89.5,0,0,89.5,0,199.8s89.5,199.8,199.8,199.8s199.8-89.5,199.8-199.8S310.2,0,199.8,0z M295.3,311
	v0.2c0,0.2,0,0.4,0,0.6c0,0.4,0,0.8-0.1,1.2c-0.1,0.4-0.1,0.6-0.1,0.9c0,0.3-0.1,0.6-0.1,0.9s-0.2,0.7-0.2,1l-0.2,0.7
	c-0.1,0.3-0.2,0.7-0.3,1c-0.1,0.4-0.2,0.5-0.3,0.7s-0.3,0.6-0.4,0.9c-0.1,0.3-0.2,0.5-0.4,0.8c-0.1,0.3-0.3,0.5-0.4,0.7
	c-0.1,0.3-0.3,0.6-0.5,0.8c-0.2,0.3-0.3,0.4-0.4,0.6c-0.1,0.2-0.4,0.6-0.6,0.8l-0.5,0.5c-0.2,0.3-0.5,0.5-0.7,0.8s-0.4,0.4-0.6,0.6
	s-0.4,0.4-0.7,0.6c-0.2,0.2-0.6,0.5-0.9,0.7l-0.5,0.3l-0.1,0.1l-0.5,0.3l-0.9,0.6l-0.6,0.3c-0.3,0.2-0.6,0.3-0.9,0.5
	c-0.3,0.2-0.4,0.2-0.5,0.2c-0.4,0.2-0.9,0.3-1.3,0.5l-0.2,0.1c-0.5,0.2-1.1,0.3-1.6,0.4l-0.4,0.1c-0.5,0.1-0.9,0.2-1.3,0.2h-0.4
	c-0.6,0-1.1,0.1-1.7,0.1s-1.1,0-1.7-0.1H275c-0.5-0.1-1-0.1-1.5-0.2l-0.4-0.1c-0.5-0.1-1-0.2-1.4-0.4c-0.1,0-0.2-0.1-0.3-0.1
	c-0.4-0.1-0.8-0.3-1.2-0.4l-0.3-0.1c-0.5-0.2-0.9-0.4-1.4-0.7l-0.3-0.1c-1-0.5-1.9-1.1-2.7-1.8l-0.1-0.1c-0.4-0.4-0.8-0.7-1.2-1.1
	l0,0c-0.4-0.4-0.7-0.8-1-1.1l-0.2-0.2c-0.3-0.4-0.6-0.7-0.9-1.1l-0.1-0.2l0,0L141,147.2v164c0,10.1-8.2,18.3-18.4,18.3
	c-10.1,0-18.3-8.2-18.3-18.3V88.4c0-0.2,0-0.4,0-0.6c0-0.4,0-0.8,0.1-1.1s0.1-0.6,0.1-0.9s0.1-0.6,0.1-0.9s0.1-0.7,0.2-1
	s0.1-0.5,0.2-0.7s0.2-0.7,0.3-1s0.2-0.5,0.3-0.7s0.3-0.6,0.4-0.9s0.2-0.5,0.4-0.8s0.3-0.5,0.4-0.7s0.3-0.6,0.5-0.8s0.3-0.4,0.4-0.6
	s0.4-0.6,0.6-0.8s0.3-0.4,0.5-0.6s0.4-0.5,0.7-0.8s0.4-0.4,0.6-0.6c0.2-0.2,0.4-0.4,0.7-0.6c0.3-0.3,0.6-0.5,0.9-0.7
	c0.1-0.1,0.3-0.2,0.4-0.3l0.1-0.1c0.4-0.3,0.8-0.5,1.2-0.7c0.1-0.1,0.2-0.2,0.4-0.2c0.4-0.2,0.8-0.4,1.3-0.6l0.4-0.2
	c0.3-0.1,0.6-0.2,0.9-0.3l0.8-0.3l0.3-0.1c0.5-0.1,1-0.3,1.5-0.4h0.1c0.6-0.1,1.1-0.2,1.7-0.3h0.3c0.5,0,1-0.1,1.5-0.1h0.1
	c0.2,0,0.3,0,0.5,0c0.4,0,0.8,0,1.2,0.1s0.6,0.1,0.8,0.1l0.9,0.1c0.3,0.1,0.6,0.2,1,0.2l0.8,0.2c0.3,0.1,0.6,0.2,1,0.3
	c0.2,0.1,0.5,0.2,0.7,0.3c0.3,0.1,0.6,0.2,0.9,0.4l0.8,0.4l0.7,0.4c0.3,0.2,0.6,0.3,0.8,0.5s0.4,0.3,0.6,0.4s0.6,0.4,0.8,0.6
	s0.4,0.3,0.6,0.5s0.5,0.4,0.8,0.7s0.4,0.4,0.6,0.6s0.4,0.4,0.6,0.7s0.5,0.6,0.7,0.9c0.1,0.2,0.2,0.3,0.3,0.4l0.1,0.2l0,0
	l120.7,174.3v-164c0-10.1,8.2-18.4,18.4-18.4s18.4,8.2,18.4,18.4V311z"/>
</svg>
