<svg id="Layer_1" data-name="Layer 1" xmlns="http://www.w3.org/2000/svg" width="400" height="398.59" viewBox="0 0 400 398.59"><defs><style>.cls-1{fill:#f9dfc5;}.cls-2{fill:#96cde0;}.cls-3{fill:#c6adc9;}.cls-4{fill:#b5a495;opacity:0.4;}.cls-5{fill:#ff958a;}.cls-6{fill:#39637f;}.cls-7{fill:#fff;}.cls-8{fill:#57616b;}</style></defs><title>Admin</title><g id="Thick"><g id="Button"><g id="Admin"><path class="cls-1" d="M285.48,222.1c-6.59,10.43-16.32,16.61-23.79,15.79-.38,1-.77,1.88-1.17,2.8A88.79,88.79,0,0,1,244,266.28a70.9,70.9,0,0,1-5.45,5.26q-2.3,2-4.71,3.77a58.79,58.79,0,0,1-27.66,11.19,55,55,0,0,1-13.08,0,58.79,58.79,0,0,1-27.66-11.19q-2.41-1.76-4.71-3.77a70.78,70.78,0,0,1-5.44-5.26,89,89,0,0,1-16.69-26h0c-.34-.79-.67-1.58-1-2.39-7.48.82-17.21-5.36-23.8-15.79-8-12.68-8.35-26.85-.75-31.65a10.72,10.72,0,0,1,6.28-1.57,18.56,18.56,0,0,1,7.45,2c1.07,1,2.12,2.06,3.13,3.15l.08.08c0-.45,0-.9,0-1.34l0-.77c.9-22,7.88-41.84,18.82-56.86a64.14,64.14,0,0,0-.51-8.38q1.4,2.54,3.08,5c12.52-15.48,29.48-25,48.18-25,28.07,0,52.27,21.45,63.3,52.37,5.68,9.46,6.83,22,6.29,33.2,0,.14,0,.29,0,.43,0,.44,0,.89,0,1.34,1-1.12,2.12-2.21,3.22-3.24a17,17,0,0,1,9.38-2,10.28,10.28,0,0,1,4.34,1.5C293.83,195.25,293.49,209.42,285.48,222.1Z" transform="translate(0.35 -45)"/><path class="cls-2" d="M399.65,245a199.07,199.07,0,0,1-37.48,116.59,227.85,227.85,0,0,0-19.94-15.87,241.32,241.32,0,0,0-84.76-38,59.91,59.91,0,0,0-9.1-18.33l-.15-.21c-.22-.29-.44-.59-.67-.88q-.6-.78-1.23-1.56c-.17-.81-.33-1.62-.47-2.44q-.65-3.45-1.06-7c-.08-.64-.15-1.27-.21-1.91s-.13-1.29-.18-1.94-.11-1.3-.15-1.95c-.12-1.74-.2-3.49-.24-5.26a88.79,88.79,0,0,0,16.51-25.59c.4-.92.79-1.85,1.17-2.8,7.47.82,17.2-5.36,23.79-15.79,8-12.68,8.35-26.85.76-31.65a10.28,10.28,0,0,0-4.34-1.5,17,17,0,0,0-9.38,2c-1.1,1-2.18,2.12-3.22,3.24,0-.45,0-.9,0-1.34,0-.14,0-.29,0-.43.54-11.22-.61-23.74-6.29-33.2-11-30.92-35.23-52.37-63.3-52.37-18.7,0-35.66,9.52-48.18,25q-1.68-2.48-3.08-5a64.14,64.14,0,0,1,.51,8.38C138,150.2,131,170.08,130.08,192l0,.77c0,.44,0,.89,0,1.34l-.08-.08c-1-1.09-2.06-2.14-3.13-3.15a18.56,18.56,0,0,0-7.45-2,10.72,10.72,0,0,0-6.28,1.57c-7.6,4.8-7.26,19,.75,31.65,6.59,10.43,16.32,16.61,23.8,15.79.32.81.65,1.6,1,2.39h0a89,89,0,0,0,16.69,26c0,1.77-.12,3.52-.24,5.26,0,.66-.09,1.33-.15,2s-.11,1.26-.18,1.89-.13,1.28-.21,1.91c-.15,1.29-.32,2.56-.52,3.83-.07.49-.15,1-.24,1.48,0,.3-.1.61-.15.91l-.24,1.32c-.12.63-.24,1.26-.37,1.89-.43.52-.85,1-1.25,1.57l-.44.57-.22.3a60,60,0,0,0-9.26,18.55,241.24,241.24,0,0,0-84.76,38,226.37,226.37,0,0,0-19.94,15.87A199.07,199.07,0,0,1-.35,245c0-110.46,89.55-200,200-200S399.65,134.54,399.65,245Z" transform="translate(0.35 -45)"/><path class="cls-3" d="M342.23,345.72a240.26,240.26,0,0,0-74.42-35.31q-5.12-1.44-10.34-2.66a59.34,59.34,0,0,1,2.35,13c.11,1.41.16,2.83.16,4.27,0,1,0,1.92-.08,2.87,0,.24,0,.47,0,.71q-.06,1.2-.18,2.4l0,.31h0a60.09,60.09,0,0,1-9.77,27.13A60.58,60.58,0,0,0,227,338.05a59.7,59.7,0,0,0-13.25-4.88,60.33,60.33,0,0,0-64.3,25.26,60.09,60.09,0,0,1-9.77-27.13h0c0-.12,0-.25,0-.37-.08-.77-.14-1.55-.18-2.33,0-.24,0-.48-.05-.72,0-.95-.07-1.91-.07-2.87,0-1.43.05-2.85.15-4.25a59.42,59.42,0,0,1,2.36-13q-5.73,1.33-11.34,2.94a239.87,239.87,0,0,0-73.42,35A227.13,227.13,0,0,0,37.75,361a200,200,0,0,0,323.79,0A226.57,226.57,0,0,0,342.23,345.72Z" transform="translate(0.35 -45)"/><path class="cls-1" d="M247.33,291.24h0l-1.29,3v0a108.58,108.58,0,0,1-5.83,10.11c-7.3,11.25-16.39,20.27-27.19,24.44a36.84,36.84,0,0,1-13.36,2.51,35.33,35.33,0,0,1-13.34-2.63c-10.53-4.26-19.4-13.33-26.59-24.42a123.54,123.54,0,0,1-7.59-13.61c.19-.77.36-1.53.54-2.31l.33-1.57c.13-.63.25-1.26.37-1.89l.24-1.32c0-.3.11-.61.15-.91.09-.49.17-1,.24-1.48.2-1.27.37-2.54.52-3.83.08-.63.15-1.27.21-1.91s.13-1.26.18-1.89.11-1.33.15-2c.12-1.74.2-3.49.24-5.26a70.78,70.78,0,0,0,5.44,5.26q2.3,2,4.71,3.77a58.79,58.79,0,0,0,27.66,11.19,55,55,0,0,0,13.08,0,58.79,58.79,0,0,0,27.66-11.19q2.42-1.76,4.71-3.77a70.9,70.9,0,0,0,5.45-5.26c0,1.77.12,3.52.24,5.26q.06,1,.15,1.95c0,.65.11,1.3.18,1.94s.13,1.27.21,1.91q.42,3.54,1.06,7c.14.82.3,1.63.47,2.44.1.52.21,1,.32,1.56Q247,289.8,247.33,291.24Z" transform="translate(0.35 -45)"/><path class="cls-4" d="M244.25,271.54c-47,47-89.19,0-89.19,0,.12-1.74.2-3.49.24-5.26a70.78,70.78,0,0,0,5.44,5.26q2.3,2,4.71,3.77a58.79,58.79,0,0,0,27.66,11.19,55,55,0,0,0,13.08,0,58.79,58.79,0,0,0,27.66-11.19q2.42-1.76,4.71-3.77a70.9,70.9,0,0,0,5.45-5.26C244.05,268.05,244.13,269.8,244.25,271.54Z" transform="translate(0.35 -45)"/><path class="cls-5" d="M171.74,78.27s67.61-27.12,101.81,34.2c36.95,65.25-9.44,136.39-18.87,141.9,0,0,2.36-11.4,9.43-33,0,0,16.51-48.35-33-55.82,0,0-48.35-6.28-51.5-16.9,0,0,3.54,17.3,25.16,20.84,0,0-49.53-1.18-64.86-18.48,0,0-21.22,69.57,9.83,107.31,0,0-53.06-42.45-46.77-108.1C102.56,150.2,99.81,60.19,171.74,78.27Z" transform="translate(0.35 -45)"/><path class="cls-6" d="M246,176.25H153.27a13.87,13.87,0,0,0-13.87,13.86v11.48a13.88,13.88,0,0,0,13.87,13.87H180a15.12,15.12,0,0,0,9.09-3.35A3.75,3.75,0,0,0,191,210.2c1.92-4.31,5.26-6.7,8.61-6.7s6.69,2.39,8.61,6.7a3.71,3.71,0,0,0,1.91,1.91,12.63,12.63,0,0,0,9.08,3.35H246a13.88,13.88,0,0,0,13.87-13.87V190.11A13.87,13.87,0,0,0,246,176.25Zm-92.76,32.51a7.35,7.35,0,0,1-7.18-7.17V190.11a7.36,7.36,0,0,1,7.18-7.17h27.25a7.36,7.36,0,0,1,7.18,7.17v11.48a6,6,0,0,1-.48,2.87c-.48.48-.48,1-1,1.43a6.8,6.8,0,0,1-5.74,2.87Zm46.38-12.43a12.82,12.82,0,0,0-5.74,1.43v-8.12a15.85,15.85,0,0,0-1.91-7.18h15.78c-1.44,1.92-1.91,4.78-1.91,7.18v8.12A16.68,16.68,0,0,0,199.65,196.33Zm53.56,5.26a7.35,7.35,0,0,1-7.18,7.17H219.25a6.78,6.78,0,0,1-5.73-2.87c-.48-.47-.48-.95-1-1.43a6,6,0,0,1-.48-2.87V190.11a7.36,7.36,0,0,1,7.17-7.17H246a7.36,7.36,0,0,1,7.18,7.17v11.48Z" transform="translate(0.35 -45)"/><path class="cls-7" d="M259.82,320.74a60,60,0,0,0-11.45-31.32l-.15-.21-.89,2h0l-1.29,3v0a108.58,108.58,0,0,1-5.83,10.11c-7.3,11.25-16.39,20.27-27.19,24.44a36.84,36.84,0,0,1-13.36,2.51,35.33,35.33,0,0,1-13.34-2.63c-10.53-4.26-19.4-13.33-26.59-24.42a123.54,123.54,0,0,1-7.59-13.61c-.28-.58-.55-1.16-.82-1.74l-.22.3a60.11,60.11,0,0,0-11.62,31.56c-.1,1.4-.15,2.82-.15,4.25a60,60,0,0,0,10.1,33.42,60.58,60.58,0,0,1,22.91-20.38,60.29,60.29,0,0,1,54.64,0,60.58,60.58,0,0,1,22.91,20.38A60,60,0,0,0,260,325C260,323.57,259.93,322.15,259.82,320.74Z" transform="translate(0.35 -45)"/><polygon class="cls-7" points="202.05 286.24 202.05 286.56 202.05 398.59 197.94 398.59 197.94 286.56 197.94 286.24 202.05 286.24"/><path class="cls-8" d="M140.24,371.55q-2.34-8.39-4-16.62a190.54,190.54,0,0,1-3.71-44.8c-.7.19-1.39.36-2.08.56a239.87,239.87,0,0,0-73.42,35A227.13,227.13,0,0,0,37.75,361a199.83,199.83,0,0,0,138.58,81.19C161.36,425,148.3,400.33,140.24,371.55Z" transform="translate(0.35 -45)"/><path class="cls-8" d="M342.23,345.72a240.26,240.26,0,0,0-74.42-35.31l-1.08-.29A190.08,190.08,0,0,1,263,354.93q-1.62,8.22-4,16.62C251,400.33,237.94,425,223,442.23A199.8,199.8,0,0,0,361.54,361,226.57,226.57,0,0,0,342.23,345.72Z" transform="translate(0.35 -45)"/></g></g></g></svg>