<svg xmlns="http://www.w3.org/2000/svg" width="490" height="490" viewBox="0 0 490 490"><defs><style>.cls-1{fill:#06b76c;}</style></defs><title>Approved</title><g id="Layer_1" data-name="Layer 1"><g id="Thick"><g id="Datatable_copy" data-name="Datatable copy"><g id="Approved"><path class="cls-1" d="M184.68,420a17.76,17.76,0,0,1-13.48-6.19L84.06,312.4a17.77,17.77,0,1,1,27-23.16l73.63,85.67,183.73-215a17.77,17.77,0,1,1,27,23.09L198.19,413.77A17.77,17.77,0,0,1,184.7,420Z"/><path class="cls-1" d="M360.74,10.59h0A48.61,48.61,0,0,0,330.49,0H120.37l-86,85.19V85L0,119v323a48.35,48.35,0,0,0,48.4,48.32h70.35a17.2,17.2,0,1,0,0-34.4H47.51a13.37,13.37,0,0,1-2.67-.43,11.93,11.93,0,0,1-1.23-.38,17.43,17.43,0,0,1-1.93-.87c-.19-.1-.37-.21-.55-.32l-.12-.08c-.18-.1-.34-.22-.53-.35-.38-.26-.71-.51-1-.76l-.5-.44a13.8,13.8,0,0,1-4.56-10.29V133.45h66.26a33.5,33.5,0,0,0,33.39-33.14l.32-65.94H330.49a14,14,0,0,1,14,14V97.5h.06a17.18,17.18,0,0,0,34.29,0h.05V48.32A48.08,48.08,0,0,0,360.74,10.59ZM99.66,99.05H69.28L99.8,68.8Z"/></g></g></g></g></svg>