<svg id="Layer_1" data-name="Layer 1" xmlns="http://www.w3.org/2000/svg" width="378.89" height="490.37" viewBox="0 0 378.89 490.37"><title>Approval</title><g id="Thick"><g id="Menu_copy" data-name="Menu copy"><g id="Approval"><path d="M362.39,10.22h0A48.61,48.61,0,0,0,332.14-.37H122l-86,85.19v-.16l-34.4,34v323A48.35,48.35,0,0,0,50.05,490H332.14a48.35,48.35,0,0,0,48.4-48.32V48A48.11,48.11,0,0,0,362.39,10.22ZM346.14,72.63v344h0v25.05A13.8,13.8,0,0,1,341.58,452l-.5.44c-.31.25-.64.5-1,.76-.2.13-.36.25-.53.35l-.13.08c-.18.12-.36.22-.54.32a16.55,16.55,0,0,1-1.94.87,11.93,11.93,0,0,1-1.23.38,13.37,13.37,0,0,1-2.67.43H49.16a13.37,13.37,0,0,1-2.67-.43,11.93,11.93,0,0,1-1.23-.38,15.75,15.75,0,0,1-1.93-.87,6.05,6.05,0,0,1-.55-.32l-.12-.08c-.18-.1-.34-.22-.54-.35-.37-.26-.7-.51-1-.76l-.5-.44a13.8,13.8,0,0,1-4.56-10.29V133.08h66.26A33.5,33.5,0,0,0,135.7,99.94L136,34H332.14a14,14,0,0,1,14,14V72.63Z" transform="translate(-1.65 0.37)"/><path d="M141.7,348.28a17.49,17.49,0,0,1-13.33-6.14L74.88,279.45a17.5,17.5,0,0,1,26.63-22.72l42.39,49.69L283,193.28A17.5,17.5,0,1,1,305,220.42L152.73,344.36A17.46,17.46,0,0,1,141.7,348.28Z" transform="translate(-1.65 0.37)"/></g></g></g></svg>