<svg version="1.1" id="el_6yDFbE5eSrs" xmlns="http://www.w3.org/2000/svg" xmlns:xlink="http://www.w3.org/1999/xlink" x="0px" y="0px" viewBox="0 0 303 566" style="enable-background:new 0 0 303.6 566.9;" xml:space="preserve"><style>@-webkit-keyframes el_Oh9e4Q6zRAR_3D5FvAvza_Animation{0%{-webkit-transform: scale(1, 1);transform: scale(1, 1);}10.26%{-webkit-transform: scale(1.1, 1);transform: scale(1.1, 1);}20.51%{-webkit-transform: scale(1, 1);transform: scale(1, 1);}100%{-webkit-transform: scale(1, 1);transform: scale(1, 1);}}@keyframes el_Oh9e4Q6zRAR_3D5FvAvza_Animation{0%{-webkit-transform: scale(1, 1);transform: scale(1, 1);}10.26%{-webkit-transform: scale(1.1, 1);transform: scale(1.1, 1);}20.51%{-webkit-transform: scale(1, 1);transform: scale(1, 1);}100%{-webkit-transform: scale(1, 1);transform: scale(1, 1);}}@-webkit-keyframes el_N2W0ZSTvEnx_9fnSZw4CB_Animation{0%{-webkit-transform: translate(0px, 0px);transform: translate(0px, 0px);}10.26%{-webkit-transform: translate(0px, 40px);transform: translate(0px, 40px);}20.51%{-webkit-transform: translate(0px, 0px);transform: translate(0px, 0px);}100%{-webkit-transform: translate(0px, 0px);transform: translate(0px, 0px);}}@keyframes el_N2W0ZSTvEnx_9fnSZw4CB_Animation{0%{-webkit-transform: translate(0px, 0px);transform: translate(0px, 0px);}10.26%{-webkit-transform: translate(0px, 40px);transform: translate(0px, 40px);}20.51%{-webkit-transform: translate(0px, 0px);transform: translate(0px, 0px);}100%{-webkit-transform: translate(0px, 0px);transform: translate(0px, 0px);}}@-webkit-keyframes el_p8hW2XAcJWY_UNc35uGsK_Animation{0%{-webkit-transform: translate(0px, 0px);transform: translate(0px, 0px);}10.26%{-webkit-transform: translate(0px, 35px);transform: translate(0px, 35px);}20.51%{-webkit-transform: translate(0px, 0px);transform: translate(0px, 0px);}100%{-webkit-transform: translate(0px, 0px);transform: translate(0px, 0px);}}@keyframes el_p8hW2XAcJWY_UNc35uGsK_Animation{0%{-webkit-transform: translate(0px, 0px);transform: translate(0px, 0px);}10.26%{-webkit-transform: translate(0px, 35px);transform: translate(0px, 35px);}20.51%{-webkit-transform: translate(0px, 0px);transform: translate(0px, 0px);}100%{-webkit-transform: translate(0px, 0px);transform: translate(0px, 0px);}}@-webkit-keyframes el_p8hW2XAcJWY_HUQL78AEp_Animation{0%{-webkit-transform: scale(1, 1);transform: scale(1, 1);}10.26%{-webkit-transform: scale(1, 0.85);transform: scale(1, 0.85);}20.51%{-webkit-transform: scale(1, 1);transform: scale(1, 1);}100%{-webkit-transform: scale(1, 1);transform: scale(1, 1);}}@keyframes el_p8hW2XAcJWY_HUQL78AEp_Animation{0%{-webkit-transform: scale(1, 1);transform: scale(1, 1);}10.26%{-webkit-transform: scale(1, 0.85);transform: scale(1, 0.85);}20.51%{-webkit-transform: scale(1, 1);transform: scale(1, 1);}100%{-webkit-transform: scale(1, 1);transform: scale(1, 1);}}@-webkit-keyframes el_oMpuOdLtmTn_ZOknOwgR1_Animation{0%{-webkit-transform: translate(0px, 0px);transform: translate(0px, 0px);}10.26%{-webkit-transform: translate(0px, 35px);transform: translate(0px, 35px);}20.51%{-webkit-transform: translate(0px, 0px);transform: translate(0px, 0px);}100%{-webkit-transform: translate(0px, 0px);transform: translate(0px, 0px);}}@keyframes el_oMpuOdLtmTn_ZOknOwgR1_Animation{0%{-webkit-transform: translate(0px, 0px);transform: translate(0px, 0px);}10.26%{-webkit-transform: translate(0px, 35px);transform: translate(0px, 35px);}20.51%{-webkit-transform: translate(0px, 0px);transform: translate(0px, 0px);}100%{-webkit-transform: translate(0px, 0px);transform: translate(0px, 0px);}}#el_6yDFbE5eSrs *{-webkit-animation-duration: 1.3s;animation-duration: 1.3s;-webkit-animation-iteration-count: infinite;animation-iteration-count: infinite;-webkit-animation-timing-function: cubic-bezier(0, 0, 1, 1);animation-timing-function: cubic-bezier(0, 0, 1, 1);}#el_Oh9e4Q6zRAR{opacity: 0.1;enable-background: new;}#el_p8hW2XAcJWY{fill: #06B76C;}#el_oMpuOdLtmTn{fill: #FFFFFF;}#el_N2W0ZSTvEnx{fill: #FFFFFF;}#el_oMpuOdLtmTn_ZOknOwgR1{-webkit-animation-name: el_oMpuOdLtmTn_ZOknOwgR1_Animation;animation-name: el_oMpuOdLtmTn_ZOknOwgR1_Animation;-webkit-transform-origin: 50% 50%;transform-origin: 50% 50%;transform-box: fill-box;-webkit-transform: translate(0px, 0px);transform: translate(0px, 0px);}#el_p8hW2XAcJWY_HUQL78AEp{-webkit-animation-name: el_p8hW2XAcJWY_HUQL78AEp_Animation;animation-name: el_p8hW2XAcJWY_HUQL78AEp_Animation;-webkit-transform-origin: 50% 50%;transform-origin: 50% 50%;transform-box: fill-box;}#el_p8hW2XAcJWY_UNc35uGsK{-webkit-animation-name: el_p8hW2XAcJWY_UNc35uGsK_Animation;animation-name: el_p8hW2XAcJWY_UNc35uGsK_Animation;-webkit-transform-origin: 50% 50%;transform-origin: 50% 50%;transform-box: fill-box;}#el_N2W0ZSTvEnx_9fnSZw4CB{-webkit-animation-name: el_N2W0ZSTvEnx_9fnSZw4CB_Animation;animation-name: el_N2W0ZSTvEnx_9fnSZw4CB_Animation;-webkit-transform-origin: 50% 50%;transform-origin: 50% 50%;transform-box: fill-box;}#el_Oh9e4Q6zRAR_3D5FvAvza{-webkit-animation-name: el_Oh9e4Q6zRAR_3D5FvAvza_Animation;animation-name: el_Oh9e4Q6zRAR_3D5FvAvza_Animation;-webkit-transform-origin: 50% 50%;transform-origin: 50% 50%;transform-box: fill-box;}</style>

<title>Attendance_radius</title>
<g id="el_aVfAMJr4XUs">
	<g id="el_aB2_z-4-9XE">
		<g id="el_60uHMgR0hqG">
			<g id="el_Oh9e4Q6zRAR_3D5FvAvza" data-animator-group="true" data-animator-type="2"><ellipse cx="151.8" cy="532.8" rx="109.9" ry="34.1" id="el_Oh9e4Q6zRAR"/></g>
			<g id="el_p8hW2XAcJWY_UNc35uGsK" data-animator-group="true" data-animator-type="0"><g id="el_p8hW2XAcJWY_HUQL78AEp" data-animator-group="true" data-animator-type="2"><path d="M303.6,231.9c0,68-43.1,126-103,146.7L167,511.8c0,0,0,0.1,0,0.1v0.1c0,0.1-0.1,0.2-0.1,0.4l-0.2,0.7&#10;&#9;&#9;&#9;&#9;c0,0.1,0,0.2-0.1,0.3l-0.1,0.2c0,0.1-0.1,0.2-0.1,0.3c0,0.1-0.2,0.4-0.3,0.6c-0.1,0.2-0.1,0.2-0.1,0.3l-0.1,0.3l-0.1,0.3&#10;&#9;&#9;&#9;&#9;l-0.2,0.4l-0.2,0.3l-0.2,0.3c-0.2,0.3-0.4,0.6-0.6,0.9l-0.2,0.3c-0.1,0.2-0.3,0.4-0.4,0.5c-0.1,0.1-0.1,0.2-0.2,0.2l0,0l-0.3,0.3&#10;&#9;&#9;&#9;&#9;l-0.4,0.4l-0.3,0.3c-0.1,0.1-0.2,0.2-0.3,0.3L162,520l-0.4,0.3l-0.7,0.5l0,0l-0.5,0.3l-0.2,0.1c-0.2,0.1-0.4,0.2-0.6,0.3&#10;&#9;&#9;&#9;&#9;l-0.4,0.3l-0.2,0.1l-0.6,0.3c-0.1,0.1-0.3,0.1-0.4,0.2l-0.5,0.2l-0.4,0.2l-0.4,0.1l-0.6,0.2l-0.4,0.1l0,0l-0.4,0.1h-0.1l-0.4,0.1&#10;&#9;&#9;&#9;&#9;l-0.3,0l-0.5,0.1l-0.6,0.1h-0.2h-0.4c-0.4,0-0.7,0-1.1,0h-0.2c-0.4,0-0.7,0-1.1,0h-0.4h-0.2l-0.6-0.1l-0.5-0.1l-0.3,0l-0.4-0.1&#10;&#9;&#9;&#9;&#9;h-0.1l-0.4-0.1l0,0l-0.4-0.1l-0.6-0.2l-0.4-0.1l-0.4-0.2l-0.5-0.2c-0.1,0-0.3-0.1-0.4-0.2l-0.6-0.3l-0.3-0.1&#10;&#9;&#9;&#9;&#9;c-0.1-0.1-0.3-0.2-0.4-0.3s-0.4-0.2-0.6-0.3l-0.2-0.1l-0.6-0.3l-0.1,0c-0.2-0.2-0.4-0.3-0.6-0.5l-0.4-0.3&#10;&#9;&#9;&#9;&#9;c-0.1-0.1-0.3-0.2-0.4-0.4c-0.1-0.1-0.2-0.2-0.3-0.3l-0.3-0.3c-0.1-0.1-0.3-0.3-0.4-0.4l-0.3-0.4v0l-0.2-0.2&#10;&#9;&#9;&#9;&#9;c-0.1-0.2-0.3-0.4-0.4-0.5l-0.2-0.3c-0.2-0.3-0.4-0.6-0.6-0.9l-0.2-0.3l-0.2-0.3c-0.1-0.1-0.1-0.3-0.2-0.4s-0.1-0.2-0.1-0.3&#10;&#9;&#9;&#9;&#9;l-0.1-0.3l-0.1-0.3c-0.1-0.2-0.2-0.4-0.3-0.6l-0.1-0.2l-0.1-0.2c0-0.1-0.1-0.2-0.1-0.3c-0.1-0.2-0.1-0.5-0.2-0.7&#10;&#9;&#9;&#9;&#9;s-0.1-0.2-0.1-0.3v-0.1v-0.1L103,378.6C43.1,357.8,0,299.9,0,231.9c0-85.4,68.1-155,151.8-155S303.6,146.5,303.6,231.9z" id="el_p8hW2XAcJWY"/></g></g>
			<g id="el_oMpuOdLtmTn_ZOknOwgR1" data-animator-group="true" data-animator-type="0"><path d="M269.4,293.8c-23.5,36.6-67.4,61.1-117.6,61.1s-94.1-24.6-117.6-61.2c14.4-22.4,36.4-40.3,62.9-50.8&#10;&#9;&#9;&#9;&#9;c30.3,30,79.1,30,109.4,0C233,253.4,255,271.4,269.4,293.8z" id="el_oMpuOdLtmTn"/></g>
			<g id="el_N2W0ZSTvEnx_9fnSZw4CB" data-animator-group="true" data-animator-type="0"><ellipse cx="151.8" cy="185" rx="58.1" ry="59.3" id="el_N2W0ZSTvEnx"/></g>
		</g>
	</g>
</g>
<script>(function(){var a=document.querySelector('#el_6yDFbE5eSrs'),b=a.querySelectorAll('style'),c=function(d){b.forEach(function(f){var g=f.textContent;g&amp;&amp;(f.textContent=g.replace(/transform-box:[^;\r\n]*/gi,'transform-box: '+d))})};c('initial'),window.requestAnimationFrame(function(){return c('fill-box')})})();</script></svg>