<svg xmlns="http://www.w3.org/2000/svg" width="399.4" height="489.09" viewBox="0 0 399.4 489.09"><title>Attendance_summary</title><path d="M194.08,122.31a178.42,178.42,0,0,0-67.88,25.88V126.85a17.56,17.56,0,0,1,17.56-17.56h33.36A17.56,17.56,0,0,1,194.08,122.31Z" transform="translate(-0.87 -0.91)"/><path d="M250.7,122.17a196.29,196.29,0,0,1,22.38,4.16,17.56,17.56,0,0,0-17.53-17H222.19a17.58,17.58,0,0,0-16.5,11.53c5.64-.53,11.35-.81,17.13-.81A181.78,181.78,0,0,1,250.7,122.17Z" transform="translate(-0.87 -0.91)"/><path d="M50.28,230.12c.3-.61.6-1.22.91-1.82l1-2c.31-.6.63-1.19.94-1.78s.68-1.28,1-1.92c.58-1.06,1.17-2.12,1.78-3.18.37-.65.75-1.3,1.13-1.95l1-1.62c.4-.66.8-1.32,1.21-2s.63-1,.95-1.53c.42-.66.83-1.33,1.26-2,.11-.16.22-.32.32-.49,1-1.51,2-3,3-4.49l.93-1.35,1.44-2,.93-1.27q2.55-3.48,5.25-6.84l.89-1.11c.55-.67,1.09-1.33,1.65-2,.3-.37.61-.73.92-1.1l1.73-2H65.33a17.56,17.56,0,0,0-17.56,17.56v30.14c.51-1.13,1-2.25,1.57-3.37Z" transform="translate(-0.87 -0.91)"/><path d="M65.33,177.77H87.82a196.48,196.48,0,0,1,28.43-23.47V126.85a17.56,17.56,0,0,0-17.56-17.56H65.33a17.56,17.56,0,0,0-17.56,17.56v33.37A17.55,17.55,0,0,0,65.33,177.77Z" transform="translate(-0.87 -0.91)"/><path d="M350.72,165.46a17.51,17.51,0,0,0,.81-5.24V126.85A17.56,17.56,0,0,0,334,109.29H300.61a17.56,17.56,0,0,0-17.56,17.56v2.22A195.38,195.38,0,0,1,350.72,165.46Z" transform="translate(-0.87 -0.91)"/><path d="M226.05,142.79a173.61,173.61,0,1,0,173.6,173.6A173.6,173.6,0,0,0,226.05,142.79ZM339.12,266.72,183.66,393.22A17.5,17.5,0,0,1,159.3,391l-54.6-64a17.5,17.5,0,1,1,26.62-22.72l43.51,51L317,239.57a17.5,17.5,0,1,1,22.09,27.15Z" transform="translate(-0.87 -0.91)"/><path d="M400.27,48.85V160.92a17.12,17.12,0,1,1-34.23,0V48.85a13.73,13.73,0,0,0-13.71-13.72h-28a28.18,28.18,0,1,1-42.91,0H222a28.18,28.18,0,1,1-42.92,0H119.7a28.18,28.18,0,1,1-42.92,0h-28A13.73,13.73,0,0,0,35.09,48.85V350.92a17.11,17.11,0,1,1-34.22,0V48.85A48,48,0,0,1,48.81.91H352.33a47.93,47.93,0,0,1,47.94,47.94Z" transform="translate(-0.87 -0.91)"/></svg>