<svg xmlns="http://www.w3.org/2000/svg" width="398" height="490.37" viewBox="0 0 398 490.37"><title>Business_trip</title><path d="M226.05,142.79a173.61,173.61,0,1,0,173.6,173.6A173.6,173.6,0,0,0,226.05,142.79Zm95.51,253.5-16.39,18.63a2.2,2.2,0,0,1-1.75.75,2.17,2.17,0,0,1-1.67-.9L243,334.31c-19.46,16.32-38.48,31-52.75,40.73l16.29,37.09a2.2,2.2,0,0,1-.38,2.36l-9.28,10.24a2.23,2.23,0,0,1-1.8.72,2.2,2.2,0,0,1-1.39-.64,2,2,0,0,1-.28-.35L169,387.57c-6,2.64-9.72,2.85-11.85.72s-1.92-5.82.73-11.84L121,352.06a2.19,2.19,0,0,1-.27-3.47l10.23-9.28a2.2,2.2,0,0,1,2.37-.39l37.1,16.3c12.91-19,30.39-40.44,40.71-52.76l-80.45-58.77a2.21,2.21,0,0,1-.16-3.43l18.64-16.38a2.19,2.19,0,0,1,2.5-.28l87.28,47.26c2.49-2.66,4.76-5,6.78-7,12.91-12.91,26.8-23.34,39.13-29.35,13-6.37,23-7.07,28.09-2s4.4,15.07-2,28.09c-6,12.32-16.44,26.22-29.35,39.13-2,2-4.37,4.28-7,6.78l47.26,87.28A2.21,2.21,0,0,1,321.56,396.29Z" transform="translate(-1.65 0.37)"/><path d="M362.39,10.22h0A48.61,48.61,0,0,0,332.14-.37H122l-86,85.19v-.16l-34.4,34v323A48.35,48.35,0,0,0,50.05,490H82.4a17.2,17.2,0,1,0,0-34.4H49.16a13.37,13.37,0,0,1-2.67-.43,11.93,11.93,0,0,1-1.23-.38,15.75,15.75,0,0,1-1.93-.87,6.05,6.05,0,0,1-.55-.32l-.12-.08c-.18-.1-.34-.22-.54-.35-.37-.26-.7-.51-1-.76l-.5-.44a13.8,13.8,0,0,1-4.56-10.29V133.08h66.26A33.5,33.5,0,0,0,135.7,99.94L136,34H332.14a14,14,0,0,1,14,14v89.18h.06a17.18,17.18,0,0,0,34.29,0h.05V48A48.11,48.11,0,0,0,362.39,10.22ZM101.31,98.68H70.93l30.52-30.25Z" transform="translate(-1.65 0.37)"/></svg>