<svg xmlns="http://www.w3.org/2000/svg" width="398" height="490.37" viewBox="0 0 398 490.37"><title>Claim</title><path d="M238.55,388.71a28.83,28.83,0,0,0,0-52Z" transform="translate(-1.65 0.37)"/><path d="M197.21,270.06a28.87,28.87,0,0,0,16.34,26v-52A28.86,28.86,0,0,0,197.21,270.06Z" transform="translate(-1.65 0.37)"/><path d="M226.05,142.79a173.61,173.61,0,1,0,173.6,173.6A173.6,173.6,0,0,0,226.05,142.79Zm63.83,219.94a63.94,63.94,0,0,1-51.33,62.6V436.5a12.5,12.5,0,0,1-25,0V425.33a63.94,63.94,0,0,1-51.34-62.6,17.5,17.5,0,0,1,35,0,28.87,28.87,0,0,0,16.34,26v-56a63.83,63.83,0,0,1,0-125.2V196.28a12.5,12.5,0,0,1,25,0v11.18a63.94,63.94,0,0,1,51.33,62.6,17.5,17.5,0,1,1-35,0,28.86,28.86,0,0,0-16.33-26v56A63.94,63.94,0,0,1,289.88,362.73Z" transform="translate(-1.65 0.37)"/><path d="M362.39,10.22h0A48.61,48.61,0,0,0,332.14-.37H122l-86,85.19v-.16l-34.4,34v323A48.35,48.35,0,0,0,50.05,490H82.4a17.2,17.2,0,1,0,0-34.4H49.16a13.37,13.37,0,0,1-2.67-.43,11.93,11.93,0,0,1-1.23-.38,15.75,15.75,0,0,1-1.93-.87,6.05,6.05,0,0,1-.55-.32l-.12-.08c-.18-.1-.34-.22-.54-.35-.37-.26-.7-.51-1-.76l-.5-.44a13.8,13.8,0,0,1-4.56-10.29V133.08h66.26A33.5,33.5,0,0,0,135.7,99.94L136,34H332.14a14,14,0,0,1,14,14v89.18h.06a17.18,17.18,0,0,0,34.29,0h.05V48A48.11,48.11,0,0,0,362.39,10.22ZM101.31,98.68H70.93l30.52-30.25Z" transform="translate(-1.65 0.37)"/></svg>