<svg xmlns="http://www.w3.org/2000/svg" width="408.5" height="489.5" viewBox="0 0 408.5 489.5"><defs><style>.a{fill:none;stroke:#000;stroke-linecap:round;stroke-linejoin:round;stroke-width:25px;}</style></defs><title>Contract</title><path d="M295.17.5H56.75A55.66,55.66,0,0,0,1.15,56.1V392.38A55.67,55.67,0,0,0,56.75,448h40V413.44h-40a21.09,21.09,0,0,1-21.06-21.06V56.1A21.09,21.09,0,0,1,56.75,35H295.17A21.09,21.09,0,0,1,316.23,56.1V84.48h34.54V56.1A55.66,55.66,0,0,0,295.17.5Z" transform="translate(-1.15 -0.5)"/><line class="a" x1="241.61" y1="173.88" x2="333.07" y2="173.88"/><line class="a" x1="150.14" y1="233.88" x2="333.07" y2="233.88"/><line class="a" x1="150.14" y1="353.88" x2="333.07" y2="353.88"/><line class="a" x1="150.14" y1="293.88" x2="333.07" y2="293.88"/><path d="M361.47,58.75H195.57L75.87,177.37V441.83A48.23,48.23,0,0,0,124,490H361.47a48.23,48.23,0,0,0,48.18-48.17V106.93A48.23,48.23,0,0,0,361.47,58.75Zm13.86,383.08a13.87,13.87,0,0,1-13.86,13.86H124a13.87,13.87,0,0,1-13.85-13.86V191.54H176a33.37,33.37,0,0,0,33.26-33l.31-65.47h151.9a13.87,13.87,0,0,1,13.86,13.86Z" transform="translate(-1.15 -0.5)"/></svg>