<svg xmlns="http://www.w3.org/2000/svg" width="399.29" height="395.65" viewBox="0 0 399.29 395.65"><title>Home</title><path d="M346.05,249.65,211.43,138.81a17.6,17.6,0,0,0-22.32,0L54.48,249.66a17.48,17.48,0,0,0-6.39,13.55V425.27a17.58,17.58,0,0,0,17.56,17.56h99.43a17.57,17.57,0,0,0,17.55-17.56V351.59a17.64,17.64,0,0,1,35.27,0v73.68a17.58,17.58,0,0,0,17.56,17.56h99.43a17.58,17.58,0,0,0,17.56-17.56V263.21A17.53,17.53,0,0,0,346.05,249.65ZM200.27,298.84a52.81,52.81,0,0,0-52.75,52.75v56.12H83.21V271.5l117.06-96.39L317.33,271.5V407.71H253V351.59A52.81,52.81,0,0,0,200.27,298.84Z" transform="translate(-0.63 -47.17)"/><path d="M393.67,206.27,211.4,51.29a17.1,17.1,0,0,0-22.26,0L6.87,206.27a18.09,18.09,0,0,0-2.36,24.87,17.14,17.14,0,0,0,11.85,6.47,15.56,15.56,0,0,0,1.67.08,17,17,0,0,0,11.09-4.11L200.27,88.05,371.42,233.58A17.14,17.14,0,0,0,396,231.14,18.09,18.09,0,0,0,393.67,206.27Z" transform="translate(-0.63 -47.17)"/></svg>