<svg xmlns="http://www.w3.org/2000/svg" width="400" height="490" viewBox="0 0 400 490"><defs><style>.a{fill:#ff7588;}</style></defs><title>Delete</title><path class="a" d="M379.09,48.06H281.46V20.56A20.57,20.57,0,0,0,260.9,0H138.41a20.57,20.57,0,0,0-20.57,20.56v27.5H20.22A20.57,20.57,0,0,0-.35,68.63v22a20.56,20.56,0,0,0,20.57,20.56H33.3L82.66,482.74c0,.14,0,.27,0,.4a8.1,8.1,0,0,0,8,6.86H312.06l.5,0,.5-.08a8.61,8.61,0,0,0,1.69-.47,8.13,8.13,0,0,0,2-1.15c.15-.12.3-.24.44-.37a7.65,7.65,0,0,0,.79-.82l.33-.42,0-.08.24-.35c.09-.14.17-.28.25-.43s.16-.3.23-.45a7.61,7.61,0,0,0,.48-1.31,8.59,8.59,0,0,0,.27-2.11v-.06l46.32-370.66h13a20.55,20.55,0,0,0,20.56-20.56v-22A20.56,20.56,0,0,0,379.09,48.06ZM136.83,430.63a7.5,7.5,0,1,1-15,0v-286a7.5,7.5,0,0,1,15,0Zm70.32,0a7.5,7.5,0,0,1-15,0v-286a7.5,7.5,0,0,1,15,0Zm70.33,0a7.5,7.5,0,0,1-15,0v-286a7.5,7.5,0,0,1,15,0Zm107.17-340a5.56,5.56,0,0,1-5.56,5.56H20.22a5.57,5.57,0,0,1-5.57-5.56v-22a5.58,5.58,0,0,1,5.57-5.57H136.83c.52,0,1,.07,1.58.07H260.9c.53,0,1.06,0,1.58-.07H379.09a5.57,5.57,0,0,1,5.56,5.57Z" transform="translate(0.35 0)"/></svg>