<svg xmlns="http://www.w3.org/2000/svg" width="664.78" height="486" viewBox="0 0 664.78 486"><defs><style>.a{font-size:12px;font-family:MyriadPro-Regular, Myriad Pro;}.a,.d{fill:#fff;}.b{letter-spacing:-0.01em;}.c{letter-spacing:-0.01em;}.d{font-size:15px;font-family:MyriadPro-Bold, Myriad Pro;font-weight:700;}.e{letter-spacing:-0.01em;}.f{letter-spacing:-0.01em;}.g{letter-spacing:-0.04em;}.h{letter-spacing:-0.01em;}.i{letter-spacing:0em;}.j{letter-spacing:0em;}.k{letter-spacing:0em;}.l{fill:none;stroke:#000;stroke-linecap:round;stroke-linejoin:round;stroke-width:35px;}</style></defs><title>Download</title><text class="a" transform="translate(496.7 273.76)">Si<tspan class="b" x="8.72" y="0">z</tspan><tspan x="13.78" y="0">e st</tspan><tspan class="c" x="31.06" y="0">r</tspan><tspan x="34.86" y="0">oke : 35pt</tspan></text><text class="d" transform="translate(496.7 259.09)">Si<tspan class="e" x="12.21" y="0">z</tspan><tspan x="19.14" y="0">e </tspan><tspan class="f" x="30.09" y="0">f</tspan><tspan x="35.05" y="0">or</tspan><tspan class="g" x="49.41" y="0"> </tspan><tspan class="h" x="51.85" y="0">T</tspan><tspan x="59.89" y="0">hin</tspan></text><text class="a" transform="translate(496.7 193.76)">Si<tspan class="b" x="8.72" y="0">z</tspan><tspan x="13.78" y="0">e st</tspan><tspan class="c" x="31.06" y="0">r</tspan><tspan x="34.86" y="0">oke : 10p</tspan><tspan class="i" x="79.8" y="0">t</tspan><tspan class="j" x="83.73" y="0">, 15p</tspan><tspan class="k" x="107.9" y="0">t</tspan><tspan x="111.84" y="0">, 25p</tspan><tspan class="k" x="136" y="0">t</tspan><tspan x="139.94" y="0">, 35pt</tspan></text><text class="d" transform="translate(496.7 179.09)">Si<tspan class="e" x="12.21" y="0">z</tspan><tspan x="19.14" y="0">e </tspan><tspan class="f" x="30.09" y="0">f</tspan><tspan x="35.05" y="0">or</tspan><tspan class="g" x="49.41" y="0"> </tspan><tspan class="h" x="51.85" y="0">T</tspan><tspan x="59.89" y="0">hick</tspan></text><line class="l" x1="381.25" y1="468.5" x2="17.5" y2="468.5"/><line class="l" x1="199.37" y1="17.5" x2="199.37" y2="381.25"/><line class="l" x1="199.37" y1="381.25" x2="42.84" y2="224.72"/><line class="l" x1="199.37" y1="381.25" x2="359.81" y2="220.82"/></svg>