<?xml version="1.0" encoding="utf-8"?>
<!-- Generator: Adobe Illustrator 22.0.1, SVG Export Plug-In . SVG Version: 6.00 Build 0)  -->
<svg version="1.1" id="Layer_1" xmlns="http://www.w3.org/2000/svg" xmlns:xlink="http://www.w3.org/1999/xlink" x="0px" y="0px"
	 viewBox="0 0 400 490" style="enable-background:new 0 0 400 490;" xml:space="preserve">
<style type="text/css">
	.st0{fill:#06B76C;}
</style>
<path class="st0" d="M358.9,8.8C351.8,3.1,343,0,333.9,0H119.3l-15.1,15l0,0L77.5,41.4L42,76.5l-27,26.8L0,118.2v331.9
	c0.1,22,18,39.9,40,39.9h56.6c4.1,0,7.5-3.4,7.5-7.5s-3.4-7.5-7.5-7.5H38.8c-1.7-0.1-3.4-0.3-5-0.8c-0.8-0.2-1.6-0.4-2.3-0.7
	c-1.2-0.4-2.3-0.9-3.4-1.5c-0.4-0.2-0.9-0.5-1.3-0.8s-0.6-0.4-0.9-0.6c-0.6-0.4-1.2-0.9-1.8-1.4c-0.3-0.2-0.6-0.5-0.9-0.7
	C18,463.8,15,457.1,15,450V118.2h79.4c13.4,0,24.3-10.8,24.4-24.2l0.2-35.4l0.2-43.6l0,0h214.7c13.8,0,25,11.2,25,25v112.5
	c0,4.1,3.4,7.5,7.5,7.5s7.5-3.4,7.5-7.5V39.9C373.9,27.8,368.4,16.3,358.9,8.8z M104,58.5l-0.2,35.4c-0.1,5.1-4.2,9.2-9.4,9.3h-58
	l16.2-16L88,52l16-15.9V58.5z"/>
<path class="st0" d="M349.2,193.6c-31.4-31.4-74.8-50.8-122.8-50.8c-95.9,0-173.6,77.7-173.6,173.6S130.5,490,226.4,490
	S400,412.3,400,316.4C400,268.5,380.6,225,349.2,193.6z M307.4,417.3H145.5c-6.9,0-12.5-5.6-12.5-12.5c0-6.9,5.6-12.5,12.5-12.5
	h161.9c6.9,0,12.5,5.6,12.5,12.5C319.9,411.7,314.3,417.3,307.4,417.3z M289,285.7c4.8-5,12.7-5.1,17.7-0.3c5,4.8,5.1,12.7,0.3,17.7
	c-0.1,0.1-0.2,0.2-0.3,0.3l-71.3,71.3l-0.1,0.1c-0.5,0.4-1,0.8-1.5,1.2c-0.5,0.4-1,0.7-1.5,0.9c0,0,0,0-0.1,0
	c-0.2,0.1-0.3,0.2-0.4,0.2c0,0-0.1,0-0.1,0c-0.2,0.1-0.3,0.2-0.5,0.2s-0.3,0.1-0.5,0.2c0,0-0.1,0-0.1,0c-0.2,0.1-0.4,0.2-0.7,0.2
	c-0.2,0-0.3,0.1-0.5,0.1c-0.1,0-0.2,0-0.2,0c-0.1,0-0.3,0-0.4,0.1c-0.2,0-0.4,0.1-0.5,0.1c-0.1,0-0.1,0-0.2,0c-0.2,0-0.3,0-0.5,0.1
	c-0.1,0-0.1,0-0.2,0c-0.4,0-0.7,0.1-1.1,0.1c-0.4,0-0.7,0-1.1-0.1c0,0-0.1,0-0.2,0c-0.1,0-0.3,0-0.5-0.1c-0.7-0.1-1.3-0.2-1.9-0.4
	c-0.2,0-0.4-0.1-0.6-0.2s-0.4-0.1-0.6-0.2c-0.2-0.1-0.4-0.2-0.6-0.3c-1.7-0.8-3.1-1.9-4.3-3.4c0,0,0,0,0,0L148,305
	c-5-4.8-5.1-12.7-0.3-17.7s12.7-5.1,17.7-0.3c0.1,0.1,0.2,0.2,0.3,0.3l48.2,48.2V204c0-6.9,5.6-12.5,12.5-12.5
	c6.9,0,12.5,5.6,12.5,12.5v131.8L289,285.7z"/>
</svg>
