<?xml version="1.0" encoding="utf-8"?>
<!-- Generator: Adobe Illustrator 22.0.1, SVG Export Plug-In . SVG Version: 6.00 Build 0)  -->
<svg version="1.1" id="Layer_1" xmlns="http://www.w3.org/2000/svg" xmlns:xlink="http://www.w3.org/1999/xlink" x="0px" y="0px"
	 viewBox="0 0 398 490.4" style="enable-background:new 0 0 398 490.4;" xml:space="preserve">
<style type="text/css">
	.st0{fill:none;}
	.st1{fill:#FFFFFF;}
</style>
<title>Download_excel</title>
<path class="st0" d="M212,371.2c0.4,0.4,0.8,0.8,1.3,1.2c0.2,0.2,0.4,0.3,0.6,0.5s0.5,0.4,0.8,0.5s0.5,0.3,0.8,0.5l0.7,0.4
	c0.3,0.1,0.5,0.3,0.8,0.4s0.5,0.2,0.8,0.4l0.8,0.3c0.3,0.1,0.5,0.2,0.8,0.3l0.8,0.2c0.3,0.1,0.6,0.1,0.9,0.2s0.6,0.1,0.9,0.1
	s0.5,0.1,0.8,0.1c1.1,0.1,2.3,0.1,3.4,0c0.3,0,0.5-0.1,0.8-0.1s0.6-0.1,0.9-0.1s0.6-0.1,0.9-0.2l0.8-0.2c0.3-0.1,0.6-0.2,0.9-0.3
	l0.8-0.3c0.3-0.1,0.5-0.2,0.8-0.4s0.5-0.2,0.8-0.4s0.5-0.3,0.7-0.4s0.5-0.3,0.7-0.5s0.5-0.4,0.8-0.6s0.4-0.3,0.6-0.4l0,0
	c0.5-0.4,0.9-0.8,1.3-1.2l71.4-71.4c7-6.7,7.1-17.8,0.4-24.7c-6.7-7-17.8-7.1-24.7-0.4c-0.1,0.1-0.3,0.3-0.4,0.4l-41.5,41.5V196.9
	c0-9.7-7.8-17.5-17.5-17.5s-17.5,7.8-17.5,17.5v119.6l-39.8-39.8c-7.1-6.6-18.2-6.1-24.7,1c-6.2,6.7-6.2,17.1,0,23.8L212,371.2z"/>
<path class="st0" d="M305.4,397.1H143.5c-9.7,0-17.5,7.8-17.5,17.5s7.8,17.5,17.5,17.5h161.9c9.7,0,17.5-7.8,17.5-17.5
	S315,397.1,305.4,397.1z"/>
<polygon class="st0" points="99.8,68.8 69.3,99.1 99.7,99.1 "/>
<path class="st1" d="M224.4,143.2c-95.9,0-173.6,77.7-173.6,173.6c0,95.9,77.7,173.6,173.6,173.6c95.9,0,173.6-77.7,173.6-173.6
	c0,0,0,0,0,0C398,220.9,320.3,143.2,224.4,143.2C224.4,143.2,224.4,143.2,224.4,143.2z M142.4,276.8c6.8-6.8,17.9-6.8,24.7,0
	c0,0,0,0,0,0l39.8,39.8V196.9c0-9.7,7.8-17.5,17.5-17.5s17.5,7.8,17.5,17.5v119.6l41.5-41.5c6.7-7,17.8-7.1,24.7-0.4
	c7,6.7,7.1,17.8,0.4,24.7c-0.1,0.1-0.3,0.3-0.4,0.4l-71.4,71.4c-0.4,0.4-0.8,0.8-1.3,1.2l0,0c-0.2,0.1-0.4,0.3-0.6,0.4
	s-0.5,0.4-0.8,0.6s-0.5,0.3-0.7,0.5s-0.5,0.3-0.7,0.4s-0.5,0.3-0.8,0.4s-0.5,0.3-0.8,0.4l-0.8,0.3c-0.3,0.1-0.6,0.2-0.9,0.3
	l-0.8,0.2c-0.3,0.1-0.6,0.1-0.9,0.2s-0.6,0.1-0.9,0.1s-0.5,0.1-0.8,0.1c-1.1,0.1-2.3,0.1-3.4,0c-0.3,0-0.5-0.1-0.8-0.1
	s-0.6-0.1-0.9-0.1s-0.6-0.1-0.9-0.2l-0.8-0.2c-0.3-0.1-0.5-0.2-0.8-0.3l-0.8-0.3c-0.3-0.1-0.5-0.2-0.8-0.4s-0.5-0.3-0.8-0.4
	l-0.7-0.4c-0.3-0.2-0.5-0.3-0.8-0.5s-0.5-0.4-0.8-0.5s-0.4-0.3-0.6-0.5c-0.4-0.4-0.9-0.8-1.3-1.2l-69.7-69.6
	C135.5,294.7,135.5,283.6,142.4,276.8L142.4,276.8z M305.4,432.1H143.5c-9.7,0-17.5-7.8-17.5-17.5s7.8-17.5,17.5-17.5h161.9
	c9.7,0,17.5,7.8,17.5,17.5S315,432.1,305.4,432.1z"/>
<polygon class="st0" points="99.7,99.1 99.8,68.8 69.3,99.1 "/>
<path class="st1" d="M360.7,10.6L360.7,10.6C352.1,3.7,341.5,0,330.5,0H120.3l-86,85.2V85l-34.4,34v323c0,26.7,21.7,48.3,48.4,48.3
	c0,0,0.1,0,0.1,0h32.4c9.5,0,17.2-7.7,17.2-17.2S90.3,456,80.8,456c0,0,0,0,0,0H47.5c-0.9-0.1-1.8-0.2-2.7-0.4
	c-0.4-0.1-0.8-0.2-1.2-0.4c-0.7-0.2-1.3-0.5-1.9-0.9c-0.2-0.1-0.4-0.2-0.5-0.3l-0.1-0.1c-0.2-0.1-0.3-0.2-0.5-0.4
	c-0.4-0.3-0.7-0.5-1-0.8l-0.5-0.4c-2.9-2.6-4.6-6.4-4.6-10.3V133.4h66.3c18.3-0.1,33.2-14.8,33.4-33.1l0.3-65.9h196.1
	c7.7,0,14,6.3,14,14v89.2h0.1c0.6,9.5,8.8,16.7,18.2,16c8.6-0.6,15.5-7.4,16-16h0V48.4C378.9,33.7,372.2,19.7,360.7,10.6z
	 M99.7,99.1H69.3l30.5-30.3L99.7,99.1z"/>
</svg>
