<svg xmlns="http://www.w3.org/2000/svg" width="400" height="490" viewBox="0 0 400 490"><defs><style>.a{fill:#00b5b8;}</style></defs><title>Edit</title><path class="a" d="M382.54,36.1,343,7.86C323.13-6.32,294-.79,277.8,20.21L8.12,371A14.86,14.86,0,0,0,5,379.26L-.33,476.62a12.53,12.53,0,0,0,5.15,11,13.6,13.6,0,0,0,12.42,1.54L112.11,456a15.84,15.84,0,0,0,7.48-5.36L389.27,99.79C405.41,78.78,402.4,50.27,382.54,36.1ZM61,413.11c-3.67-2.62-4.2-7.94-1.17-11.88l228.28-297,13.31,9.51-228.28,297C70.09,414.67,64.66,415.74,61,413.11Z" transform="translate(0.35 0)"/></svg>