<svg id="Layer_1" data-name="Layer 1" xmlns="http://www.w3.org/2000/svg" width="400" height="490" viewBox="0 0 400 490"><title>Master_data_employee</title><g id="Thick"><g id="Menu_copy" data-name="Menu copy"><g id="Master_Data_Employee" data-name="Master Data Employee"><path d="M200,35c37.44,0,67.91,34.31,67.91,76.48S237.44,188,200,188s-67.91-34.3-67.91-76.48S162.56,35,200,35m0-35C143.17,0,97.09,49.91,97.09,111.48S143.17,223,200,223s102.91-49.91,102.91-111.48S256.83,0,200,0Z" transform="translate(0 0)"/><path d="M399.9,394a3.84,3.84,0,0,0-.11-.46,4.13,4.13,0,0,0-.17-.45,4.28,4.28,0,0,0-.2-.44,3.34,3.34,0,0,0-.25-.4c-.09-.13-.17-.27-.27-.39s-.22-.24-.33-.36-.22-.22-.34-.32-.26-.2-.39-.29l-.42-.27-.43-.19a4.14,4.14,0,0,0-.49-.19l-.15-.06-.35-.06-.32-.08a29.67,29.67,0,0,1,0-58.81,5.72,5.72,0,0,0,.67-.14l.15-.06a4.14,4.14,0,0,0,.49-.19,3.36,3.36,0,0,0,.43-.2c.15-.08.28-.17.42-.26s.26-.18.39-.29.23-.21.34-.32.23-.23.33-.36.18-.26.27-.39a3.34,3.34,0,0,0,.25-.4,4.43,4.43,0,0,0,.2-.45c.06-.14.12-.29.17-.44a3.57,3.57,0,0,0,.11-.47,3.85,3.85,0,0,0,.08-.49,3.54,3.54,0,0,0,0-.46,4.87,4.87,0,0,0,0-.54v-.16c0-.11-.06-.22-.08-.33s0-.22-.06-.34a132.06,132.06,0,0,0-12.61-30.41c-.06-.1-.13-.18-.19-.28s-.11-.19-.18-.29l-.12-.12a3.24,3.24,0,0,0-.36-.38,3.4,3.4,0,0,0-.34-.32,3.81,3.81,0,0,0-.41-.29,3.34,3.34,0,0,0-.4-.25c-.15-.08-.3-.14-.44-.2l-.45-.17a4.15,4.15,0,0,0-.48-.11l-.45-.08a4.35,4.35,0,0,0-.51,0h-.44l-.51.08-.46.1-.45.17a5,5,0,0,0-.48.21l-.15.07a2.43,2.43,0,0,0-.28.2c-.09.06-.19.1-.28.17a29.67,29.67,0,0,1-41.59-41.58,4.89,4.89,0,0,0,.39-.58l.06-.14a5.27,5.27,0,0,0,.22-.49,3.79,3.79,0,0,0,.27-.93c0-.15.06-.31.07-.47s0-.31,0-.47a3.93,3.93,0,0,0,0-.49c0-.16-.05-.31-.08-.47a3.84,3.84,0,0,0-.11-.46c-.05-.16-.11-.3-.17-.45a3.49,3.49,0,0,0-.2-.44,3.34,3.34,0,0,0-.25-.4,3.81,3.81,0,0,0-.29-.41c-.1-.12-.2-.23-.31-.34l-.4-.37-.11-.11a2.75,2.75,0,0,0-.29-.17,2.43,2.43,0,0,0-.28-.2,133.59,133.59,0,0,0-30.41-12.6l-.33-.06-.34-.08h-.16a4.52,4.52,0,0,0-.52,0,4.26,4.26,0,0,0-.5,0,3.07,3.07,0,0,0-.42.07,4.9,4.9,0,0,0-.55.13,2.26,2.26,0,0,0-.33.13,5.55,5.55,0,0,0-.56.24l-.29.19c-.17.11-.34.22-.5.34l-.27.26a5.14,5.14,0,0,0-.4.41c-.09.11-.16.23-.24.34a4.53,4.53,0,0,0-.3.46c-.07.13-.13.27-.19.41a4.29,4.29,0,0,0-.19.5l-.06.15c0,.12,0,.23-.06.35s-.06.21-.07.32a29.68,29.68,0,0,1-58.82,0c0-.12-.06-.22-.08-.33s0-.23-.06-.34,0-.09-.05-.15-.13-.33-.2-.5-.12-.28-.19-.42-.18-.28-.27-.41-.18-.27-.28-.4l-.32-.33a3.92,3.92,0,0,0-.37-.34l-.37-.26c-.14-.09-.28-.19-.43-.27s-.27-.12-.41-.18a3.94,3.94,0,0,0-.48-.18,3.13,3.13,0,0,0-.44-.1,3,3,0,0,0-.51-.09,3.39,3.39,0,0,0-.45,0,4.87,4.87,0,0,0-.54,0h-.17l-.33.08-.33.06a133.4,133.4,0,0,0-30.41,12.6c-.1.05-.18.13-.28.19s-.2.11-.29.18l-.12.11c-.14.12-.26.24-.39.37s-.22.22-.32.34-.19.27-.28.4-.18.27-.26.41-.13.29-.19.43-.13.3-.18.46-.07.31-.1.46-.07.31-.09.47,0,.32,0,.49a3.73,3.73,0,0,0,0,.47,3.54,3.54,0,0,0,.07.47,3.79,3.79,0,0,0,.27.93,5.16,5.16,0,0,0,.21.49s0,.09.07.14a3.87,3.87,0,0,0,.38.58A29.67,29.67,0,0,1,161.49,293c-.09-.07-.19-.11-.29-.18a2.75,2.75,0,0,0-.28-.19l-.15-.07a4.1,4.1,0,0,0-.48-.21,3.79,3.79,0,0,0-.93-.27l-.47-.08h-.48c-.16,0-.32,0-.48,0l-.48.09a3.63,3.63,0,0,0-.45.1,4.52,4.52,0,0,0-.47.18c-.14.06-.28.11-.41.18a4.28,4.28,0,0,0-.42.26l-.4.28c-.12.1-.23.22-.35.33l-.36.38a1.31,1.31,0,0,1-.11.12c-.07.1-.12.2-.18.29s-.14.18-.2.28A133.14,133.14,0,0,0,141.49,325c0,.12,0,.23-.05.34a2,2,0,0,0-.08.33c0,.06,0,.11,0,.17a3,3,0,0,0,0,.52c0,.16,0,.32,0,.47s.05.33.08.49.07.32.11.47.11.3.17.44l.2.45c.08.14.17.27.25.4s.18.27.28.39a2.73,2.73,0,0,0,.33.35,3.51,3.51,0,0,0,.34.33,4,4,0,0,0,.39.29l.42.27c.13.07.28.13.42.19a4.29,4.29,0,0,0,.5.19l.15.06a5.32,5.32,0,0,0,.67.14,29.67,29.67,0,0,1,0,58.81l-.33.08c-.11,0-.23,0-.34.06a1,1,0,0,0-.16.06,4.94,4.94,0,0,0-.49.19,3.23,3.23,0,0,0-.42.2c-.15.08-.28.17-.42.26a3.58,3.58,0,0,0-.39.29c-.12.1-.23.21-.34.32a3.7,3.7,0,0,0-.33.36c-.1.12-.19.26-.28.39s-.17.26-.25.4a4.43,4.43,0,0,0-.2.45c-.06.14-.12.29-.17.44s-.07.31-.11.47-.06.32-.08.49,0,.31,0,.47a3,3,0,0,0,0,.52c0,.06,0,.11,0,.17s.06.25.09.38,0,.19,0,.29a133.7,133.7,0,0,0,12.61,30.41,5.23,5.23,0,0,0,1,1.23l.16.14a5.69,5.69,0,0,0,.71.5h0a4.4,4.4,0,0,0,.77.34l.21.07a5.31,5.31,0,0,0,.81.19h0a4.89,4.89,0,0,0,.66,0l.21,0h.19a5,5,0,0,0,.85-.13h0a6.64,6.64,0,0,0,.81-.3l.2-.1c.07,0,.14-.06.2-.1a2.83,2.83,0,0,0,.28-.2,2.75,2.75,0,0,0,.29-.17,29.66,29.66,0,0,1,41.57,41.57c-.06.1-.11.2-.17.29s-.14.18-.2.28,0,.1-.07.15a5,5,0,0,0-.21.48,4,4,0,0,0-.16.45,4.15,4.15,0,0,0-.11.48,4,4,0,0,0-.07.48,3.65,3.65,0,0,0,0,.47c0,.16,0,.32,0,.48a3.55,3.55,0,0,0,.09.47c0,.16.06.32.1.47a4.22,4.22,0,0,0,.18.45c.06.15.12.29.19.44s.16.27.25.4.19.28.29.41.21.22.32.34a4.49,4.49,0,0,0,.39.36.63.63,0,0,0,.12.11,3.11,3.11,0,0,0,.38.25c.07,0,.12.09.18.13l.14.07a0,0,0,0,0,0,0A133.12,133.12,0,0,0,235,489.82a5.07,5.07,0,0,0,1.33.18l.19,0a2.31,2.31,0,0,0,.37,0l.51-.08.39-.1c.17,0,.32-.12.48-.18s.23-.09.34-.15a4.37,4.37,0,0,0,.72-.45l.19-.16a5,5,0,0,0,.47-.45c.08-.08.14-.17.21-.25a5,5,0,0,0,.34-.46l.18-.32a4.52,4.52,0,0,0,.23-.5,3.82,3.82,0,0,0,.13-.36.85.85,0,0,0,.06-.17c0-.11,0-.22.06-.33s.06-.22.08-.33a29.68,29.68,0,0,1,58.82,0,2.74,2.74,0,0,0,.08.37,2.93,2.93,0,0,0,0,.29.5.5,0,0,0,.05.13,2.6,2.6,0,0,0,.13.36,3.07,3.07,0,0,0,.2.45,3.3,3.3,0,0,0,.18.32,4.38,4.38,0,0,0,.28.42l.22.27a3,3,0,0,0,.35.36l.26.23a3.69,3.69,0,0,0,.4.29l.3.19.44.22.33.14a3.8,3.8,0,0,0,.51.14l.31.08a5.69,5.69,0,0,0,.83.08h0a5.13,5.13,0,0,0,1.33-.18,133.49,133.49,0,0,0,30.27-12.53h0l.13-.07.19-.13a4.13,4.13,0,0,0,.38-.25l.11-.1a4.83,4.83,0,0,0,.4-.38,3.19,3.19,0,0,0,.31-.33c.11-.13.2-.27.3-.41s.17-.27.24-.4a4.28,4.28,0,0,0,.2-.44c.06-.15.12-.3.17-.45a3.57,3.57,0,0,0,.11-.47c0-.15.06-.31.08-.46a4.1,4.1,0,0,0,0-.49c0-.16,0-.32,0-.47a4,4,0,0,0-.08-.48,4.1,4.1,0,0,0-.1-.48l-.16-.45a5.11,5.11,0,0,0-.22-.48l-.06-.15a2.92,2.92,0,0,0-.21-.28,2.75,2.75,0,0,0-.17-.29,29.67,29.67,0,0,1,41.58-41.57c.09.07.19.11.28.17s.18.14.28.2l.2.1.21.1a5.6,5.6,0,0,0,.81.3,5,5,0,0,0,.86.13h.19l.2,0a4.89,4.89,0,0,0,.66,0h0a5.93,5.93,0,0,0,.81-.19l.21-.07a4.21,4.21,0,0,0,.75-.34l0,0a4.88,4.88,0,0,0,.7-.49l.17-.14a5.19,5.19,0,0,0,1-1.23,132.8,132.8,0,0,0,12.61-30.41c0-.1,0-.2.05-.3s.07-.24.09-.37v-.16a5,5,0,0,0,0-.55,3.39,3.39,0,0,0,0-.45A4.33,4.33,0,0,0,399.9,394ZM270.67,413.58a52.94,52.94,0,1,1,52.94-52.94A53,53,0,0,1,270.67,413.58Z" transform="translate(0 0)"/><path d="M138,240.22H93.56A57.67,57.67,0,0,0,37.2,286.35L.35,469A17.5,17.5,0,0,0,14,489.65a17.26,17.26,0,0,0,3.48.35,17.52,17.52,0,0,0,17.14-14L71.51,293.27a22.56,22.56,0,0,1,22-18H138a17.5,17.5,0,0,0,0-35Z" transform="translate(0 0)"/></g></g></g></svg>