<svg id="Layer_1" data-name="Layer 1" xmlns="http://www.w3.org/2000/svg" width="490" height="490" viewBox="0 0 490 490"><defs><style>.cls-1{fill:#06b76c;}.cls-2{fill:#bbffe0;}</style></defs><title>excel</title><g id="Thick"><g id="Datatable_copy" data-name="Datatable copy"><g id="Excel"><path class="cls-1" d="M482.5,220.21H79.77a7.5,7.5,0,0,0-7.5,7.5V409.35a7.5,7.5,0,0,0,7.5,7.5H482.5a7.5,7.5,0,0,0,7.5-7.5V227.71A7.5,7.5,0,0,0,482.5,220.21ZM475,401.85H87.27V235.21H475Z"/><rect class="cls-2" x="87.27" y="235.21" width="387.73" height="166.64"/><path d="M161.81,349.16l22.43-32.75-18.87-29.12a57,57,0,0,1-4-7.28,14.5,14.5,0,0,1-1.33-5.84A6.77,6.77,0,0,1,162.6,269a9,9,0,0,1,6.25-2.29,8.65,8.65,0,0,1,6.6,2.49,63,63,0,0,1,6.53,9.26l15,24.34,16.06-24.34,3.39-5.26a26.37,26.37,0,0,1,2.7-3.62,8.63,8.63,0,0,1,2.9-2.16,9,9,0,0,1,3.73-.71,8.73,8.73,0,0,1,6.25,2.29,7.2,7.2,0,0,1,2.43,5.43q0,4.57-5.26,12.44l-19.76,29.53,21.26,32.75a55.64,55.64,0,0,1,4.17,7.14,13,13,0,0,1,1.3,5.37,8.41,8.41,0,0,1-4.44,7.52,9.87,9.87,0,0,1-4.79,1.16,9.2,9.2,0,0,1-4.85-1.2,10.35,10.35,0,0,1-3.22-3c-.82-1.19-2.34-3.49-4.58-6.91l-17.63-27.75L178,360.09q-2.19,3.42-3.11,4.79a18.57,18.57,0,0,1-2.23,2.67,9.78,9.78,0,0,1-3.07,2.05,10.71,10.71,0,0,1-4.17.75,8.62,8.62,0,0,1-6.12-2.26q-2.43-2.25-2.43-6.56Q156.82,356.48,161.81,349.16Z"/><path d="M270,279V352h41.15q4.92,0,7.55,2.39a7.78,7.78,0,0,1,2.64,6,7.61,7.61,0,0,1-2.6,6q-2.59,2.29-7.59,2.29h-49q-6.63,0-9.54-2.94t-2.9-9.5V279q0-6.15,2.76-9.23a9.34,9.34,0,0,1,7.28-3.07,9.66,9.66,0,0,1,7.42,3Q270,272.81,270,279Z"/><path d="M405.45,338.56a29.4,29.4,0,0,1-4.69,16.34,31.16,31.16,0,0,1-13.7,11.35q-9,4.1-21.4,4.1-14.84,0-24.47-5.61A32.58,32.58,0,0,1,330.08,354q-4.27-6.74-4.27-13.09a8.87,8.87,0,0,1,9.09-9,7.69,7.69,0,0,1,5.43,2.05,16.25,16.25,0,0,1,3.8,6.08,40.08,40.08,0,0,0,4.13,8,16.7,16.7,0,0,0,6.26,5.3,23.11,23.11,0,0,0,10.59,2.09q9,0,14.67-4.21t5.64-10.49a11.11,11.11,0,0,0-3-8.1,19.5,19.5,0,0,0-7.87-4.75,132.44,132.44,0,0,0-12.88-3.49,95.14,95.14,0,0,1-18.08-5.91A29.22,29.22,0,0,1,332,309.27q-4.26-5.85-4.27-14.53a25,25,0,0,1,4.51-14.69,28.4,28.4,0,0,1,13.06-9.88,53.53,53.53,0,0,1,20.1-3.45,49.62,49.62,0,0,1,16,2.29,33.68,33.68,0,0,1,11.18,6.08,25.46,25.46,0,0,1,6.49,8,18.36,18.36,0,0,1,2.05,8.14,9.63,9.63,0,0,1-2.56,6.53,8.19,8.19,0,0,1-6.39,2.9,7.36,7.36,0,0,1-5.3-1.74,23.39,23.39,0,0,1-3.93-5.71,26,26,0,0,0-6.56-8.85q-3.84-3.18-12.31-3.18-7.86,0-12.68,3.45t-4.82,8.31a8.44,8.44,0,0,0,1.64,5.19,13.91,13.91,0,0,0,4.51,3.76,30.29,30.29,0,0,0,5.81,2.46q2.94.9,9.71,2.6a150.71,150.71,0,0,1,15.35,4.38,46.54,46.54,0,0,1,11.69,5.81,24,24,0,0,1,7.52,8.64A27.71,27.71,0,0,1,405.45,338.56Z"/><path class="cls-1" d="M360.74,10.59h0A48.61,48.61,0,0,0,330.49,0H120.37l-86,85.19V85L0,119v323a48.35,48.35,0,0,0,48.4,48.32H361.69a17.2,17.2,0,0,0,0-34.4H47.51a13.37,13.37,0,0,1-2.67-.43,11.93,11.93,0,0,1-1.23-.38,17.43,17.43,0,0,1-1.93-.87c-.19-.1-.37-.21-.55-.32l-.12-.08c-.18-.1-.34-.22-.53-.35-.38-.26-.71-.51-1-.76l-.5-.44a13.8,13.8,0,0,1-4.56-10.29V133.45h66.26a33.5,33.5,0,0,0,33.39-33.14l.32-65.94H330.49a14,14,0,0,1,14,14V164.5h.06a17.18,17.18,0,0,0,34.29,0h.05V48.32A48.08,48.08,0,0,0,360.74,10.59ZM99.66,99.05H69.28L99.8,68.8Z"/></g></g></g></svg>