<svg id="Layer_1" data-name="Layer 1" xmlns="http://www.w3.org/2000/svg" width="396.57" height="410.4" viewBox="0 0 396.57 410.4"><title>reset_imei</title><g id="Thick"><g id="Menu_copy" data-name="Menu copy"><g id="Reset_Imei" data-name="Reset Imei"><path d="M394.38,319.81a7.5,7.5,0,0,0-10.61,0l-22,22a99.12,99.12,0,0,0-179.1-39.87A7.5,7.5,0,1,0,195,310.51a84.12,84.12,0,0,1,150.63,27.3l-18-18A7.5,7.5,0,0,0,317,330.42l33.38,33.38c.17.17.36.34.55.5l.08.05a4.91,4.91,0,0,0,.51.39l.09.05c.18.12.36.22.54.32l.07,0,.59.28.05,0c.21.08.43.16.64.22l.07,0c.21.06.42.12.64.16l.17,0,.56.08a7.05,7.05,0,0,0,1.5,0l.55-.08.17,0c.22,0,.44-.1.65-.16l.06,0c.22-.06.42-.14.63-.22l.06,0c.2-.08.39-.18.57-.27l.1-.05a4.94,4.94,0,0,0,.49-.3l.14-.08c.15-.1.29-.21.43-.32a1.67,1.67,0,0,0,.16-.12l.42-.38.12-.11,33.39-33.38A7.52,7.52,0,0,0,394.38,319.81Z" transform="translate(0 -39.8)"/><path d="M347.12,397.2a7.49,7.49,0,0,0-10.44,1.87,84.12,84.12,0,0,1-150.63-27.3l18,18a7.5,7.5,0,1,0,10.6-10.6l-33.38-33.39-.06,0c-.15-.15-.31-.3-.48-.44s-.12-.08-.17-.13l-.42-.31-.16-.09-.47-.29-.11-.05-.56-.26-.07,0a6.5,6.5,0,0,0-.62-.22l-.08,0a6.45,6.45,0,0,0-.63-.16l-.19,0-.54-.08c-.24,0-.49,0-.74,0s-.5,0-.75,0l-.54.08-.19,0c-.21,0-.42.1-.63.16l-.08,0c-.21.06-.41.14-.62.22l-.07,0-.55.26-.11.05c-.17.09-.32.19-.48.29l-.16.09-.42.31-.16.13c-.17.14-.33.29-.49.44l-.06,0-33.38,33.39a7.5,7.5,0,1,0,10.6,10.6l22-22A99.13,99.13,0,0,0,349,407.64,7.51,7.51,0,0,0,347.12,397.2Z" transform="translate(0 -39.8)"/><path d="M17.5,39.8A17.49,17.49,0,0,0,0,57.3v295a17.5,17.5,0,0,0,35,0V57.3A17.49,17.49,0,0,0,17.5,39.8Z" transform="translate(0 -39.8)"/><path d="M60.55,39.8a7.5,7.5,0,0,0-7.5,7.5v315a7.5,7.5,0,0,0,15,0V47.3A7.5,7.5,0,0,0,60.55,39.8Z" transform="translate(0 -39.8)"/><path d="M93.61,39.8a7.5,7.5,0,0,0-7.5,7.5v315a7.5,7.5,0,0,0,15,0V47.3A7.5,7.5,0,0,0,93.61,39.8Z" transform="translate(0 -39.8)"/><path d="M134.16,282.89V47.3a7.5,7.5,0,1,0-15,0v276A149.39,149.39,0,0,1,134.16,282.89Z" transform="translate(0 -39.8)"/><path d="M187.45,226.89V57.3a17.5,17.5,0,0,0-35,0V256.59A150.85,150.85,0,0,1,187.45,226.89Z" transform="translate(0 -39.8)"/><path d="M240.27,207V57.3a17.5,17.5,0,1,0-35,0V217.54A148.8,148.8,0,0,1,240.27,207Z" transform="translate(0 -39.8)"/><path d="M265.83,204.8q3.76,0,7.5.19V47.3a7.5,7.5,0,0,0-15,0V205Q262.05,204.8,265.83,204.8Z" transform="translate(0 -39.8)"/><path d="M326.42,217.55V57.3a17.5,17.5,0,0,0-35,0V207A149.48,149.48,0,0,1,326.42,217.55Z" transform="translate(0 -39.8)"/><path d="M359.47,237.63V47.3a7.5,7.5,0,0,0-15,0V227.06A148.72,148.72,0,0,1,359.47,237.63Z" transform="translate(0 -39.8)"/><path d="M394.53,277.73V47.3a7.5,7.5,0,0,0-15,0V257A149.89,149.89,0,0,1,394.53,277.73Z" transform="translate(0 -39.8)"/></g></g></g></svg>