<svg id="Layer_1" data-name="Layer 1" xmlns="http://www.w3.org/2000/svg" width="490" height="490" viewBox="0 0 490 490"><defs><style>.cls-1{fill:#fff;}</style></defs><title>Import_white</title><g id="Thick"><g id="DLL"><g id="Import"><path class="cls-1" d="M243.23,359.79a16.44,16.44,0,0,1-2-.12,15.37,15.37,0,0,1-8.07-3.61,12.62,12.62,0,0,1-.93-.87L90.77,213.72a15.42,15.42,0,0,1,21.81-21.8L227.82,307.16V15.42a15.42,15.42,0,1,1,30.83,0V307.16L377.42,188.39a15.42,15.42,0,0,1,21.81,21.8L254.14,355.28a15.39,15.39,0,0,1-9.85,4.48C243.94,359.78,243.59,359.79,243.23,359.79Z"/><path class="cls-1" d="M482.5,100H366.81a7.5,7.5,0,0,0,0,15H475V475H15V115H123.19a7.5,7.5,0,0,0,0-15H7.5A7.5,7.5,0,0,0,0,107.5v375A7.5,7.5,0,0,0,7.5,490h475a7.5,7.5,0,0,0,7.5-7.5v-375A7.5,7.5,0,0,0,482.5,100Z"/></g></g></g></svg>