<svg id="Layer_1" data-name="Layer 1" xmlns="http://www.w3.org/2000/svg" width="490" height="490" viewBox="0 0 490 490"><title>Live_tracking</title><g id="Thick"><g id="Menu_copy" data-name="Menu copy"><g id="Live_Tracking" data-name="Live Tracking"><path d="M245,0C162.9,0,96.34,64.43,96.34,143.91a140.9,140.9,0,0,0,38.47,96.6c.05.05.1.11.16.16,47,50.16,79.47,113.38,90.84,183.36v0c.28,1.81.57,3.62.83,5.44a19.4,19.4,0,0,0,36.72,0c.26-1.82.55-3.63.84-5.44v0c11.36-70,43.81-133.2,90.84-183.36l.16-.16a140.94,140.94,0,0,0,38.46-96.6C393.66,64.43,327.1,0,245,0Zm0,213.72c-39.83,0-72.1-31.26-72.1-69.81s32.27-69.8,72.1-69.8,72.12,31.24,72.12,69.8S284.82,213.72,245,213.72Z"/><path d="M245,490c-29.14,0-56.73-4.94-77.69-13.92-24.32-10.41-37.72-25.56-37.72-42.65,0-9.71,4.4-23.9,25.34-36.4a12.5,12.5,0,1,1,12.81,21.47c-8.23,4.91-13.15,10.49-13.15,14.93C154.59,446,190.65,465,245,465s90.41-19,90.41-31.57c0-4.44-4.92-10-13.15-14.93A12.5,12.5,0,1,1,335.07,397c20.94,12.5,25.34,26.69,25.34,36.4,0,17.09-13.4,32.24-37.72,42.65C301.73,485.06,274.14,490,245,490Z"/></g></g></g></svg>