<svg xmlns="http://www.w3.org/2000/svg" width="399.38" height="490.13" viewBox="0 0 399.38 490.13"><title>Logout</title><path d="M307.67,262.5H17.5a17.5,17.5,0,0,1,0-35H307.67a17.5,17.5,0,1,1,0,35Z" transform="translate(0 0.07)"/><path d="M104.32,349.32a17.45,17.45,0,0,1-12.38-5.13L5.13,257.37a17.49,17.49,0,0,1,24.74-24.74l86.82,86.82a17.5,17.5,0,0,1-12.37,29.87Z" transform="translate(0 0.07)"/><path d="M17.5,262.5A17.5,17.5,0,0,1,5.13,232.63l86.81-86.82a17.5,17.5,0,0,1,24.75,24.75L29.87,257.37A17.41,17.41,0,0,1,17.5,262.5Z" transform="translate(0 0.07)"/><path d="M381.88,490.07H176.27a17.5,17.5,0,0,1-17.5-17.5v-51a17.5,17.5,0,0,1,35,0v33.5H364.38V34.93H193.77v33.5a17.5,17.5,0,0,1-35,0v-51a17.5,17.5,0,0,1,17.5-17.5H381.88a17.51,17.51,0,0,1,17.5,17.5V472.57A17.51,17.51,0,0,1,381.88,490.07Z" transform="translate(0 0.07)"/></svg>