<svg xmlns="http://www.w3.org/2000/svg" width="490" height="490" viewBox="0 0 490 490"><title>Master_date</title><g id="Layer_1" data-name="Layer 1"><g id="Thick"><g id="Menu_copy" data-name="Menu copy"><g id="Master_Date" data-name="Master Date"><path d="M471.83,87.5H406.24a61.12,61.12,0,0,0-117.13,0H18.17a17.5,17.5,0,0,0,0,35H289.11a61.12,61.12,0,0,0,117.13,0h65.59a17.5,17.5,0,0,0,0-35ZM347.67,151.13A46.13,46.13,0,1,1,393.8,105,46.18,46.18,0,0,1,347.67,151.13Z"/><path d="M471.83,367.5H406.24a61.13,61.13,0,0,0-117.14,0H18.17a17.5,17.5,0,0,0,0,35H289.11a61.12,61.12,0,0,0,117.13,0h65.59a17.5,17.5,0,0,0,0-35ZM347.67,431.13A46.13,46.13,0,1,1,393.8,385,46.18,46.18,0,0,1,347.67,431.13Z"/><path d="M471.83,227.5H200.9a61.13,61.13,0,0,0-117.14,0H18.17a17.5,17.5,0,0,0,0,35H83.76a61.13,61.13,0,0,0,117.14,0H471.83a17.5,17.5,0,0,0,0-35Zm-329.5,63.63A46.13,46.13,0,1,1,188.46,245,46.18,46.18,0,0,1,142.33,291.13Z"/></g></g></g></g></svg>