<svg id="Layer_1" data-name="Layer 1" xmlns="http://www.w3.org/2000/svg" width="373.87" height="490" viewBox="0 0 373.87 490"><defs><style>.cls-1{fill:#d9f2ff;}.cls-2{fill:#005a92;}</style></defs><title>Menu_access</title><g id="Thick"><g id="Datatable_copy" data-name="Datatable copy"><g id="Menu_Access" data-name="Menu Access"><path class="cls-1" d="M373.52,39.92V450.08a39.74,39.74,0,0,1-14.18,30.47l-.13.13-.16.12c-.77.66-1.58,1.27-2.4,1.85s-1.8,1.22-2.74,1.78l-.48.28-1.12.61-.15.09-1.3.65a.46.46,0,0,1-.16.07c-.52.25-1,.49-1.57.71a.05.05,0,0,1,0,0c-.52.22-1,.43-1.58.62a37.89,37.89,0,0,1-4.32,1.34c-.52.13-1.05.25-1.58.36q-1.31.27-2.64.45l-.89.11-.47.05c-.34,0-.67.07-1,.09s-.58,0-.87.06c-.73,0-1.47.06-2.21.06H39.65a40,40,0,0,1-40-39.92V117.94l15-14.83v.21l27-26.8L77.14,41.39,103.77,15l0,0h0L118.91,0H333.52A40,40,0,0,1,373.52,39.92Z" transform="translate(0.35 0)"/><path class="cls-2" d="M333.52,0H118.91L103.77,15h0l0,0L77.14,41.39,41.69,76.52l-27,26.8h0v-.2L-.35,118V450.08a40,40,0,0,0,40,39.92H333.52c.74,0,1.48,0,2.21-.06.29,0,.58,0,.87-.06s.67-.05,1-.09l.47-.05.89-.11q1.33-.18,2.64-.45c.53-.11,1.06-.23,1.58-.36a37.84,37.84,0,0,0,4.32-1.33c.53-.2,1.06-.41,1.58-.63a.05.05,0,0,0,0,0c.53-.22,1.05-.46,1.57-.71a.46.46,0,0,0,.16-.07l1.3-.65.15-.09,1.12-.61.48-.28c.94-.56,1.85-1.15,2.74-1.77s1.63-1.2,2.4-1.86l.16-.12.13-.13a39.73,39.73,0,0,0,14.18-30.47V39.92A40,40,0,0,0,333.52,0Zm25,450.08a24.88,24.88,0,0,1-10,20c-.32.25-.65.48-1,.7s-.67.45-1,.65-.67.4-1,.59-.82.43-1.24.63-.66.3-1,.44-.62.25-.94.36l-.37.14c-.26.1-.52.19-.79.27-.52.17-1,.32-1.57.44q-.51.14-1,.24c-.36.08-.73.14-1.1.2l-.35,0c-.26,0-.52.08-.78.1l-.45.05-.71.05c-.54,0-1.09.06-1.64.06H39.65a24.76,24.76,0,0,1-6.24-.79,23.68,23.68,0,0,1-2.35-.73A25.31,25.31,0,0,1,27.74,472c-.44-.24-.88-.49-1.3-.76s-.63-.41-.94-.62c-.62-.43-1.22-.88-1.8-1.36-.29-.24-.57-.49-.85-.74a24.89,24.89,0,0,1-8.2-18.46V118.18H94.09A24.37,24.37,0,0,0,118.46,94l.17-35.42L118.84,15v0H333.52a25,25,0,0,1,25,25Z" transform="translate(0.35 0)"/><path class="cls-2" d="M315,171.91a92.3,92.3,0,1,0-169.79,64.44L57.59,363.52a5.25,5.25,0,0,0-.92,3.44l4.59,54a5.28,5.28,0,0,0,6.22,4.76,4.05,4.05,0,0,0,.5-.12l52.1-15a5.37,5.37,0,0,0,2.89-2.08l2.9-4.22,3.87-5.62L114.91,363l38.64,1.13,5.26-7.64L149,338.74l15.25,2.17-7.46-13.47,20.11,2.87,3.32-4.82-14.82-35.7L204,290.92l3-4.4,4.44-6.45A92.32,92.32,0,0,0,315,171.91Zm-64.74,3a19.13,19.13,0,0,1-14.42-3.08h0A19.26,19.26,0,0,1,243.23,137h0a19.26,19.26,0,0,1,7,37.89Z" transform="translate(0.35 0)"/></g></g></g></svg>