<svg xmlns="http://www.w3.org/2000/svg" width="398" height="490.37" viewBox="0 0 398 490.37"><title>Overtime</title><path d="M362.39,10.22h0A48.61,48.61,0,0,0,332.14-.37H122l-86,85.19v-.16l-34.4,34v323A48.35,48.35,0,0,0,50.05,490H82.4a17.2,17.2,0,1,0,0-34.4H49.16a13.37,13.37,0,0,1-2.67-.43,11.93,11.93,0,0,1-1.23-.38,15.75,15.75,0,0,1-1.93-.87,6.05,6.05,0,0,1-.55-.32l-.12-.08c-.18-.1-.34-.22-.54-.35-.37-.26-.7-.51-1-.76l-.5-.44a13.8,13.8,0,0,1-4.56-10.29V133.08h66.26A33.5,33.5,0,0,0,135.7,99.94L136,34H332.14a14,14,0,0,1,14,14v89.18h.06a17.18,17.18,0,0,0,34.29,0h.05V48A48.11,48.11,0,0,0,362.39,10.22ZM101.31,98.68H70.93l30.52-30.25Z" transform="translate(-1.65 0.37)"/><path d="M226.05,142.79a173.61,173.61,0,1,0,173.6,173.6A173.6,173.6,0,0,0,226.05,142.79Zm84.78,261.4a17.5,17.5,0,0,1-24.74,0l-72.42-72.42a17.44,17.44,0,0,1-3.19-4.38c-.08-.15-.19-.38-.3-.62s-.26-.57-.37-.85q-.33-.82-.57-1.65c-.08-.26-.15-.53-.21-.79l-.15-.71c-.06-.29-.1-.57-.15-.85s-.06-.5-.09-.78,0-.31,0-.46c0-.4,0-.82,0-1.29V188.68a17.5,17.5,0,0,1,35,0V312.15l67.29,67.29a17.48,17.48,0,0,1,0,24.75Z" transform="translate(-1.65 0.37)"/></svg>