<svg id="Layer_1" data-name="Layer 1" xmlns="http://www.w3.org/2000/svg" width="490" height="490" viewBox="0 0 490 490"><defs><style>.cls-1{fill:#ff7588;}.cls-2{fill:#ffdce4;}</style></defs><title>icon</title><g id="Thick"><g id="Datatable_copy" data-name="Datatable copy"><g id="PDF"><path class="cls-1" d="M482.5,220.21H79.77a7.5,7.5,0,0,0-7.5,7.5V409.35a7.5,7.5,0,0,0,7.5,7.5H482.5a7.5,7.5,0,0,0,7.5-7.5V227.71A7.5,7.5,0,0,0,482.5,220.21ZM475,401.85H87.27V235.21H475Z"/><rect class="cls-2" x="87.27" y="235.21" width="387.73" height="166.64"/><path d="M186.8,328.75H168.21v28.37q0,6.09-2.88,9.23a10.11,10.11,0,0,1-14.62,0q-2.81-3.11-2.81-9.12V280q0-6.69,3.08-9.57t9.77-2.87H186.8q11.55,0,17.77,1.78A26.48,26.48,0,0,1,215.2,275a25.5,25.5,0,0,1,6.8,9.71,34.15,34.15,0,0,1,2.33,12.92q0,15.32-9.44,23.21T186.8,328.75Zm-4.92-45.94H168.21v30.63h13.67a40.9,40.9,0,0,0,12-1.5,14,14,0,0,0,7.35-4.93,14.63,14.63,0,0,0,2.53-8.95,15.21,15.21,0,0,0-3.89-10.8Q195.48,282.82,181.88,282.81Z"/><path d="M253.86,267.57h26.45A71.61,71.61,0,0,1,298,269.48a32.6,32.6,0,0,1,13.4,7.18q15.65,13.39,15.65,40.74a79.86,79.86,0,0,1-1.57,16.48,48.92,48.92,0,0,1-4.85,13.43,41.65,41.65,0,0,1-8.41,10.7,34.73,34.73,0,0,1-8.82,5.81,40.17,40.17,0,0,1-10.29,3.08,78.54,78.54,0,0,1-12.4.89H254.27q-5.53,0-8.34-1.68a7.8,7.8,0,0,1-3.66-4.72,29.93,29.93,0,0,1-.85-7.89V280q0-6.56,2.94-9.5T253.86,267.57Zm7.86,16.06v68H277.1c3.37,0,6-.09,7.93-.27a24.59,24.59,0,0,0,6-1.37,16.19,16.19,0,0,0,5.33-3.07q10.19-8.62,10.19-29.67,0-14.83-4.48-22.22t-11-9.4a54.62,54.62,0,0,0-15.86-2Z"/><path d="M404.8,283.22h-40v25.64h33.42c3.1,0,5.42.69,6.94,2.08a7.17,7.17,0,0,1,2.29,5.58,7,7,0,0,1-2.32,5.53q-2.33,2.06-6.91,2.05H364.81v33q0,6.28-2.84,9.33a10.29,10.29,0,0,1-14.63,0q-2.83-3.07-2.84-9.3V280a17,17,0,0,1,1.3-7.14,8.09,8.09,0,0,1,4.07-4,17.16,17.16,0,0,1,7.08-1.26H404.8c3.23,0,5.64.72,7.21,2.15a8,8,0,0,1,0,11.35C410.44,282.51,408,283.22,404.8,283.22Z"/><path class="cls-1" d="M360.74,10.59h0A48.61,48.61,0,0,0,330.49,0H120.37l-86,85.19V85L0,119v323a48.35,48.35,0,0,0,48.4,48.32H361.69a17.2,17.2,0,0,0,0-34.4H47.51a13.37,13.37,0,0,1-2.67-.43,11.93,11.93,0,0,1-1.23-.38,17.43,17.43,0,0,1-1.93-.87c-.19-.1-.37-.21-.55-.32l-.12-.08c-.18-.1-.34-.22-.53-.35-.38-.26-.71-.51-1-.76l-.5-.44a13.8,13.8,0,0,1-4.56-10.29V133.45h66.26a33.5,33.5,0,0,0,33.39-33.14l.32-65.94H330.49a14,14,0,0,1,14,14V164.5h.06a17.18,17.18,0,0,0,34.29,0h.05V48.32A48.08,48.08,0,0,0,360.74,10.59ZM99.66,99.05H69.28L99.8,68.8Z"/></g></g></g></svg>