<svg xmlns="http://www.w3.org/2000/svg" width="400" height="490" viewBox="0 0 400 490"><title>Profile</title><path d="M199.65,35c37.45,0,67.91,34.31,67.91,76.48S237.1,188,199.65,188s-67.9-34.3-67.9-76.48S162.21,35,199.65,35m0-35C142.82,0,96.75,49.91,96.75,111.48S142.82,223,199.65,223s102.91-49.91,102.91-111.48S256.49,0,199.65,0Z" transform="translate(0.35 0)"/><path d="M399.3,469,362.45,286.35a57.66,57.66,0,0,0-56.36-46.13H93.22a57.67,57.67,0,0,0-56.37,46.13L0,469A17.5,17.5,0,0,0,34.31,476L71.16,293.27a22.57,22.57,0,0,1,22.06-18H306.09a22.56,22.56,0,0,1,22.05,18L365,476A17.5,17.5,0,0,0,399.3,469Z" transform="translate(0.35 0)"/></svg>