<svg xmlns="http://www.w3.org/2000/svg" width="400" height="400" viewBox="0 0 400 400"><defs><style>.a{fill:#f9dfc5;}.b{fill:#fff;}.c{fill:#00918d;}.d{fill:#00b5b8;}.e{fill:#e6e9ee;}.f{fill:#89ada7;}.g{fill:#b5a495;opacity:0.4;}.h{fill:#324a5e;}</style></defs><title>profile_picture</title><path class="a" d="M285.83,222.1c-6.59,10.43-16.32,16.61-23.79,15.79-.38,1-.77,1.88-1.17,2.8a88.79,88.79,0,0,1-16.51,25.59,70.9,70.9,0,0,1-5.45,5.26q-2.29,2-4.71,3.77a58.79,58.79,0,0,1-27.66,11.19,55,55,0,0,1-13.08,0,58.79,58.79,0,0,1-27.66-11.19q-2.42-1.76-4.71-3.77a70.78,70.78,0,0,1-5.44-5.26,89,89,0,0,1-16.69-26h0c-.34-.79-.67-1.58-1-2.39-7.48.82-17.21-5.36-23.8-15.79-8-12.68-8.35-26.85-.75-31.65a10.72,10.72,0,0,1,6.28-1.57,18.56,18.56,0,0,1,7.45,2c1.07,1,2.12,2.06,3.13,3.15l.08.08c0-.45,0-.9,0-1.34l0-.77c.9-22,7.88-41.84,18.82-56.86a64.14,64.14,0,0,0-.51-8.38q1.39,2.54,3.08,5c12.52-15.48,29.48-25,48.18-25,28.07,0,52.27,21.45,63.3,52.37,5.68,9.46,6.83,22,6.29,33.2,0,.14,0,.29,0,.43,0,.44,0,.89,0,1.34,1-1.12,2.12-2.21,3.22-3.24a17,17,0,0,1,9.38-2,10.28,10.28,0,0,1,4.34,1.5C294.18,195.25,293.84,209.42,285.83,222.1Z" transform="translate(0 -45)"/><path class="b" d="M260.33,325a60,60,0,0,1-10.1,33.42,60.58,60.58,0,0,0-22.91-20.38,59.7,59.7,0,0,0-13.25-4.88,60.33,60.33,0,0,0-64.3,25.26A60,60,0,0,1,139.67,325c0-1.43.05-2.85.15-4.25a60.11,60.11,0,0,1,11.62-31.56l.22-.3c.27.58.54,1.16.82,1.74a123.54,123.54,0,0,0,7.59,13.61c7.19,11.09,16.06,20.16,26.59,24.42A35.33,35.33,0,0,0,200,331.3a36.84,36.84,0,0,0,13.36-2.51c10.8-4.17,19.89-13.19,27.19-24.44a108.58,108.58,0,0,0,5.83-10.11v0l1.29-3h0l.89-2,.15.21a60,60,0,0,1,11.45,31.32C260.28,322.15,260.33,323.57,260.33,325Z" transform="translate(0 -45)"/><path class="c" d="M227.32,338.05,218.23,359H181.78l-9.1-20.92a60.29,60.29,0,0,1,54.64,0Z" transform="translate(0 -45)"/><path class="d" d="M231.69,442.5a202,202,0,0,1-63.37,0l9.86-61.23,3.6-22.29h36.45l3.59,22.3Z" transform="translate(0 -45)"/><path class="a" d="M247.68,291.24h0l-1.29,3v0a108.58,108.58,0,0,1-5.83,10.11c-7.3,11.25-16.39,20.27-27.19,24.44A36.84,36.84,0,0,1,200,331.3a35.33,35.33,0,0,1-13.34-2.63c-10.53-4.26-19.4-13.33-26.59-24.42a123.54,123.54,0,0,1-7.59-13.61c.19-.77.36-1.53.54-2.31l.33-1.57c.13-.63.25-1.26.37-1.89l.24-1.32c0-.3.11-.61.15-.91.09-.49.17-1,.24-1.48.2-1.27.37-2.54.52-3.83.08-.63.15-1.27.21-1.91s.13-1.26.18-1.89.11-1.33.15-2c.12-1.74.2-3.49.24-5.26a70.78,70.78,0,0,0,5.44,5.26q2.29,2,4.71,3.77a58.79,58.79,0,0,0,27.66,11.19,55,55,0,0,0,13.08,0,58.79,58.79,0,0,0,27.66-11.19q2.42-1.76,4.71-3.77a70.9,70.9,0,0,0,5.45-5.26c0,1.77.12,3.52.24,5.26q.06,1,.15,1.95c.05.65.11,1.3.18,1.94s.13,1.27.21,1.91q.42,3.54,1.06,7c.14.82.3,1.63.47,2.44.1.52.21,1,.32,1.56Q247.32,289.8,247.68,291.24Z" transform="translate(0 -45)"/><path class="e" d="M181.78,359h0l-3.6,22.29-9.86,61.23q-.73-.11-1.47-.24h0A200,200,0,0,1,37.48,361.59a226.37,226.37,0,0,1,19.94-15.87,241.24,241.24,0,0,1,84.76-38,59.42,59.42,0,0,0-2.36,13c-.1,1.4-.15,2.82-.15,4.25a60,60,0,0,0,10.1,33.42,60.58,60.58,0,0,1,22.91-20.38Z" transform="translate(0 -45)"/><path class="e" d="M362.52,361.59a200,200,0,0,1-129.36,80.67h0c-.49.09-1,.17-1.46.24l-9.87-61.23L218.23,359l9.09-20.92a60.58,60.58,0,0,1,22.91,20.38A60,60,0,0,0,260.33,325c0-1.44-.05-2.86-.16-4.27a59.34,59.34,0,0,0-2.35-13,241.32,241.32,0,0,1,84.76,38A227.85,227.85,0,0,1,362.52,361.59Z" transform="translate(0 -45)"/><path class="f" d="M400,245a199.07,199.07,0,0,1-37.48,116.59,227.85,227.85,0,0,0-19.94-15.87,241.32,241.32,0,0,0-84.76-38,59.91,59.91,0,0,0-9.1-18.33l-.15-.21c-.22-.29-.44-.59-.67-.88q-.6-.78-1.23-1.56c-.17-.81-.33-1.62-.47-2.44q-.64-3.45-1.06-7c-.08-.64-.15-1.27-.21-1.91s-.13-1.29-.18-1.94-.11-1.3-.15-1.95c-.12-1.74-.2-3.49-.24-5.26a88.79,88.79,0,0,0,16.51-25.59c.4-.92.79-1.85,1.17-2.8,7.47.82,17.2-5.36,23.79-15.79,8-12.68,8.35-26.85.76-31.65a10.28,10.28,0,0,0-4.34-1.5,17,17,0,0,0-9.38,2c-1.1,1-2.18,2.12-3.22,3.24,0-.45,0-.9,0-1.34,0-.14,0-.29,0-.43.54-11.22-.61-23.74-6.29-33.2-11-30.92-35.23-52.37-63.3-52.37-18.7,0-35.66,9.52-48.18,25q-1.68-2.48-3.08-5a64.14,64.14,0,0,1,.51,8.38c-10.94,15-17.92,34.9-18.82,56.86l0,.77c0,.44,0,.89,0,1.34l-.08-.08c-1-1.09-2.06-2.14-3.13-3.15a18.56,18.56,0,0,0-7.45-2,10.72,10.72,0,0,0-6.28,1.57c-7.6,4.8-7.26,19,.75,31.65,6.59,10.43,16.32,16.61,23.8,15.79.32.81.65,1.6,1,2.39h0a89,89,0,0,0,16.69,26c0,1.77-.12,3.52-.24,5.26,0,.66-.09,1.33-.15,2s-.11,1.26-.18,1.89-.13,1.28-.21,1.91c-.15,1.29-.32,2.56-.52,3.83-.07.49-.15,1-.24,1.48,0,.3-.1.61-.15.91l-.24,1.32c-.12.63-.24,1.26-.37,1.89-.43.52-.85,1-1.25,1.57l-.44.57-.22.3a60,60,0,0,0-9.26,18.55,241.24,241.24,0,0,0-84.76,38,226.37,226.37,0,0,0-19.94,15.87A199.07,199.07,0,0,1,0,245C0,134.54,89.55,45,200,45S400,134.54,400,245Z" transform="translate(0 -45)"/><path class="g" d="M244.6,271.54c-47,47-89.19,0-89.19,0,.12-1.74.2-3.49.24-5.26a70.78,70.78,0,0,0,5.44,5.26q2.29,2,4.71,3.77a58.79,58.79,0,0,0,27.66,11.19,55,55,0,0,0,13.08,0,58.79,58.79,0,0,0,27.66-11.19q2.42-1.76,4.71-3.77a70.9,70.9,0,0,0,5.45-5.26C244.4,268.05,244.48,269.8,244.6,271.54Z" transform="translate(0 -45)"/><path class="h" d="M291,163.43l-3.15-12.6s1.95,16.64-5.63,38.12A107.59,107.59,0,0,1,265.2,219.8a131.36,131.36,0,0,0,4.39-27.42c.54-11.22-.61-23.74-6.29-33.2a29.3,29.3,0,0,0-6.62-7.75c-30.83,18.74-60.55,6.45-75.85-2.83A80.33,80.33,0,0,1,170.15,141a20.37,20.37,0,0,0,5,6.57,55.23,55.23,0,0,0,6.46,5.2,49.46,49.46,0,0,1-29.79-21q-1.68-2.48-3.08-5a64.14,64.14,0,0,1,.51,8.38c-.18,25-16.64,34.09-18.82,56.86-.06.66-.11,1.34-.15,2a64.11,64.11,0,0,0,1.07,15,79.12,79.12,0,0,1-11.65-20.22c-4.79-11.85-8.21-28-3.47-46.24l-7.88,9.45s-5.12-31,22.73-44.62a48.92,48.92,0,0,1,4.67-2s-1.46-5.44-9.17-8.64a28.32,28.32,0,0,0-6.26-1.75,27.93,27.93,0,0,1,5.69,0c4,.41,9,1.77,12.25,5.8a12.86,12.86,0,0,1,1.89,3.27,57.66,57.66,0,0,1-1.44-6.2c-.9-5-1.43-12,1.14-16.45-.32,3.15-.32,9.45,2.52,13.86,0,0,9.19-32.18,60.39-29.4,4,.22,8.34.66,12.92,1.35a32.15,32.15,0,0,0-11.75,1.93,49.76,49.76,0,0,0-16.2,9.41,82,82,0,0,1,17.45-5c15.17-2.62,37.15-2.19,53.09,16,0,0-9.76-5.36-15.74-4.73,0,0,22.68,8.65,37.29,29.27a66.24,66.24,0,0,1,5.33,8.86C290.55,133.92,293.46,147.25,291,163.43Z" transform="translate(0 -45)"/></svg>