<svg id="Layer_1" data-name="Layer 1" xmlns="http://www.w3.org/2000/svg" width="399.41" height="297.26" viewBox="0 0 399.41 297.26"><defs><style>.cls-1{fill:#b0aecc;}</style></defs><title>refresh_grey</title><g id="Thick"><g id="DLL"><g id="refresh_grey" data-name="Refresh Card"><path class="cls-1" d="M199.7,393.63a144,144,0,0,1-98.8-39,17.5,17.5,0,0,1,23.92-25.56,109.15,109.15,0,0,0,74.88,29.57h.38A109.81,109.81,0,0,0,306.45,274L284,296.57a17.5,17.5,0,0,1-24.83-24.67l55-55.42q.5-.51,1.05-1a17.5,17.5,0,0,1,23.79.81l55.51,55.14a17.5,17.5,0,1,1-24.66,24.83l-27.05-26.86c-9.92,69.91-70,124-142.69,124.22Z" transform="translate(-0.36 -96.37)"/><path class="cls-1" d="M73.38,278.78c-.4,0-.8,0-1.19,0a17.41,17.41,0,0,1-11.12-5l0,0L5.53,218.57A17.5,17.5,0,0,1,30.2,193.73l27,26.85A144.69,144.69,0,0,1,199.93,96.37h.51a144,144,0,0,1,98.79,39,17.5,17.5,0,0,1-23.91,25.56,109.15,109.15,0,0,0-74.88-29.57h-.39A109.82,109.82,0,0,0,93.68,216l22.41-22.57a17.5,17.5,0,0,1,24.84,24.67l-55,55.42c-.34.34-.68.67-1,1a17.36,17.36,0,0,1-9.13,4.12A16.49,16.49,0,0,1,73.38,278.78Z" transform="translate(-0.36 -96.37)"/></g></g></g></svg>