<svg xmlns="http://www.w3.org/2000/svg" width="490" height="490" viewBox="0 0 490 490"><title>Report</title><g id="Layer_1" data-name="Layer 1"><g id="Thick"><g id="Menu_copy" data-name="Menu copy"><g id="Report"><path d="M280.29,216.26h92.19a5,5,0,0,0,5-5,97.3,97.3,0,0,0-97.19-97.2,5,5,0,0,0-5,5v92.2A5,5,0,0,0,280.29,216.26Z"/><path d="M117.52,317.94a5,5,0,1,0,0,10h63a5,5,0,0,0,3.88-1.84L198.31,309a99.64,99.64,0,0,0,161.43-78.22,7.49,7.49,0,0,0-7.5-7.5H267.55v-84.7a7.5,7.5,0,0,0-7.5-7.5,99.47,99.47,0,0,0-74.33,33.33l-13.81-13.8a5,5,0,0,0-3.54-1.47H117.52a5,5,0,1,0,0,10H166.3l13.1,13.1a99.5,99.5,0,0,0,11.38,130.17l-12.66,15.56Zm57.83-87.19A84.23,84.23,0,0,1,190.16,183L222,214.79a5,5,0,0,0,7.07-7.07L196.35,175a84.55,84.55,0,0,1,56.2-28.64v84.37a7.5,7.5,0,0,0,7.5,7.5h84.36a84.63,84.63,0,0,1-136.62,59.08l21.61-26.54a5,5,0,1,0-7.76-6.31l-21.35,26.23A84.43,84.43,0,0,1,175.35,230.75Z"/><path d="M369.31,366.13h-255a12.5,12.5,0,0,0,0,25h255a12.5,12.5,0,1,0,0-25Z"/><path d="M301.31,409.13h-187a12.5,12.5,0,0,0,0,25h187a12.5,12.5,0,1,0,0-25Z"/><path d="M416.29,10.22h0A48.58,48.58,0,0,0,386-.37H175.92L90,84.82v-.16l-34.41,34v323A48.35,48.35,0,0,0,104,490H386a48.37,48.37,0,0,0,48.41-48.32V48A48.09,48.09,0,0,0,416.29,10.22ZM155.35,68.43l-.14,30.25H124.83ZM400,441.68A13.8,13.8,0,0,1,395.48,452c-.2.17-.34.31-.5.44-.31.25-.64.5-1,.76l-.52.35-.13.08c-.18.11-.36.22-.55.32a18.4,18.4,0,0,1-1.94.87,11.93,11.93,0,0,1-1.23.38,13.14,13.14,0,0,1-2.67.43H103.07a13.35,13.35,0,0,1-2.68-.43,11.93,11.93,0,0,1-1.23-.38,18.3,18.3,0,0,1-1.93-.87c-.19-.1-.37-.21-.55-.32l-.11-.08c-.18-.1-.35-.22-.55-.35-.37-.26-.69-.51-1-.76-.16-.13-.31-.27-.5-.44A13.8,13.8,0,0,1,90,441.68V133.08h66.25A33.49,33.49,0,0,0,189.6,99.94L189.92,34H386a14,14,0,0,1,14,14Z"/></g></g></g></g></svg>