<svg id="Layer_1" data-name="Layer 1" xmlns="http://www.w3.org/2000/svg" width="397.38" height="445.75" viewBox="0 0 397.38 445.75"><defs><style>.cls-1{fill:#e6e6e6;}.cls-2{fill:#1a7bcd;}</style></defs><title>Reset</title><g id="Thick"><g id="Datatable_copy" data-name="Datatable copy"><g id="Reset"><circle class="cls-1" cx="198.69" cy="246.14" r="175.95"/><path class="cls-2" d="M237.2,22.13a17.43,17.43,0,0,0-12.33,5.08l-48.44,48.1a17.52,17.52,0,0,0-5.12,14.79v0h0v0h0a17.41,17.41,0,0,0,.37,1.91h0v0a17.46,17.46,0,0,0,4.37,7.86h0l0,0h0v0h0l0,0v0h0l0,0h0l0,0h0l0,0,48.2,48.54A17.5,17.5,0,1,0,249.28,124l-15.06-15.16c74.43,15.36,130.55,81.4,130.55,160.31,0,90.26-73.43,163.7-163.69,163.69S37.39,359.44,37.39,269.18A162.71,162.71,0,0,1,84.52,154.26c2.21-2.24,4.51-4.45,6.84-6.55a17.5,17.5,0,0,0-23.47-26c-2.82,2.55-5.61,5.22-8.29,7.94A197.54,197.54,0,0,0,2.39,269.18c0,109.56,89.13,198.69,198.69,198.69s198.69-89.13,198.69-198.69c0-100.09-74.39-183.13-170.79-196.73L249.53,52A17.49,17.49,0,0,0,237.2,22.13Z" transform="translate(-2.39 -22.13)"/></g></g></g></svg>