<svg id="Layer_1" data-name="Layer 1" xmlns="http://www.w3.org/2000/svg" width="490" height="490" viewBox="0 0 490 490"><defs><style>.cls-1{fill:#fff;}</style></defs><title>All_send_alert</title><g id="Thick"><g id="Button"><g id="All_Send_Alert" data-name="All Send Alert"><path class="cls-1" d="M471.5,195A7.31,7.31,0,0,0,457,196.58a676.46,676.46,0,0,1,3.79,73.9c0,34-2.2,66.54-6.18,91.73-4.23,26.73-8.95,36.07-11.08,39.09-2.13-3-6.85-12.36-11.08-39.09-2.32-14.7-4-31.93-5.06-50.48a44.52,44.52,0,0,0,0-82.51c.39-7.1.88-14.05,1.49-20.8a7.31,7.31,0,1,0-14.57-1.29c-.78,8.65-1.37,17.61-1.81,26.81,0,.09,0,.18,0,.28-.55,11.72-.84,23.83-.84,36.26s.29,24.61.84,36.33v.12c1.12,23.67,3.32,45.4,6.47,63.24,2.07,11.75,4.39,21.13,7.05,28.32L167.85,344.06h0L115.38,333V208l167.71-35.36a7.31,7.31,0,1,0-3-14.31L106.88,194.8l-53.71,5.7-.48.08-.23,0-.31.08-.39.11-.23.08-.46.17-.07,0a75.79,75.79,0,0,0,0,138.79l.07,0,.51.19.19.07.49.13.22,0h0q.38.07.75.12l49.35,5.24L148.51,485a7.32,7.32,0,0,0,6.94,5h51.77a7.32,7.32,0,0,0,7-9.48L177.1,361l262.24,55.3a12.17,12.17,0,0,0,4.16.72h.17c11.19-.15,18.72-14.6,24.41-46.81,4.71-26.7,7.3-62.1,7.3-99.69A691.1,691.1,0,0,0,471.5,195Zm-31,75.52a29.83,29.83,0,0,1-13.86,25.23c-.27-8.26-.4-16.7-.4-25.22s.14-17,.4-25.23A29.85,29.85,0,0,1,440.51,270.47Zm-420.2,0a61.16,61.16,0,0,1,26.32-50.26V320.74A61.19,61.19,0,0,1,20.31,270.48Zm177,204.89H160.74L119,348.71l41.73,8.79Z"/><path class="cls-1" d="M388.09,130.71A17.06,17.06,0,0,1,371,113.64V37a17.07,17.07,0,1,1,34.13,0v76.65A17.07,17.07,0,0,1,388.09,130.71Z"/><circle class="cls-1" cx="388.1" cy="159.35" r="13.44"/><path class="cls-1" d="M388.09,192.44a96.22,96.22,0,1,1,96.23-96.22A96.32,96.32,0,0,1,388.09,192.44Zm0-182.69a86.47,86.47,0,1,0,86.47,86.47A86.57,86.57,0,0,0,388.09,9.75Z"/></g></g></g></svg>