<?xml version="1.0" encoding="utf-8"?>
<!-- Generator: Adobe Illustrator 22.0.1, SVG Export Plug-In . SVG Version: 6.00 Build 0)  -->
<svg version="1.1" id="Layer_1" xmlns="http://www.w3.org/2000/svg" xmlns:xlink="http://www.w3.org/1999/xlink" x="0px" y="0px"
	 viewBox="0 0 490 490" style="enable-background:new 0 0 490 490;" xml:space="preserve">
<style type="text/css">
	.st0{fill:#FF850B;}
</style>
<g id="Send_Alert">
	<path d="M471.5,195c-0.7-4-4.5-6.6-8.5-5.9c-3.6,0.6-6.2,3.8-6,7.5c2.6,24.5,3.9,49.2,3.8,73.9c0,34-2.2,66.5-6.2,91.7
		c-4.2,26.7-9,36.1-11.1,39.1c-2.1-3-6.9-12.4-11.1-39.1c-2.3-14.7-4-31.9-5.1-50.5c22.8-9.2,33.8-35.2,24.5-58
		c-4.5-11.1-13.4-20-24.5-24.5c0.4-7.1,0.9-14,1.5-20.8c0.4-4-2.6-7.6-6.6-7.9s-7.6,2.6-7.9,6.6c-0.8,8.7-1.4,17.6-1.8,26.8v0.3
		c-0.5,11.7-0.8,23.8-0.8,36.3s0.3,24.6,0.8,36.3v0.1c1.1,23.7,3.3,45.4,6.5,63.2c2.1,11.8,4.4,21.1,7.1,28.3L167.9,344l-52.5-11
		V208l167.7-35.4c3.9-0.8,6.5-4.7,5.6-8.7c-0.8-4-4.7-6.5-8.6-5.7l-173.2,36.5l-53.7,5.7l-0.5,0.1h-0.2l-0.3,0.1l-0.4,0.1l-0.2,0.1
		l-0.5,0.2H51c-38.3,16.8-55.8,61.5-38.9,99.9c7.6,17.4,21.5,31.3,38.9,38.9h0.1l0.5,0.2l0.2,0.1l0.5,0.1h0.2c0.3,0,0.5,0.1,0.8,0.1
		l49.4,5.2L148.5,485c1,3,3.8,5,6.9,5h51.8c4,0,7.3-3.3,7.3-7.3c0-0.7-0.1-1.5-0.3-2.2L177.1,361l262.2,55.3
		c1.3,0.5,2.7,0.7,4.2,0.7h0.2c11.2-0.2,18.7-14.6,24.4-46.8c4.7-26.7,7.3-62.1,7.3-99.7C475.5,245.3,474.2,220.1,471.5,195z
		 M46.6,320.7c-16.5-11.4-26.3-30.2-26.3-50.3l0,0c0-20.1,9.8-38.8,26.3-50.3V320.7z M197.3,475.4h-36.6L119,348.7l41.7,8.8
		L197.3,475.4z M426.2,270.5c0-8.5,0.1-17,0.4-25.2c8.6,5.5,13.9,15,13.9,25.2v0.1c0,10.2-5.2,19.8-13.9,25.2
		C426.4,287.5,426.2,279,426.2,270.5z"/>
	<path class="st0" d="M440.5,270.5L440.5,270.5c0,10.3-5.2,19.8-13.9,25.3c-0.3-8.3-0.4-16.7-0.4-25.2s0.1-17,0.4-25.2
		C435.3,250.8,440.5,260.3,440.5,270.5z"/>
	<polygon class="st0" points="197.3,475.4 160.7,475.4 119,348.7 160.7,357.5 	"/>
	<path class="st0" d="M46.6,220.3v100.5c-16.5-11.4-26.3-30.2-26.3-50.3l0,0C20.3,250.5,30.1,231.7,46.6,220.3z"/>
	<g>
		<path class="st0" d="M484.3,98.1c-0.1,54.2-44,98.1-98.1,98.1c-54.2,0-98.1-43.9-98.1-98.1C288.1,43.9,332,0,386.2,0
			S484.3,43.9,484.3,98.1z"/>
		<path d="M386.1,133.3c-9.6,0-17.4-7.8-17.4-17.4c0,0,0,0,0-0.1V37.8c-0.2-9.6,7.3-17.6,17-17.8c9.6-0.2,17.6,7.3,17.8,17
			c0,0.3,0,0.6,0,0.9V116C403.5,125.5,395.8,133.3,386.1,133.3z"/>
		<circle cx="386.2" cy="162.5" r="13.7"/>
	</g>
</g>
</svg>
