<svg id="Layer_1" data-name="Layer 1" xmlns="http://www.w3.org/2000/svg" width="490" height="490" viewBox="0 0 490 490"><title>icon</title><g id="Thick"><g id="Menu_copy" data-name="Menu copy"><path id="Settings" d="M199.46,488.88a17.8,17.8,0,0,1-3.4-.33A247.73,247.73,0,0,1,129.43,465a17.49,17.49,0,0,1-6.31-25.42,40.66,40.66,0,0,0-60-53.89,17.49,17.49,0,0,1-25.94-3.55A247.69,247.69,0,0,1,3,305.66,17.51,17.51,0,0,1,17.84,284a40.66,40.66,0,0,0,0-80.68,17.49,17.49,0,0,1-14.79-21.7,248.38,248.38,0,0,1,27-65.18,17.51,17.51,0,0,1,25.81-4.88,40.65,40.65,0,0,0,57-57,17.51,17.51,0,0,1,4.88-25.81A248.4,248.4,0,0,1,183,1.66a17.51,17.51,0,0,1,21.7,14.8,40.66,40.66,0,0,0,80.68,0A17.51,17.51,0,0,1,307,1.66a248.07,248.07,0,0,1,65.18,27,17.51,17.51,0,0,1,4.88,25.81,40.65,40.65,0,0,0,57,57,17.51,17.51,0,0,1,25.81,4.88,248.74,248.74,0,0,1,27,65.18,17.51,17.51,0,0,1-14.8,21.7,40.66,40.66,0,0,0,0,80.68,17.51,17.51,0,0,1,14.8,21.7,248.74,248.74,0,0,1-27,65.18,17.51,17.51,0,0,1-25.81,4.88,40.65,40.65,0,0,0-57,57,17.51,17.51,0,0,1-4.88,25.81,248.64,248.64,0,0,1-52.37,23.37,17.5,17.5,0,0,1-22.44-13.53,40.66,40.66,0,0,0-80.5,4.31,17.48,17.48,0,0,1-17.45,16.17Zm-38.35-47.53a213.64,213.64,0,0,0,25.14,8.87,75.69,75.69,0,0,1,139.25-7.47q7-2.82,13.74-6.13A75.67,75.67,0,0,1,438,337.86a211.8,211.8,0,0,0,10.12-24.4,75.67,75.67,0,0,1,0-139.68A211.8,211.8,0,0,0,438,149.38a75.67,75.67,0,0,1-98.76-98.76,211.8,211.8,0,0,0-24.4-10.12,75.67,75.67,0,0,1-139.68,0,211.8,211.8,0,0,0-24.4,10.12A75.67,75.67,0,0,1,52,149.38a211.8,211.8,0,0,0-10.12,24.4,75.68,75.68,0,0,1,0,139.69,213,213,0,0,0,15.5,34.68,75.7,75.7,0,0,1,103.73,93.2ZM245,347.75A102.75,102.75,0,1,1,347.75,245,102.87,102.87,0,0,1,245,347.75Zm0-170.5A67.75,67.75,0,1,0,312.75,245,67.82,67.82,0,0,0,245,177.25Z"/></g></g></svg>