<svg xmlns="http://www.w3.org/2000/svg" width="490" height="490" viewBox="0 0 490 490"><title>Support</title><g id="Layer_1" data-name="Layer 1"><g id="Thick"><g id="Menu_copy" data-name="Menu copy"><g id="Support"><path d="M307.94,235.18A62.94,62.94,0,1,0,245,298.12,63,63,0,0,0,307.94,235.18ZM245,288.12a52.94,52.94,0,1,1,52.94-52.94A53,53,0,0,1,245,288.12Z"/><path d="M274.41,360.2c0,.12.06.24.08.36s0,.2.05.3a1.12,1.12,0,0,1,0,.13l.13.36a3.62,3.62,0,0,0,.2.45l.18.32a4.38,4.38,0,0,0,.28.42l.22.27a4,4,0,0,0,.35.36l.26.23a3.69,3.69,0,0,0,.4.29l.3.19.44.22.33.14a4.84,4.84,0,0,0,.51.14l.31.08a5.69,5.69,0,0,0,.83.08h0a5.07,5.07,0,0,0,1.33-.18A133.3,133.3,0,0,0,311,351.83h0l.13-.07.19-.13a3.11,3.11,0,0,0,.38-.25l.12-.11a3.41,3.41,0,0,0,.39-.37,3.19,3.19,0,0,0,.31-.33c.11-.13.2-.27.3-.41l.25-.4c.07-.15.13-.3.19-.44a4.13,4.13,0,0,0,.17-.45,4,4,0,0,0,.11-.47,4,4,0,0,0,.08-.46,4.1,4.1,0,0,0,0-.49,3.65,3.65,0,0,0,0-.47,4,4,0,0,0-.07-.48,4.15,4.15,0,0,0-.11-.48,4,4,0,0,0-.16-.45c-.07-.16-.13-.32-.21-.48s0-.1-.07-.15-.14-.19-.2-.28a2.82,2.82,0,0,0-.18-.29,29.67,29.67,0,0,1,41.58-41.58c.09.07.19.12.28.18a3,3,0,0,0,.29.2l.19.1.21.1a6.64,6.64,0,0,0,.81.3h0a5.11,5.11,0,0,0,.86.13H357l.2,0a4.89,4.89,0,0,0,.66-.05h0a5.6,5.6,0,0,0,.81-.19l.21-.07a4.3,4.3,0,0,0,.76-.34l0,0a5.61,5.61,0,0,0,.71-.49,1.07,1.07,0,0,1,.16-.14,5.19,5.19,0,0,0,1-1.23,133.17,133.17,0,0,0,12.62-30.42c0-.09,0-.19.05-.29s.06-.24.08-.37,0-.11,0-.16,0-.36,0-.55,0-.3,0-.45a4.37,4.37,0,0,0-.09-.5c0-.16-.06-.31-.1-.46a4.22,4.22,0,0,0-.18-.45c-.06-.15-.12-.29-.19-.44s-.17-.27-.26-.4a3.39,3.39,0,0,0-.27-.39c-.1-.13-.22-.24-.33-.36s-.22-.22-.34-.32a3.58,3.58,0,0,0-.39-.29c-.14-.09-.27-.19-.42-.27a4.28,4.28,0,0,0-.43-.19,4.14,4.14,0,0,0-.49-.19l-.15-.06c-.11,0-.23,0-.34-.06l-.33-.08a29.67,29.67,0,0,1,0-58.81,5.32,5.32,0,0,0,.67-.14.94.94,0,0,0,.15-.06,5.1,5.1,0,0,0,.5-.19,3.23,3.23,0,0,0,.42-.2c.15-.08.28-.17.42-.26s.27-.18.39-.29.23-.21.34-.32.23-.24.33-.36a4.56,4.56,0,0,0,.27-.39c.09-.13.18-.26.26-.4s.13-.3.19-.45a2.35,2.35,0,0,0,.17-.44,3.57,3.57,0,0,0,.11-.47,3.86,3.86,0,0,0,.09-.49c0-.15,0-.31,0-.46s0-.36,0-.54,0-.11,0-.16-.06-.22-.08-.33,0-.22-.05-.34a132.54,132.54,0,0,0-12.62-30.41c-.05-.1-.13-.18-.19-.28s-.11-.2-.18-.29l-.11-.12a4.44,4.44,0,0,0-.37-.38,3.4,3.4,0,0,0-.34-.32,3.81,3.81,0,0,0-.41-.29,3.34,3.34,0,0,0-.4-.25,3.49,3.49,0,0,0-.44-.2c-.15-.06-.29-.12-.45-.17a3.38,3.38,0,0,0-.48-.11l-.45-.08a4.35,4.35,0,0,0-.51,0h-.44l-.51.08-.45.1-.46.17a4,4,0,0,0-.47.21l-.16.07a2.61,2.61,0,0,0-.27.19c-.1.07-.2.11-.29.18A29.67,29.67,0,0,1,312.6,126a4.84,4.84,0,0,0,.38-.58s0-.1.07-.14a5.16,5.16,0,0,0,.21-.49,3.79,3.79,0,0,0,.27-.93,3.81,3.81,0,0,0,.07-.47,3.73,3.73,0,0,0,0-.47,3.93,3.93,0,0,0,0-.49,7.18,7.18,0,0,0-.19-.93,3.47,3.47,0,0,0-.17-.45c-.06-.15-.12-.3-.19-.44s-.17-.27-.25-.4-.19-.28-.3-.41a3.28,3.28,0,0,0-.31-.34c-.13-.13-.25-.25-.39-.37a.63.63,0,0,1-.12-.11,2.75,2.75,0,0,0-.29-.17,1.79,1.79,0,0,0-.28-.2A133.59,133.59,0,0,0,280.69,106l-.33-.06-.34-.08h-.16a4.35,4.35,0,0,0-.51,0,4.1,4.1,0,0,0-.5,0,3,3,0,0,0-.43.07,3.65,3.65,0,0,0-.55.13,2.26,2.26,0,0,0-.33.13,5.55,5.55,0,0,0-.56.24l-.29.19a3.3,3.3,0,0,0-.49.34,3.45,3.45,0,0,0-.28.26,5.18,5.18,0,0,0-.4.41l-.24.34c-.1.15-.21.3-.3.46s-.12.27-.18.41-.14.33-.2.5a.94.94,0,0,1-.06.15c0,.12,0,.23-.05.35a1.87,1.87,0,0,0-.08.32,29.68,29.68,0,0,1-58.82,0,2.09,2.09,0,0,0-.08-.34c0-.11,0-.22,0-.33a.67.67,0,0,1-.06-.15,5.1,5.1,0,0,0-.19-.5l-.2-.42a4.94,4.94,0,0,0-.27-.42l-.28-.39c-.1-.12-.21-.22-.32-.33a3.92,3.92,0,0,0-.37-.34,3.09,3.09,0,0,0-.37-.26c-.14-.09-.28-.19-.43-.27s-.27-.12-.41-.18a4.52,4.52,0,0,0-.47-.18c-.15,0-.29-.07-.44-.11a4.34,4.34,0,0,0-.52-.08,3.39,3.39,0,0,0-.45,0,4.87,4.87,0,0,0-.54,0H210l-.34.08c-.11,0-.22,0-.33.06a133.59,133.59,0,0,0-30.41,12.6c-.1,0-.18.13-.28.19s-.2.11-.29.18l-.12.11a4.44,4.44,0,0,0-.38.37,3.4,3.4,0,0,0-.32.34,3.69,3.69,0,0,0-.29.4c-.09.14-.18.27-.26.41s-.13.29-.19.43a3.61,3.61,0,0,0-.17.46,3.43,3.43,0,0,0-.11.46,5.22,5.22,0,0,0,.09,2.39,3.89,3.89,0,0,0,.16.44,5.27,5.27,0,0,0,.22.49,1.47,1.47,0,0,0,.06.14,4.84,4.84,0,0,0,.38.58,29.67,29.67,0,0,1-41.58,41.58c-.09-.07-.19-.11-.29-.18a2.61,2.61,0,0,0-.27-.19l-.15-.07a4.25,4.25,0,0,0-.49-.21l-.44-.17-.49-.1-.47-.08h-.48a3.62,3.62,0,0,0-.47,0l-.49.08c-.15,0-.3.06-.45.11a3.66,3.66,0,0,0-.46.18,4.08,4.08,0,0,0-.42.18c-.15.08-.28.17-.42.26l-.4.28c-.12.1-.23.22-.35.33a4.26,4.26,0,0,0-.35.38l-.12.12c-.07.09-.11.2-.18.29s-.14.18-.19.28a132.25,132.25,0,0,0-12.61,30.41c0,.12,0,.23-.06.34s-.06.21-.08.33a.85.85,0,0,0,0,.16,4.78,4.78,0,0,0,0,.53c0,.16,0,.32,0,.47a3.86,3.86,0,0,0,.09.49,3.57,3.57,0,0,0,.11.47,2.65,2.65,0,0,0,.17.44c.06.15.12.3.19.45s.17.27.26.4a4.56,4.56,0,0,0,.27.39c.1.12.22.24.33.35a3.23,3.23,0,0,0,.73.61,3.74,3.74,0,0,0,.42.27,4,4,0,0,0,.42.2,5.1,5.1,0,0,0,.5.19l.15.06a5.72,5.72,0,0,0,.67.14,29.67,29.67,0,0,1,0,58.81l-.33.08-.34.06-.15.06a4.14,4.14,0,0,0-.49.19l-.43.19c-.15.08-.28.18-.42.27a3.58,3.58,0,0,0-.39.29c-.12.1-.23.21-.34.32s-.23.23-.33.36a3.39,3.39,0,0,0-.27.39c-.09.13-.18.26-.26.4l-.2.45a3.29,3.29,0,0,0-.16.44,3.57,3.57,0,0,0-.11.47,3.86,3.86,0,0,0-.09.49c0,.15,0,.31,0,.47a4.52,4.52,0,0,0,0,.52,1,1,0,0,0,0,.17c0,.13.06.25.09.38a2.33,2.33,0,0,0,0,.28,132.69,132.69,0,0,0,12.61,30.42,5,5,0,0,0,1,1.23l.15.13a4.88,4.88,0,0,0,.71.51h0a4.3,4.3,0,0,0,.76.34l.21.07a5.93,5.93,0,0,0,.81.19h0a4.89,4.89,0,0,0,.66.05l.2,0h.19a4.85,4.85,0,0,0,.85-.13h0a6.64,6.64,0,0,0,.81-.3l.21-.1.19-.1a2,2,0,0,0,.28-.2,2.82,2.82,0,0,0,.29-.18,29.67,29.67,0,0,1,41.58,41.58c-.07.09-.12.2-.18.29s-.14.18-.2.28a.94.94,0,0,0-.06.15,5.11,5.11,0,0,0-.22.48c-.06.15-.12.3-.16.44a4.85,4.85,0,0,0-.11.49,4.11,4.11,0,0,0-.07.47,7.69,7.69,0,0,0,0,1,3.55,3.55,0,0,0,.08.47,4,4,0,0,0,.11.47,4.13,4.13,0,0,0,.17.45c.06.15.12.29.19.43l.25.41c.1.14.19.28.3.41a3.19,3.19,0,0,0,.31.33,4.51,4.51,0,0,0,.39.37l.12.11a3.22,3.22,0,0,0,.39.25c.06,0,.11.09.18.13l.13.07h0a133.49,133.49,0,0,0,30.27,12.53,5.07,5.07,0,0,0,1.33.18l.19,0a2.22,2.22,0,0,0,.37,0,4.34,4.34,0,0,0,.52-.09,2.74,2.74,0,0,0,.39-.09c.16-.05.32-.12.47-.18l.35-.15a5.41,5.41,0,0,0,.72-.45l.18-.16a5.11,5.11,0,0,0,.48-.45l.21-.25c.11-.15.23-.3.33-.46s.12-.21.18-.32a4.52,4.52,0,0,0,.23-.5,2.6,2.6,0,0,0,.13-.36s.05-.11.07-.17,0-.22,0-.33a2,2,0,0,0,.08-.33,29.68,29.68,0,0,1,58.82,0Zm-67.53-7a122.46,122.46,0,0,1-18.36-7.61,39.67,39.67,0,0,0-53.9-53.91A121.79,121.79,0,0,1,127,273.31a39.68,39.68,0,0,0,0-76.25,122.46,122.46,0,0,1,7.61-18.36,39.67,39.67,0,0,0,53.91-53.91,124.41,124.41,0,0,1,18.36-7.61,39.67,39.67,0,0,0,76.24,0,124.41,124.41,0,0,1,18.36,7.61,39.68,39.68,0,0,0,53.91,53.91A122.46,122.46,0,0,1,363,197.06a39.68,39.68,0,0,0,0,76.25,122.78,122.78,0,0,1-7.61,18.35,39.67,39.67,0,0,0-53.91,53.91,122.46,122.46,0,0,1-18.36,7.61,39.67,39.67,0,0,0-76.24,0Z"/><path d="M439.92,200.08v-1.41C439.92,91.2,352.48,3.76,245,3.76S50.08,91.2,50.08,198.67v1.41A57.58,57.58,0,0,0,3.13,256.59v50a57.56,57.56,0,0,0,57.5,57.5h30.1a12.5,12.5,0,0,0,12.5-12.5v-140a12.5,12.5,0,0,0-12.5-12.5H85.08v-.42c0-88.18,71.74-159.91,159.92-159.91s159.92,71.73,159.92,159.91v.42h-5.65a12.5,12.5,0,0,0-12.5,12.5v140a12.5,12.5,0,0,0,12.5,12.5h11.17a84.26,84.26,0,0,1-75.26,65.4,36.58,36.58,0,0,0-35.78-29.24H260.21a36.55,36.55,0,0,0-36.5,36.5v2.86a36.54,36.54,0,0,0,36.5,36.5H299.4a36.57,36.57,0,0,0,33.25-21.44,109.28,109.28,0,0,0,103.35-91,57.57,57.57,0,0,0,50.87-57.11v-50A57.58,57.58,0,0,0,439.92,200.08Z"/></g></g></g></g></svg>