<svg xmlns="http://www.w3.org/2000/svg" width="377.61" height="489" viewBox="0 0 377.61 489"><defs><style>.a{fill:none;stroke:#000;stroke-linecap:round;stroke-linejoin:round;stroke-width:35px;}</style></defs><title>Task_assignment</title><polyline class="a" points="85.91 281.77 139.4 344.46 291.7 220.53"/><path d="M340.59,68.34H315.16a38.22,38.22,0,0,0-13.61-26.05l-.48-.39a38.37,38.37,0,0,0-24-8.5H232.64a33,33,0,0,0-66,0H122.28A38,38,0,0,0,99.37,41c-1,.72-1.92,1.51-2.83,2.33a38.5,38.5,0,0,0-4.93,5.43,38,38,0,0,0-5.28,9.74c-.22.59-.42,1.18-.61,1.79a37.88,37.88,0,0,0-1.57,8H58.71a47.92,47.92,0,0,0-47.86,47.87V441.63A47.92,47.92,0,0,0,58.71,489.5H340.59a47.92,47.92,0,0,0,47.87-47.87V116.21A47.92,47.92,0,0,0,340.59,68.34ZM199.65,18a14.43,14.43,0,1,1-14.43,14.43A14.43,14.43,0,0,1,199.65,18ZM355.07,441.63a14.5,14.5,0,0,1-14.48,14.48H58.71a14.5,14.5,0,0,1-14.48-14.48V116.21a14.5,14.5,0,0,1,14.48-14.48H84.05a38.33,38.33,0,0,0,38.23,36.36H277a38.32,38.32,0,0,0,38.22-36.36h25.34a14.5,14.5,0,0,1,14.48,14.48Z" transform="translate(-10.85 -0.5)"/></svg>