<svg id="Layer_1" data-name="Layer 1" xmlns="http://www.w3.org/2000/svg" width="398" height="490.37" viewBox="0 0 398 490.37"><title>Template</title><g id="Thick"><g id="Button"><g id="Template"><path d="M228.72,390.47a17.49,17.49,0,0,1,24.75,0l39.78,39.78V310.62a17.5,17.5,0,0,1,35,0V430.25l41.53-41.52a17.5,17.5,0,1,1,24.74,24.75l-71.39,71.39q-.61.61-1.29,1.17l0,0-.55.4c-.26.19-.51.39-.78.57s-.49.3-.74.45-.48.3-.73.43-.52.25-.78.38-.51.25-.77.36l-.77.28c-.28.1-.56.21-.85.3l-.78.2c-.29.07-.58.15-.88.21s-.61.1-.91.14-.52.09-.78.11a16.58,16.58,0,0,1-3.45,0c-.26,0-.51-.07-.77-.11s-.62-.08-.93-.14-.57-.14-.85-.21l-.81-.21c-.28-.08-.55-.18-.82-.28l-.8-.29-.74-.35-.81-.39c-.24-.13-.46-.27-.7-.41s-.51-.3-.76-.47-.51-.37-.76-.55-.42-.3-.62-.47a14.1,14.1,0,0,1-1.28-1.16l-69.66-69.66A17.5,17.5,0,0,1,228.72,390.47Z" transform="translate(-1.65 0.37)"/><path d="M362.39,10.22h0A48.61,48.61,0,0,0,332.14-.37H122l-86,85.19v-.16l-34.4,34v323A48.35,48.35,0,0,0,50.05,490H187.4a17.2,17.2,0,1,0,0-34.4H49.16a13.37,13.37,0,0,1-2.67-.43,11.93,11.93,0,0,1-1.23-.38,15.75,15.75,0,0,1-1.93-.87,6.05,6.05,0,0,1-.55-.32l-.12-.08c-.18-.1-.34-.22-.54-.35-.37-.26-.7-.51-1-.76l-.5-.44a13.8,13.8,0,0,1-4.56-10.29V133.08h66.26A33.5,33.5,0,0,0,135.7,99.94L136,34H332.14a14,14,0,0,1,14,14V257.13h.06a17.18,17.18,0,0,0,34.29,0h.05V48A48.11,48.11,0,0,0,362.39,10.22ZM101.31,98.68H70.93l30.52-30.25Z" transform="translate(-1.65 0.37)"/><path d="M306.64,124.73H176.15a7.5,7.5,0,0,1-7.5-7.5V68.43a7.5,7.5,0,0,1,7.5-7.5H306.64a7.5,7.5,0,0,1,7.5,7.5v48.8A7.5,7.5,0,0,1,306.64,124.73Zm-123-15H299.14V75.93H183.65Z" transform="translate(-1.65 0.37)"/><path d="M184.27,333H75.55a7.5,7.5,0,0,1-7.5-7.5V276.7a7.5,7.5,0,0,1,7.5-7.5H241.39a7.5,7.5,0,0,1,0,15H83.05V318H184.27a7.5,7.5,0,0,1,0,15Z" transform="translate(-1.65 0.37)"/><path d="M306.64,243H75.55a7.5,7.5,0,0,1-7.5-7.5V186.7a7.5,7.5,0,0,1,7.5-7.5H306.64a7.5,7.5,0,0,1,7.5,7.5v48.79A7.5,7.5,0,0,1,306.64,243ZM83.05,228H299.14V194.2H83.05Z" transform="translate(-1.65 0.37)"/><circle cx="102.94" cy="392.04" r="36.54"/></g></g></g></svg>