<?xml version="1.0" encoding="utf-8"?>
<!-- Generator: Adobe Illustrator 22.0.1, SVG Export Plug-In . SVG Version: 6.00 Build 0)  -->
<svg version="1.1" id="Layer_1" xmlns="http://www.w3.org/2000/svg" xmlns:xlink="http://www.w3.org/1999/xlink" x="0px" y="0px"
	 viewBox="0 0 400.1 490.5" style="enable-background:new 0 0 400.1 490.5;" xml:space="preserve">
<style type="text/css">
	.st0{fill:#FFFFFF;}
</style>
<title>View</title>
<path class="st0" d="M394.6,459.1L394.6,459.1L313,379.4c16.9-22.9,26.1-50.7,26.1-79.2c0-73.6-59.9-133.5-133.5-133.5
	S72,226.5,72,300.2s59.9,133.5,133.5,133.5c29.6,0,58.4-9.9,81.8-28.1l81.6,79.7c7.2,7.1,18.8,7,25.9-0.2c0,0,0.1-0.1,0.1-0.1
	C402.1,477.7,401.9,466.1,394.6,459.1z"/>
<path class="st0" d="M360.7,10.6L360.7,10.6C352.1,3.7,341.5,0,330.5,0H120.4l-86,85.2V85L0,119v323c0,26.7,21.7,48.3,48.4,48.3
	c0,0,0,0,0,0h32.3c9.5,0,17.2-7.7,17.2-17.2s-7.7-17.2-17.2-17.2c0,0,0,0,0,0H47.5c-0.9-0.1-1.8-0.2-2.7-0.4
	c-0.4-0.1-0.8-0.2-1.2-0.4c-0.7-0.3-1.3-0.5-1.9-0.9c-0.2-0.1-0.4-0.2-0.5-0.3l-0.1-0.1c-0.2-0.1-0.3-0.2-0.5-0.4
	c-0.4-0.3-0.7-0.5-1-0.8l-0.5-0.4c-2.9-2.6-4.6-6.4-4.6-10.3V133.4h66.3c18.3-0.1,33.2-14.8,33.4-33.1l0.3-65.9h196.1
	c7.7,0,14,6.3,14,14v89.1h0.1c0.6,9.5,8.8,16.7,18.2,16c8.6-0.6,15.5-7.4,16-16h0V48.3C378.9,33.6,372.2,19.7,360.7,10.6z
	 M99.7,99.1H69.3l30.5-30.3L99.7,99.1z"/>
</svg>
