<svg xmlns="http://www.w3.org/2000/svg" width="400.14" height="490.5" viewBox="0 0 400.14 490.5"><defs><style>.a{fill:#1a7bcd;}</style></defs><title>View</title><path class="a" d="M394.62,459.07h0L313,379.39a133.72,133.72,0,0,0,26.11-79.22c0-73.63-59.9-133.53-133.53-133.53S72,226.54,72,300.17s59.9,133.52,133.52,133.52a133.5,133.5,0,0,0,81.83-28.08L369,485.28A18.33,18.33,0,0,0,395,485,18.34,18.34,0,0,0,394.62,459.07Z"/><path class="a" d="M360.74,10.59h0A48.61,48.61,0,0,0,330.49,0H120.37l-86,85.19V85L0,119v323a48.35,48.35,0,0,0,48.4,48.32H80.75a17.2,17.2,0,1,0,0-34.4H47.51a13.37,13.37,0,0,1-2.67-.43,11.93,11.93,0,0,1-1.23-.38,17.43,17.43,0,0,1-1.93-.87c-.19-.1-.37-.21-.55-.32l-.12-.08c-.18-.1-.34-.22-.53-.35-.38-.26-.71-.51-1-.76l-.5-.44a13.8,13.8,0,0,1-4.56-10.29V133.45h66.26a33.5,33.5,0,0,0,33.39-33.14l.32-65.94H330.49a14,14,0,0,1,14,14V137.5h.06a17.18,17.18,0,0,0,34.29,0h.05V48.32A48.08,48.08,0,0,0,360.74,10.59ZM99.66,99.05H69.28L99.8,68.8Z"/></svg>