<svg id="Layer_1" data-name="Layer 1" xmlns="http://www.w3.org/2000/svg" width="399.4" height="489.09" viewBox="0 0 399.4 489.09"><title>Master_data_work_schedule</title><g id="Thick"><g id="Menu_copy" data-name="Menu copy"><g id="Master_Data_Work_Schedule" data-name="Master Data Work Schedule"><rect x="47.77" y="108.38" width="68.48" height="68.48" rx="17" ry="17"/><rect x="47.77" y="186.81" width="68.48" height="68.48" rx="17" ry="17"/><rect x="47.77" y="265.24" width="68.48" height="68.48" rx="17" ry="17"/><path d="M177.68,109.29H143.2a17,17,0,0,0-17,17v34.48a17,17,0,0,0,16.43,17l52-52A17,17,0,0,0,177.68,109.29Z" transform="translate(0 -0.91)"/><g id="Backup"><path d="M362.36,430.27H163.77a5.47,5.47,0,0,1,0-10.94H362.36a5.47,5.47,0,0,1,0,10.94Z" transform="translate(0 -0.91)"/><path d="M362.36,386.51H163.77a5.47,5.47,0,0,1,0-10.94H362.36a5.47,5.47,0,0,1,0,10.94Z" transform="translate(0 -0.91)"/><path d="M362.36,342.75H163.77a5.47,5.47,0,0,1,0-10.94H362.36a5.47,5.47,0,0,1,0,10.94Z" transform="translate(0 -0.91)"/><path d="M362.36,299H163.77a5.47,5.47,0,0,1,0-10.94H362.36a5.47,5.47,0,1,1,0,10.94Z" transform="translate(0 -0.91)"/><path d="M362.36,255.23H202.67a5.47,5.47,0,0,1,0-10.94H362.36a5.47,5.47,0,0,1,0,10.94Z" transform="translate(0 -0.91)"/><path d="M198.54,168.78l0,6.53-.12,25.78a2.77,2.77,0,0,1-2.77,2.73H163.18l4.77-4.73,25.85-25.62,4.74-4.69m171.69-36.15H213.71l-11,10.92h0l0,0-19.43,19.25-25.85,25.62L137.67,208h0v-.16l-10.94,10.82V460.89A29.14,29.14,0,0,0,155.9,490H370.23c.54,0,1.08,0,1.61,0l.63,0c.25,0,.49,0,.74-.06l.34,0,.65-.08c.65-.09,1.29-.2,1.93-.33.38-.08.77-.16,1.15-.26a28.66,28.66,0,0,0,3.15-1l1.15-.46s0,0,0,0c.39-.16.77-.33,1.15-.51a.24.24,0,0,0,.11-.06l.95-.47.11-.06c.28-.15.55-.29.82-.45l.35-.2c.68-.41,1.35-.84,2-1.3s1.19-.87,1.75-1.35l.11-.09.1-.09a29,29,0,0,0,10.34-22.22V161.75a29.14,29.14,0,0,0-29.17-29.12ZM155.9,479.08a18,18,0,0,1-4.55-.57c-.58-.15-1.15-.33-1.71-.53a19,19,0,0,1-2.43-1.1c-.32-.17-.64-.35-.94-.55s-.46-.3-.69-.45c-.45-.31-.89-.64-1.31-1l-.62-.54a18.15,18.15,0,0,1-6-13.46V218.82h57.94a17.77,17.77,0,0,0,17.77-17.61l.12-25.83.16-31.81v0H370.23a18.23,18.23,0,0,1,18.23,18.2V460.89a18.16,18.16,0,0,1-7.33,14.57c-.23.18-.47.35-.71.51l-.74.47c-.24.15-.49.29-.74.43l-.9.46-.72.32-.69.27-.27.1-.58.2c-.37.12-.75.23-1.14.32l-.74.17-.81.15a1.9,1.9,0,0,1-.25,0l-.57.08-.33,0-.52,0c-.39,0-.79,0-1.19,0Z" transform="translate(0 -0.91)"/></g><path d="M399.39,48.38c0-.46,0-.92-.05-1.38,0-.18,0-.36,0-.54A47.9,47.9,0,0,0,351.46.91H47.94A48,48,0,0,0,0,48.85V346.68A48.35,48.35,0,0,0,48.4,395H80.75a17.2,17.2,0,1,0,0-34.4H47.51a13.37,13.37,0,0,1-2.67-.43,11.93,11.93,0,0,1-1.23-.38,15.75,15.75,0,0,1-1.93-.87,6.05,6.05,0,0,1-.55-.32l-.12-.08c-.18-.1-.34-.22-.53-.35-.38-.26-.71-.51-1-.76L39,357a13.8,13.8,0,0,1-4.56-10.29V300.63h-.18V48.85A13.73,13.73,0,0,1,47.94,35.13h28a28.19,28.19,0,1,0,42.92,0h59.41a28.18,28.18,0,1,0,42.92,0h59.41a28.19,28.19,0,1,0,43.06.18h27.45a13.78,13.78,0,0,1,10.29,4.57c.18.19.31.34.44.5s.5.63.76,1c.13.19.25.36.35.53L363,42a6.05,6.05,0,0,1,.32.55,15.75,15.75,0,0,1,.87,1.93,11.93,11.93,0,0,1,.38,1.23,13.48,13.48,0,0,1,.43,2.67V92.3h0a17.18,17.18,0,0,0,34.34,0h0V48.38Z" transform="translate(0 -0.91)"/></g></g></g></svg>